  0
SECTION
  2
HEADER
  0
ENDSEC
  0
SECTION
  2
TABLES
  0
TABLE
  2
LTYPE
 70
     5
  0
LTYPE
  2
CONTINUOUS
 70
     0
  3
CONTINUOUS
 72
    65
 73
     0
 40
0
  0
LTYPE
  2
DASHED
 70
     0
  3
DASHED
 72
    65
 73
     2
 40
0.75
 49
0.5
 49
-0.25
  0
LTYPE
  2
DOT
 70
     0
  3
DOT
 72
    65
 73
     2
 40
0.25
 49
0
 49
-0.25
  0
LTYPE
  2
CENTER
 70
     0
  3
CENTER
 72
    65
 73
     4
 40
2
 49
1.25
 49
-0.25
 49
0.25
 49
-0.25
  0
LTYPE
  2
DASHDOT
 70
     0
  3
DASHDOT
 72
    65
 73
     4
 40
1
 49
0.5
 49
-0.25
 49
0
 49
-0.25
  0
ENDTAB
  0
TABLE
  2
LAYER
 70
     3
  0
LAYER
  2
0
 70
     0
 62
     1
  6
CONTINUOUS
  0
LAYER
  2
130_VU3
 70
     0
 62
     1
  6
CONTINUOUS
  0
LAYER
  2
DIMS
 70
     0
 62
     1
  6
CONTINUOUS
  0
ENDTAB
  0
ENDSEC
  0
SECTION
  2
BLOCKS
  0
ENDSEC
  0
SECTION
  2
ENTITIES
  0
ARC
  8
130_VU3
 62
     7
  6
CONTINUOUS
 10
207.16388537825
 20
343.29281441704
 30
0
 40
31.811936634971
 50
-44.166363
 51
-16.503313
  0
ARC
  8
130_VU3
 62
     7
  6
CONTINUOUS
 10
246.53815721893
 20
330.23387360098
 30
0
 40
14.481003004596
 50
144.655176
 51
169.655176
  0
ARC
  8
130_VU3
 62
     7
  6
CONTINUOUS
 10
238.95681283022
 20
161.39575292007
 30
0
 40
6.0143930395149
 50
-173.974781
 51
-80.706209
  0
ARC
  8
130_VU3
 62
     7
  6
CONTINUOUS
 10
232.62151726438
 20
171.95984168223
 30
0
 40
3.2875039051133
 50
-72.67908
 51
-49.955571
  0
LINE
  8
130_VU3
 62
     7
  6
CONTINUOUS
 10
231.26553292731
 20
170.6118411194
 30
0
 11
236.98033480816
 21
176.62213158517
 31
0
  0
LINE
  8
130_VU3
 62
     7
  6
CONTINUOUS
 10
230.20893344167
 20
171.61649394893
 30
0
 11
236.54250370552
 21
178.27754694372
 31
0
  0
ARC
  8
130_VU3
 62
     7
  6
CONTINUOUS
 10
234.26021250258
 20
176.9706834125
 30
0
 40
2.5314379332366
 50
54.236593000002
 51
122.209817
  0
ARC
  8
130_VU3
 62
     7
  6
CONTINUOUS
 10
237.84072638975
 20
172.51556048328
 30
0
 40
24.008954362802
 50
-99.454907
 51
-69.454906
  0
LINE
  8
130_VU3
 62
     7
  6
CONTINUOUS
 10
229.3172754999
 20
181.89296709228
 30
0
 11
235.69157625588
 21
182.93608978233
 31
0
  0
ARC
  8
130_VU3
 62
     7
  6
CONTINUOUS
 10
237.77896859729
 20
165.88083899896
 30
0
 40
24.008954362802
 50
80.545098
 51
110.545099
  0
ARC
  8
130_VU3
 62
     7
  6
CONTINUOUS
 10
237.54989417622
 20
202.93575528981
 30
0
 40
3.0241387423621
 50
174.871816
 51
-100.750889
  0
ARC
  8
130_VU3
 62
     7
  6
CONTINUOUS
 10
195.84723859627
 20
351.33835665389
 30
0
 40
52.645137575971
 50
-46.753197
 51
-28.523102
  0
ARC
  8
130_VU3
 62
     7
  6
CONTINUOUS
 10
314.08263930758
 20
263.09114509222
 30
0
 40
100.20537689899
 50
138.686071
 51
148.325759
  0
LINE
  8
130_VU3
 62
     7
  6
CONTINUOUS
 10
229.44496194165
 20
284.10687739543
 30
0
 11
236.2528906244
 21
279.17763540259
 31
0
  0
LINE
  8
130_VU3
 62
     7
  6
CONTINUOUS
 10
228.5900577924
 20
282.92614291715
 30
0
 11
235.3076316806
 21
278.06232170301
 31
0
  0
ARC
  8
130_VU3
 62
     7
  6
CONTINUOUS
 10
224.61072746975
 20
287.4961459303
 30
0
 40
14.321157419632
 50
-52.161038
 51
-43.461729
  0
ARC
  8
130_VU3
 62
     7
  6
CONTINUOUS
 10
231.17485324138
 20
293.82789806605
 30
0
 40
4.4923240852629
 50
-151.502497
 51
-2.9999999999987
  0
ARC
  8
130_VU3
 62
     7
  6
CONTINUOUS
 10
173.20263093921
 20
253.7180534392
 30
0
 40
11.044333862878
 50
-40.333456
 51
39.666544
  0
ARC
  8
130_VU3
 62
     7
  6
CONTINUOUS
 10
177.30433353047
 20
249.37048948145
 30
0
 40
17.282726019592
 50
-43.861556
 51
44.138445
  0
ARC
  8
130_VU3
 62
     7
  6
CONTINUOUS
 10
170.1118223967
 20
261.30033119199
 30
0
 40
57.854998966528
 50
-6.9414420000001
 51
13.058558
  0
ARC
  8
130_VU3
 62
     7
  6
CONTINUOUS
 10
244.92530943463
 20
276.2780863064
 30
0
 40
38.494704863892
 50
-178.678444
 51
-129.812833
  0
ARC
  8
130_VU3
 62
     7
  6
CONTINUOUS
 10
160.61892917506
 20
248.31450357152
 30
0
 40
24.05133312584
 50
102.853157
 51
155.511531
  0
ARC
  8
130_VU3
 62
     7
  6
CONTINUOUS
 10
-23.83443307192
 20
229.97524270437
 30
0
 40
188.92387487001
 50
8.329891
 51
11.585765
  0
ARC
  8
130_VU3
 62
     7
  6
CONTINUOUS
 10
103.20433687115
 20
257.6059874681
 30
0
 40
62.870544696233
 50
0.101434
 51
18.713037
  0
ARC
  8
130_VU3
 62
     7
  6
CONTINUOUS
 10
147.5039879722
 20
251.95786535041
 30
0
 40
19.907173039453
 50
148.078678
 51
154.484693
  0
ARC
  8
130_VU3
 62
     7
  6
CONTINUOUS
 10
191.60225745022
 20
264.09017854024
 30
0
 40
37.116762778416
 50
-170.879542
 51
-134.138448
  0
ARC
  8
130_VU3
 62
     7
  6
CONTINUOUS
 10
186.93589826457
 20
268.82347920035
 30
0
 40
31.113642278945
 50
-161.320265
 51
-131.320265
  0
LINE
  8
130_VU3
 62
     7
  6
CONTINUOUS
 10
161.30535029435
 20
225.77176284734
 30
0
 11
163.49787014641
 21
225.77176284734
 31
0
  0
ARC
  8
130_VU3
 62
     7
  6
CONTINUOUS
 10
154.1530379681
 20
180.44523824205
 30
0
 40
9.9456464855388
 50
-42.532907
 51
-4.5839110000002
  0
ARC
  8
130_VU3
 62
     7
  6
CONTINUOUS
 10
168.90530315859
 20
185.51382340013
 30
0
 40
6.2124837097343
 50
135.307985
 51
-151.375808
  0
ARC
  8
130_VU3
 62
     7
  6
CONTINUOUS
 10
138.52060316013
 20
185.02926018442
 30
0
 40
1.549566866071
 50
-134.058475
 51
-84.518860000001
  0
ARC
  8
130_VU3
 62
     7
  6
CONTINUOUS
 10
138.33203785793
 20
186.99436482133
 30
0
 40
3.5236979914237
 50
-84.51886
 51
-38.042386
  0
LINE
  8
130_VU3
 62
     7
  6
CONTINUOUS
 10
144.56901891202
 20
183.86531702557
 30
0
 11
149.67728212801
 21
179.7568551385
 31
0
  0
ARC
  8
130_VU3
 62
     7
  6
CONTINUOUS
 10
155.6334945822
 20
177.13853998773
 30
0
 40
6.5063074997305
 50
82.26604
 51
156.270001
  0
ARC
  8
130_VU3
 62
     7
  6
CONTINUOUS
 10
156.09392786999
 20
179.49629589999
 30
0
 40
4.1103859633058
 50
35.359473
 51
84.203318
  0
ARC
  8
130_VU3
 62
     7
  6
CONTINUOUS
 10
124.92702333141
 20
172.91409333744
 30
0
 40
4.6313761361661
 50
60.185467
 51
-121.090508
  0
ARC
  8
130_VU3
 62
     7
  6
CONTINUOUS
 10
127.05634634334
 20
167.09736377365
 30
0
 40
1.1172351028012
 50
50.356639000001
 51
94.241308999999
  0
ARC
  8
130_VU3
 62
     7
  6
CONTINUOUS
 10
127.05634634334
 20
160.52011015482
 30
0
 40
1.1172353458014
 50
-94.24131
 51
-50.356638999998
  0
ARC
  8
130_VU3
 62
     7
  6
CONTINUOUS
 10
124.92702333141
 20
154.70338059103
 30
0
 40
4.6313761361661
 50
121.090519
 51
-60.185456999999
  0
CIRCLE
  8
130_VU3
 62
     7
  6
CONTINUOUS
 10
124.92702333141
 20
154.70338059103
 30
0
 40
1.7010019683031
  0
ARC
  8
130_VU3
 62
     7
  6
CONTINUOUS
 10
126.26939406373
 20
149.90860134579
 30
0
 40
9.5234138139551
 50
85.758696
 51
113.084213
  0
CIRCLE
  8
130_VU3
 62
     7
  6
CONTINUOUS
 10
124.92702333141
 20
172.91409333744
 30
0
 40
1.7010019683031
  0
ARC
  8
130_VU3
 62
     7
  6
CONTINUOUS
 10
126.26939406373
 20
177.70887258269
 30
0
 40
9.523413813955
 50
-113.084212
 51
-85.758696
  0
LINE
  8
130_VU3
 62
     7
  6
CONTINUOUS
 10
140.80296264615
 20
171.34174568101
 30
0
 11
145.66296826987
 21
171.34174568101
 31
0
  0
LINE
  8
130_VU3
 62
     7
  6
CONTINUOUS
 10
140.80296264615
 20
166.48174005728
 30
0
 11
145.66296826987
 21
166.48174005728
 31
0
  0
LINE
  8
130_VU3
 62
     7
  6
CONTINUOUS
 10
140.80296264615
 20
161.13573387119
 30
0
 11
145.66296826987
 21
161.13573387119
 31
0
  0
LINE
  8
130_VU3
 62
     7
  6
CONTINUOUS
 10
140.80296264615
 20
156.27572824747
 30
0
 11
145.66296826987
 21
156.27572824747
 31
0
  0
ARC
  8
130_VU3
 62
     7
  6
CONTINUOUS
 10
141.71383291916
 20
155.2535874167
 30
0
 40
22.603512178504
 50
61.198878
 51
101.198878
  0
ARC
  8
130_VU3
 62
     7
  6
CONTINUOUS
 10
141.71383291916
 20
172.36388651177
 30
0
 40
22.603512178504
 50
-101.198879
 51
-61.198877
  0
LINE
  8
130_VU3
 62
     7
  6
CONTINUOUS
 10
136.37144816625
 20
163.07973612068
 30
0
 11
136.37144816625
 21
164.53773780779
 31
0
  0
LINE
  8
130_VU3
 62
     7
  6
CONTINUOUS
 10
128.16694802447
 20
163.07973612068
 30
0
 11
136.37144816625
 21
163.07973612068
 31
0
  0
ARC
  8
130_VU3
 62
     7
  6
CONTINUOUS
 10
138.06524687722
 20
152.90112720957
 30
0
 40
2.8099208724813
 50
-153.02632
 51
-105.297786
  0
ARC
  8
130_VU3
 62
     7
  6
CONTINUOUS
 10
132.29472090089
 20
152.63569873143
 30
0
 40
2.4220567026669
 50
43.999999999999
 51
137.368686
  0
ARC
  8
130_VU3
 62
     7
  6
CONTINUOUS
 10
212.34990090821
 20
78.94038769339
 30
0
 40
111.23304312958
 50
137.368686
 51
139.596544
  0
ARC
  8
130_VU3
 62
     7
  6
CONTINUOUS
 10
126.48298061888
 20
151.98812339409
 30
0
 40
1.5018996879132
 50
-60.185467
 51
-39.250573
  0
ARC
  8
130_VU3
 62
     7
  6
CONTINUOUS
 10
129.41429738483
 20
150.50599712506
 30
0
 40
5.991853062433
 50
24.511361
 51
39.511361
  0
LINE
  8
130_VU3
 62
     7
  6
CONTINUOUS
 10
134.86615886742
 20
152.99185914056
 30
0
 11
135.56100334845
 21
151.62659996876
 31
0
  0
ARC
  8
130_VU3
 62
     7
  6
CONTINUOUS
 10
96.006832081604
 20
163.80873696424
 30
0
 40
32.168377223424
 50
-6.516763
 51
-1.2985500000001
  0
ARC
  8
130_VU3
 62
     7
  6
CONTINUOUS
 10
126.95084096726
 20
160.27394139297
 30
0
 40
1.0231293559073
 50
-36.888028999999
 51
-6.5167630000005
  0
ARC
  8
130_VU3
 62
     7
  6
CONTINUOUS
 10
140.80296264615
 20
158.70573105933
 30
0
 40
2.4300028118616
 50
90
 51
-90
  0
ARC
  8
130_VU3
 62
     7
  6
CONTINUOUS
 10
138.06524687722
 20
174.7163467189
 30
0
 40
2.8099208724813
 50
105.297781
 51
153.026322
  0
LINE
  8
130_VU3
 62
     7
  6
CONTINUOUS
 10
128.16694802447
 20
164.53773780779
 30
0
 11
136.37144816625
 21
164.53773780779
 31
0
  0
ARC
  8
130_VU3
 62
     7
  6
CONTINUOUS
 10
129.41429738483
 20
177.11147680341
 30
0
 40
5.9918533054332
 50
-39.511361
 51
-24.511361
  0
ARC
  8
130_VU3
 62
     7
  6
CONTINUOUS
 10
212.34990090821
 20
248.67708623508
 30
0
 40
111.23304337258
 50
-139.596544
 51
-137.368686
  0
ARC
  8
130_VU3
 62
     7
  6
CONTINUOUS
 10
132.29472090089
 20
174.98177495404
 30
0
 40
2.4220567026668
 50
-137.368687
 51
-43.999999999998
  0
ARC
  8
130_VU3
 62
     7
  6
CONTINUOUS
 10
126.95084096726
 20
167.3435322925
 30
0
 40
1.0231293559074
 50
6.5165570000017
 51
36.888036000001
  0
ARC
  8
130_VU3
 62
     7
  6
CONTINUOUS
 10
96.006832081604
 20
163.80873696424
 30
0
 40
32.168377223424
 50
1.29855
 51
6.516756
  0
ARC
  8
130_VU3
 62
     7
  6
CONTINUOUS
 10
126.48298061888
 20
175.62935029138
 30
0
 40
1.5018996879132
 50
39.250613
 51
60.185469999999
  0
LINE
  8
130_VU3
 62
     7
  6
CONTINUOUS
 10
134.86615862442
 20
174.62561503092
 30
0
 11
135.56100334845
 21
175.99087395972
 31
0
  0
ARC
  8
130_VU3
 62
     7
  6
CONTINUOUS
 10
140.80296264615
 20
168.91174286915
 30
0
 40
2.4300028118616
 50
90
 51
-90
  0
LINE
  8
130_VU3
 62
     7
  6
CONTINUOUS
 10
159.16918901151
 20
163.15661193263
 30
0
 11
159.16918901151
 21
164.76880580317
 31
0
  0
ARC
  8
130_VU3
 62
     7
  6
CONTINUOUS
 10
151.34196138628
 20
155.07931344704
 30
0
 40
2.8206787379296
 50
-63.431781
 51
-1.0000000000001
  0
ARC
  8
130_VU3
 62
     7
  6
CONTINUOUS
 10
157.40602805728
 20
157.13566541854
 30
0
 40
3.2900038920062
 50
100.576528
 51
-177.562987
  0
ARC
  8
130_VU3
 62
     7
  6
CONTINUOUS
 10
145.66296826987
 20
158.70573105933
 30
0
 40
2.4300028118616
 50
-90
 51
90
  0
ARC
  8
130_VU3
 62
     7
  6
CONTINUOUS
 10
156.53685857652
 20
163.00264015047
 30
0
 40
2.6368295851898
 50
-79.423476
 51
3.3475630000005
  0
LINE
  8
130_VU3
 62
     7
  6
CONTINUOUS
 10
154.11899994671
 20
156.99577112866
 30
0
 11
154.16221049971
 21
155.03008572108
 31
0
  0
LINE
  8
130_VU3
 62
     7
  6
CONTINUOUS
 10
156.80215243251
 20
160.36977414286
 30
0
 11
157.02084490956
 21
160.41060863911
 31
0
  0
ARC
  8
130_VU3
 62
     7
  6
CONTINUOUS
 10
157.40602805728
 20
170.48180826694
 30
0
 40
3.2900034060056
 50
177.562995
 51
-100.576519
  0
ARC
  8
130_VU3
 62
     7
  6
CONTINUOUS
 10
151.34196138628
 20
172.53816048143
 30
0
 40
2.8206787379297
 50
1.0000000000001
 51
63.431787000001
  0
ARC
  8
130_VU3
 62
     7
  6
CONTINUOUS
 10
145.66296826987
 20
168.91174286915
 30
0
 40
2.4300028118616
 50
-90
 51
90
  0
ARC
  8
130_VU3
 62
     7
  6
CONTINUOUS
 10
160.46602780913
 20
174.6537753615
 30
0
 40
1.3785651381975
 50
147.914696
 51
-42.532899000002
  0
ARC
  8
130_VU3
 62
     7
  6
CONTINUOUS
 10
156.53685857652
 20
164.61483377801
 30
0
 40
2.6368298281901
 50
3.3475690000005
 51
79.423473000001
  0
LINE
  8
130_VU3
 62
     7
  6
CONTINUOUS
 10
156.80215243251
 20
167.24769978561
 30
0
 11
157.02084515256
 21
167.20686528936
 31
0
  0
LINE
  8
130_VU3
 62
     7
  6
CONTINUOUS
 10
154.11900018971
 20
170.62170255681
 30
0
 11
154.16221049971
 21
172.58738820739
 31
0
  0
ARC
  8
130_VU3
 62
     7
  6
CONTINUOUS
 10
155.01398261834
 20
178.72996778324
 30
0
 40
5.4345992286104
 50
-37.97393
 51
35.359474
  0
LINE
  8
130_VU3
 62
     7
  6
CONTINUOUS
 10
161.30535029435
 20
210.87389723437
 30
0
 11
161.30535029435
 21
225.77176284734
 31
0
  0
LINE
  8
130_VU3
 62
     7
  6
CONTINUOUS
 10
159.84812329213
 20
210.87389723437
 30
0
 11
159.84812329213
 21
225.42991321077
 31
0
  0
ARC
  8
130_VU3
 62
     7
  6
CONTINUOUS
 10
195.61231953243
 20
173.08051232301
 30
0
 40
72.81896357198
 50
130.493988
 51
143.066376
  0
LINE
  8
130_VU3
 62
     7
  6
CONTINUOUS
 10
144.93296480715
 20
218.27505424157
 30
0
 11
146.16541897928
 21
217.49751530685
 31
0
  0
LINE
  8
130_VU3
 62
     7
  6
CONTINUOUS
 10
131.28823098924
 20
193.9161245558
 30
0
 11
146.16541897928
 21
217.49751530685
 31
0
  0
ARC
  8
130_VU3
 62
     7
  6
CONTINUOUS
 10
144.40721523079
 20
190.76542519199
 30
0
 40
4.5552278670516
 50
-145.133615
 51
-66.505311999999
  0
LINE
  8
130_VU3
 62
     7
  6
CONTINUOUS
 10
144.56901891202
 20
183.86531702557
 30
0
 11
152.06204217552
 21
188.45345344871
 31
0
  0
ARC
  8
130_VU3
 62
     7
  6
CONTINUOUS
 10
142.35985086769
 20
188.99680693744
 30
0
 40
7.0705495356394
 50
-159.378219
 51
-134.058474
  0
LINE
  8
130_VU3
 62
     7
  6
CONTINUOUS
 10
135.86791197459
 20
192.50409439088
 30
0
 11
141.1829079228
 21
184.87569372673
 31
0
  0
LINE
  8
130_VU3
 62
     7
  6
CONTINUOUS
 10
135.86791197459
 20
192.50409439088
 30
0
 11
137.06354820211
 21
193.33713944983
 31
0
  0
ARC
  8
130_VU3
 62
     7
  6
CONTINUOUS
 10
132.5928727689
 20
193.08002182431
 30
0
 40
1.549566866071
 50
147.345508
 51
-175.859239
  0
ARC
  8
130_VU3
 62
     7
  6
CONTINUOUS
 10
135.36050746145
 20
192.85603412812
 30
0
 40
4.2938037905465
 50
-175.859247
 51
-117.919585
  0
LINE
  8
130_VU3
 62
     7
  6
CONTINUOUS
 10
131.04735064251
 20
192.96813234484
 30
0
 11
131.07791181587
 21
192.54599152736
 31
0
  0
ARC
  8
130_VU3
 62
     7
  6
CONTINUOUS
 10
130.77848614039
 20
184.20924941755
 30
0
 40
5.4919922500223
 50
29.439624
 51
62.080419
  0
ARC
  8
130_VU3
 62
     7
  6
CONTINUOUS
 10
132.47394867429
 20
185.27665002269
 30
0
 40
3.4921504799187
 50
20.621787000001
 51
27.860391
  0
LINE
  8
130_VU3
 62
     7
  6
CONTINUOUS
 10
137.06354820211
 20
193.33713944983
 30
0
 11
140.66970833895
 21
188.16136249372
 31
0
  0
LINE
  8
130_VU3
 62
     7
  6
CONTINUOUS
 10
141.10714408013
 20
184.82290628964
 30
0
 11
141.1829079228
 21
184.87569372673
 31
0
  0
ARC
  8
130_VU3
 62
     7
  6
CONTINUOUS
 10
139.93404224068
 20
213.15929592491
 30
0
 40
4.2321791622381
 50
143.216782
 51
-135.146269
  0
LINE
  8
130_VU3
 62
     7
  6
CONTINUOUS
 10
138.71272938845
 20
208.41554285071
 30
0
 11
144.93296480715
 21
218.27505424157
 31
0
  0
LINE
  8
130_VU3
 62
     7
  6
CONTINUOUS
 10
136.93380937998
 20
210.17434316489
 30
0
 11
138.63463250008
 21
208.46481334472
 31
0
  0
LINE
  8
130_VU3
 62
     7
  6
CONTINUOUS
 10
138.63463250008
 20
208.46481334472
 30
0
 11
138.71272938845
 21
208.41554285071
 31
0
  0
LINE
  8
130_VU3
 62
     7
  6
CONTINUOUS
 10
136.54570731289
 20
215.69254712624
 30
0
 11
137.40578299413
 21
216.83666121915
 31
0
  0
LINE
  8
130_VU3
 62
     7
  6
CONTINUOUS
 10
146.22322097016
 20
186.58783920192
 30
0
 11
151.3006719935
 21
189.69686984952
 31
0
  0
LINE
  8
130_VU3
 62
     7
  6
CONTINUOUS
 10
151.3006719935
 20
189.69686984952
 30
0
 11
152.06204217552
 21
188.45345344871
 31
0
  0
LINE
  8
130_VU3
 62
     7
  6
CONTINUOUS
 10
159.84812329213
 20
210.87389723437
 30
0
 11
161.30535029435
 21
210.87389723437
 31
0
  0
ARC
  8
130_VU3
 62
     7
  6
CONTINUOUS
 10
147.2764459109
 20
258.36395248718
 30
0
 40
12.298479698104
 50
-130.539441
 51
-99.898199
  0
LINE
  8
130_VU3
 62
     7
  6
CONTINUOUS
 10
140.65011036628
 20
237.11145042998
 30
0
 11
148.72263778435
 21
240.7055713609
 31
0
  0
LINE
  8
130_VU3
 62
     7
  6
CONTINUOUS
 10
142.98356770842
 20
236.55439123939
 30
0
 11
149.31566053056
 21
239.37362048064
 31
0
  0
ARC
  8
130_VU3
 62
     7
  6
CONTINUOUS
 10
144.45998662985
 20
240.9292242027
 30
0
 40
4.5454468627336
 50
-97.044113
 51
-55.207752
  0
ARC
  8
130_VU3
 62
     7
  6
CONTINUOUS
 10
146.24677620242
 20
255.38941544821
 30
0
 40
19.115613231505
 50
-147.178165
 51
-127.957864
  0
LINE
  8
130_VU3
 62
     7
  6
CONTINUOUS
 10
134.48911161212
 20
240.31745495679
 30
0
 11
139.52553106598
 21
241.95388689038
 31
0
  0
LINE
  8
130_VU3
 62
     7
  6
CONTINUOUS
 10
139.52553106598
 20
241.95388689038
 30
0
 11
139.97607837333
 21
240.56724490883
 31
0
  0
LINE
  8
130_VU3
 62
     7
  6
CONTINUOUS
 10
135.98575010094
 20
239.2612408696
 30
0
 11
139.97607837333
 21
240.56724490883
 31
0
  0
ARC
  8
130_VU3
 62
     7
  6
CONTINUOUS
 10
146.24677620242
 20
255.38941544821
 30
0
 40
19.115613231505
 50
-122.465233
 51
-107.024456
  0
ARC
  8
130_VU3
 62
     7
  6
CONTINUOUS
 10
146.24677620242
 20
255.38941544821
 30
0
 40
19.115613231505
 50
-99.829051
 51
-97.044113
  0
ARC
  8
130_VU3
 62
     7
  6
CONTINUOUS
 10
146.24677620242
 20
255.38941544821
 30
0
 40
19.115613231505
 50
-167.087528
 51
-151.875549
  0
LINE
  8
130_VU3
 62
     7
  6
CONTINUOUS
 10
129.38822466966
 20
246.37853807033
 30
0
 11
134.7468000453
 21
247.22725300242
 31
0
  0
LINE
  8
130_VU3
 62
     7
  6
CONTINUOUS
 10
130.18277824107
 20
245.02820713481
 30
0
 11
134.97488181022
 21
245.78720174607
 31
0
  0
LINE
  8
130_VU3
 62
     7
  6
CONTINUOUS
 10
134.7468000453
 20
247.22725300242
 30
0
 11
134.97488181022
 21
245.78720174607
 31
0
  0
LINE
  8
130_VU3
 62
     7
  6
CONTINUOUS
 10
129.53835729039
 20
260.53292536899
 30
0
 11
132.03073122742
 21
260.18264483766
 31
0
  0
LINE
  8
130_VU3
 62
     7
  6
CONTINUOUS
 10
128.93940072031
 20
259.1447726547
 30
0
 11
131.82781675862
 21
258.73883242297
 31
0
  0
LINE
  8
130_VU3
 62
     7
  6
CONTINUOUS
 10
127.6828501543
 20
253.80665984674
 30
0
 11
132.56929761062
 21
253.80665984674
 31
0
  0
LINE
  8
130_VU3
 62
     7
  6
CONTINUOUS
 10
127.51932603108
 20
252.34865815962
 30
0
 11
132.56929761062
 21
252.34865815962
 31
0
  0
ARC
  8
130_VU3
 62
     7
  6
CONTINUOUS
 10
147.5039879722
 20
251.95786535041
 30
0
 40
19.907173039453
 50
158.837092
 51
174.671223
  0
ARC
  8
130_VU3
 62
     7
  6
CONTINUOUS
 10
131.69041370762
 20
252.0522269766
 30
0
 40
4.1816078877198
 50
175.934939
 51
-167.087519
  0
LINE
  8
130_VU3
 62
     7
  6
CONTINUOUS
 10
132.56929761062
 20
252.34865815962
 30
0
 11
132.56929761062
 21
253.80665984674
 31
0
  0
LINE
  8
130_VU3
 62
     7
  6
CONTINUOUS
 10
131.82781675862
 20
258.73883242297
 30
0
 11
132.03073122742
 21
260.18264483766
 31
0
  0
ARC
  8
130_VU3
 62
     7
  6
CONTINUOUS
 10
143.81928018146
 20
253.16062197218
 30
0
 40
6.1436368700686
 50
-177.595737
 51
-137.595737
  0
ARC
  8
130_VU3
 62
     7
  6
CONTINUOUS
 10
149.459498715
 20
253.39743789621
 30
0
 40
11.78882475936
 50
155.511531
 51
-177.595728
  0
ARC
  8
130_VU3
 62
     7
  6
CONTINUOUS
 10
139.81487320179
 20
231.55406486029
 30
0
 40
20.344934158005
 50
27.700871
 51
38.955107
  0
ARC
  8
130_VU3
 62
     7
  6
CONTINUOUS
 10
145.35021937498
 20
231.94238344063
 30
0
 40
4.5825775486992
 50
-49.506011
 51
34.309472
  0
ARC
  8
130_VU3
 62
     7
  6
CONTINUOUS
 10
142.53862617456
 20
231.530478767
 30
0
 40
7.2448417303205
 50
24.417858
 51
51.44962
  0
LINE
  8
130_VU3
 62
     7
  6
CONTINUOUS
 10
148.72263778435
 20
240.7055713609
 30
0
 11
149.31566053056
 21
239.37362048064
 31
0
  0
ARC
  8
130_VU3
 62
     7
  6
CONTINUOUS
 10
195.89123185317
 20
219.88082610068
 30
0
 40
40.425930401597
 50
159.238498
 51
167.077327
  0
ARC
  8
130_VU3
 62
     7
  6
CONTINUOUS
 10
160.70440914098
 20
230.26675434669
 30
0
 40
4.9120521529485
 50
-140.711253
 51
-100.039291
  0
ARC
  8
130_VU3
 62
     7
  6
CONTINUOUS
 10
158.49708814179
 20
228.46080663195
 30
0
 40
2.0600856708145
 50
167.077319
 51
-140.711243
  0
ARC
  8
130_VU3
 62
     7
  6
CONTINUOUS
 10
149.93740688201
 20
237.30172718316
 30
0
 40
8.7191793543405
 50
-20.761508
 51
25.180728
  0
ARC
  8
130_VU3
 62
     7
  6
CONTINUOUS
 10
153.20598932723
 20
242.59677426629
 30
0
 40
2.9449111736844
 50
68.225397
 51
95.187301000001
  0
ARC
  8
130_VU3
 62
     7
  6
CONTINUOUS
 10
153.50218528597
 20
294.04246366933
 30
0
 40
48.516099397082
 50
-99.898199
 51
-90.664252
  0
ARC
  8
130_VU3
 62
     7
  6
CONTINUOUS
 10
153.07845451765
 20
242.27750445885
 30
0
 40
3.28871088751
 50
38.955107
 51
68.225395
  0
ARC
  8
130_VU3
 62
     7
  6
CONTINUOUS
 10
156.27228157137
 20
258.28531540918
 30
0
 40
1.3198679342765
 50
25.737361000002
 51
-176.588496
  0
ARC
  8
130_VU3
 62
     7
  6
CONTINUOUS
 10
232.80581183663
 20
169.22916393045
 30
0
 40
16.95971400782
 50
121.128596
 51
127.591994
  0
ARC
  8
130_VU3
 62
     7
  6
CONTINUOUS
 10
172.35832160222
 20
183.80178994806
 30
0
 40
26.179532990473
 50
-35.795975
 51
2.962356
  0
ARC
  8
130_VU3
 62
     7
  6
CONTINUOUS
 10
183.47658611365
 20
177.34541584711
 30
0
 40
8.6563210136044
 50
-14.980544
 51
90.892744
  0
ARC
  8
130_VU3
 62
     7
  6
CONTINUOUS
 10
181.7488422074
 20
177.34541584711
 30
0
 40
8.6563210136044
 50
89.10726
 51
-165.019453
  0
ARC
  8
130_VU3
 62
     7
  6
CONTINUOUS
 10
192.86710671883
 20
183.80178994806
 30
0
 40
26.179532747472
 50
177.037649
 51
-144.20402
  0
ARC
  8
130_VU3
 62
     7
  6
CONTINUOUS
 10
193.76814568646
 20
169.46598908849
 30
0
 40
9.624839458319
 50
-83.881917
 51
-10.156437
  0
ARC
  8
130_VU3
 62
     7
  6
CONTINUOUS
 10
194.06494015489
 20
162.53510250646
 30
0
 40
16.217424207885
 50
176.497813
 51
3.5022019999999
  0
ARC
  8
130_VU3
 62
     7
  6
CONTINUOUS
 10
232.15431447476
 20
145.97527121936
 30
0
 40
57.904200934462
 50
143.380948
 51
153.380948
  0
ARC
  8
130_VU3
 62
     7
  6
CONTINUOUS
 10
199.43168617199
 20
161.65309070384
 30
0
 40
21.635083157893
 50
151.671146
 51
175.034405
  0
ARC
  8
130_VU3
 62
     7
  6
CONTINUOUS
 10
189.64445278475
 20
181.47788275997
 30
0
 40
22.206367584951
 50
-144.20403
 51
-139.194989
  0
ARC
  8
130_VU3
 62
     7
  6
CONTINUOUS
 10
158.91817020704
 20
180.06319149897
 30
0
 40
5.1652232109037
 50
-4.5839109999999
 51
28.624187
  0
ARC
  8
130_VU3
 62
     7
  6
CONTINUOUS
 10
211.3134590249
 20
182.15465312309
 30
0
 40
38.575839012776
 50
-169.47443
 51
-159.474428
  0
ARC
  8
130_VU3
 62
     7
  6
CONTINUOUS
 10
173.87408324118
 20
167.97715188069
 30
0
 40
1.4580014441167
 50
-128.499873
 51
16.606028
  0
ARC
  8
130_VU3
 62
     7
  6
CONTINUOUS
 10
173.75984200498
 20
167.76422774431
 30
0
 40
1.2210108028846
 50
-139.195001
 51
-130.524714
  0
ARC
  8
130_VU3
 62
     7
  6
CONTINUOUS
 10
173.12753461831
 20
167.75451064906
 30
0
 40
2.2370421205785
 50
16.606025
 51
23.010832000001
  0
ARC
  8
130_VU3
 62
     7
  6
CONTINUOUS
 10
194.36173462333
 20
169.46598908849
 30
0
 40
9.6248394583191
 50
-169.843567
 51
-96.118088
  0
LINE
  8
130_VU3
 62
     7
  6
CONTINUOUS
 10
193.33593931133
 20
155.03596389788
 30
0
 11
194.79394099845
 21
155.03596389788
 31
0
  0
LINE
  8
130_VU3
 62
     7
  6
CONTINUOUS
 10
193.33593931133
 20
155.03596389788
 30
0
 11
193.33593931133
 21
159.8959695216
 31
0
  0
LINE
  8
130_VU3
 62
     7
  6
CONTINUOUS
 10
194.79394099845
 20
155.03596389788
 30
0
 11
194.79394099845
 21
159.8959692786
 31
0
  0
ARC
  8
130_VU3
 62
     7
  6
CONTINUOUS
 10
191.35134507987
 20
167.97715188069
 30
0
 40
1.458001687117
 50
163.393969
 51
-51.500119
  0
ARC
  8
130_VU3
 62
     7
  6
CONTINUOUS
 10
295.93983444775
 20
138.20389988177
 30
0
 40
115.88954865382
 50
159.100208
 51
162.376515
  0
ARC
  8
130_VU3
 62
     7
  6
CONTINUOUS
 10
198.87497058379
 20
169.03849157281
 30
0
 40
14.044765497807
 50
162.376516
 51
-174.813108
  0
ARC
  8
130_VU3
 62
     7
  6
CONTINUOUS
 10
186.63749148927
 20
179.94834494908
 30
0
 40
1.1130350859411
 50
-21.206849000002
 51
149.416189
  0
ARC
  8
130_VU3
 62
     7
  6
CONTINUOUS
 10
153.91196929615
 20
182.15465312309
 30
0
 40
38.575839012776
 50
-20.525576
 51
-10.525576
  0
ARC
  8
130_VU3
 62
     7
  6
CONTINUOUS
 10
192.09789394574
 20
167.75451064906
 30
0
 40
2.2370423635787
 50
156.989164
 51
163.393977
  0
ARC
  8
130_VU3
 62
     7
  6
CONTINUOUS
 10
175.5809757793
 20
181.47788275997
 30
0
 40
22.20636734195
 50
-40.805017
 51
-35.795975
  0
ARC
  8
130_VU3
 62
     7
  6
CONTINUOUS
 10
191.46558655907
 20
167.76422774431
 30
0
 40
1.2210108028845
 50
-49.475296000001
 51
-40.805016000003
  0
ARC
  8
130_VU3
 62
     7
  6
CONTINUOUS
 10
272.81374749155
 20
125.49210999641
 30
0
 40
76.187651684035
 50
131.370081
 51
140.203316
  0
ARC
  8
130_VU3
 62
     7
  6
CONTINUOUS
 10
248.60441290988
 20
147.28675540094
 30
0
 40
41.467624006986
 50
122.289905
 51
142.931943
  0
ARC
  8
130_VU3
 62
     7
  6
CONTINUOUS
 10
188.6981941378
 20
161.65309070384
 30
0
 40
21.635083400893
 50
4.9656000000001
 51
28.32886
  0
ARC
  8
130_VU3
 62
     7
  6
CONTINUOUS
 10
155.97556583503
 20
145.97527121936
 30
0
 40
57.904200934462
 50
26.619057
 51
36.619057
  0
ARC
  8
130_VU3
 62
     7
  6
CONTINUOUS
 10
92.190045862035
 20
138.20389988177
 30
0
 40
115.88954865382
 50
17.623489
 51
20.899797
  0
ARC
  8
130_VU3
 62
     7
  6
CONTINUOUS
 10
189.254909726
 20
169.03849157281
 30
0
 40
14.044765497807
 50
-5.1868860000001
 51
17.623488
  0
ARC
  8
130_VU3
 62
     7
  6
CONTINUOUS
 10
201.49238882052
 20
179.94834494908
 30
0
 40
1.1130350859412
 50
30.583801
 51
-158.793104
  0
ARC
  8
130_VU3
 62
     7
  6
CONTINUOUS
 10
244.93961583319
 20
148.71323168957
 30
0
 40
39.908350251682
 50
140.203316
 51
141.651462
  0
ARC
  8
130_VU3
 62
     7
  6
CONTINUOUS
 10
214.62008656614
 20
172.95913173856
 30
0
 40
1.1235178750713
 50
160.21204
 51
-37.068037000001
  0
ARC
  8
130_VU3
 62
     7
  6
CONTINUOUS
 10
214.07578950731
 20
173.13049869585
 30
0
 40
0.55382437085416
 50
141.651462
 51
157.82999
  0
ARC
  8
130_VU3
 62
     7
  6
CONTINUOUS
 10
226.03090154609
 20
160.03143124335
 30
0
 40
6.9833204537029
 50
6.025224
 51
57.928428
  0
ARC
  8
130_VU3
 62
     7
  6
CONTINUOUS
 10
231.07789248418
 20
162.58973796068
 30
0
 40
10.373095887159
 50
169.414447
 51
-134.124338
  0
ARC
  8
130_VU3
 62
     7
  6
CONTINUOUS
 10
240.08392492246
 20
169.62543299399
 30
0
 40
21.693693367713
 50
-134.124349
 51
-106.571189
  0
LINE
  8
130_VU3
 62
     7
  6
CONTINUOUS
 10
223.85595790437
 20
155.14361277945
 30
0
 11
224.9803880025
 21
154.05303748049
 31
0
  0
LINE
  8
130_VU3
 62
     7
  6
CONTINUOUS
 10
224.9348499928
 20
168.76749717323
 30
0
 11
226.23007065156
 21
168.95450289963
 31
0
  0
ARC
  8
130_VU3
 62
     7
  6
CONTINUOUS
 10
225.61393955061
 20
164.06404909767
 30
0
 40
4.7522192039989
 50
98.215664
 51
174.793251
  0
ARC
  8
130_VU3
 62
     7
  6
CONTINUOUS
 10
241.61145506503
 20
165.30154212363
 30
0
 40
16.323088263153
 50
122.209818
 51
148.494052
  0
ARC
  8
130_VU3
 62
     7
  6
CONTINUOUS
 10
231.04274103551
 20
166.95000986114
 30
0
 40
1.6437914401023
 50
95.603655999999
 51
-142.485162
  0
ARC
  8
130_VU3
 62
     7
  6
CONTINUOUS
 10
226.026502755
 20
170.36443500012
 30
0
 40
1.4245519694108
 50
-81.784335000001
 51
3.9064940000008
  0
ARC
  8
130_VU3
 62
     7
  6
CONTINUOUS
 10
229.4851036441
 20
172.75810270894
 30
0
 40
2.0877281678008
 50
149.050707
 51
172.172264
  0
ARC
  8
130_VU3
 62
     7
  6
CONTINUOUS
 10
236.05262534466
 20
171.85522398618
 30
0
 40
8.7170215118435
 50
172.172261
 51
-170.79967
  0
ARC
  8
130_VU3
 62
     7
  6
CONTINUOUS
 10
231.70440164115
 20
174.90057884009
 30
0
 40
6.3679317186099
 50
-97.418234
 51
-72.679081
  0
LINE
  8
130_VU3
 62
     7
  6
CONTINUOUS
 10
230.20893344167
 20
171.61649394893
 30
0
 11
231.26553292731
 21
170.6118411194
 31
0
  0
LINE
  8
130_VU3
 62
     7
  6
CONTINUOUS
 10
227.45250713709
 20
182.44652076082
 30
0
 11
228.8169056019
 21
181.94126412717
 31
0
  0
ARC
  8
130_VU3
 62
     7
  6
CONTINUOUS
 10
227.05844889011
 20
181.38240333249
 30
0
 40
1.1347369550533
 50
69.679673999999
 51
122.289905
  0
ARC
  8
130_VU3
 62
     7
  6
CONTINUOUS
 10
229.15844371211
 20
182.86355565639
 30
0
 40
0.98349892604928
 50
-110.320336
 51
-80.706222999998
  0
ARC
  8
130_VU3
 62
     7
  6
CONTINUOUS
 10
190.21412198894
 20
184.71870752607
 30
0
 40
8.3002101765331
 50
3.0113150000005
 51
22.091199
  0
ARC
  8
130_VU3
 62
     7
  6
CONTINUOUS
 10
198.04122689903
 20
225.5263860234
 30
0
 40
1.4508540768462
 50
-114.897562
 51
49.277399
  0
ARC
  8
130_VU3
 62
     7
  6
CONTINUOUS
 10
161.13873617955
 20
176.49610799434
 30
0
 40
62.813614833357
 50
52.946476
 51
54.521014
  0
ARC
  8
130_VU3
 62
     7
  6
CONTINUOUS
 10
161.13873617955
 20
256.11767125291
 30
0
 40
62.813614833357
 50
-54.521014
 51
-52.946476
  0
ARC
  8
130_VU3
 62
     7
  6
CONTINUOUS
 10
198.04122689903
 20
207.08739298085
 30
0
 40
1.4508540768461
 50
-49.277383
 51
114.897564
  0
ARC
  8
130_VU3
 62
     7
  6
CONTINUOUS
 10
194.28510497065
 20
215.65616415214
 30
0
 40
9.858590905803
 50
112.070945
 51
171.954956
  0
ARC
  8
130_VU3
 62
     7
  6
CONTINUOUS
 10
185.65416728042
 20
216.30688950213
 30
0
 40
16.256886238548
 50
120.844266
 51
-120.844256
  0
LINE
  8
130_VU3
 62
     7
  6
CONTINUOUS
 10
165.08617636031
 20
191.33610795035
 30
0
 11
165.08617636031
 21
224.18345663344
 31
0
  0
ARC
  8
130_VU3
 62
     7
  6
CONTINUOUS
 10
182.61271428203
 20
181.63345615699
 30
0
 40
16.503878528353
 50
22.091199
 51
157.908806
  0
ARC
  8
130_VU3
 62
     7
  6
CONTINUOUS
 10
184.74755996135
 20
214.87490779912
 30
0
 40
14.56268171711
 50
-120.670386
 51
-79.578442
  0
LINE
  8
130_VU3
 62
     7
  6
CONTINUOUS
 10
179.6635335934
 20
215.57788865857
 30
0
 11
184.52353921712
 21
215.57788865857
 31
0
  0
LINE
  8
130_VU3
 62
     7
  6
CONTINUOUS
 10
179.6635335934
 20
217.03589034568
 30
0
 11
184.52353921712
 21
217.03589034568
 31
0
  0
ARC
  8
130_VU3
 62
     7
  6
CONTINUOUS
 10
175.01130657511
 20
184.71870752607
 30
0
 40
8.3002101765331
 50
157.908806
 51
176.988691
  0
ARC
  8
130_VU3
 62
     7
  6
CONTINUOUS
 10
163.02008688155
 20
191.33610795035
 30
0
 40
2.0660892357615
 50
-44.692021000001
 51
0
  0
LINE
  8
130_VU3
 62
     7
  6
CONTINUOUS
 10
179.6635335934
 20
215.57788865857
 30
0
 11
179.6635335934
 21
217.03589034568
 31
0
  0
ARC
  8
130_VU3
 62
     7
  6
CONTINUOUS
 10
182.19906972638
 20
226.56925745116
 30
0
 40
26.52799223469
 50
-78.733776
 51
-54.521014
  0
LINE
  8
130_VU3
 62
     7
  6
CONTINUOUS
 10
183.34171512558
 20
186.0006861275
 30
0
 11
183.34171512558
 21
190.86069175123
 31
0
  0
LINE
  8
130_VU3
 62
     7
  6
CONTINUOUS
 10
181.88371343847
 20
186.0006861275
 30
0
 11
181.88371343847
 21
190.86069175123
 31
0
  0
LINE
  8
130_VU3
 62
     7
  6
CONTINUOUS
 10
181.88371343847
 20
190.86069175123
 30
0
 11
183.34171512558
 21
190.86069175123
 31
0
  0
ARC
  8
130_VU3
 62
     7
  6
CONTINUOUS
 10
194.28510497065
 20
216.95761485211
 30
0
 40
9.8585906628027
 50
-171.954956
 51
-112.070945
  0
ARC
  8
130_VU3
 62
     7
  6
CONTINUOUS
 10
192.85880339922
 20
221.61034633898
 30
0
 40
13.975797887002
 50
-99.381287
 51
-70.906567
  0
ARC
  8
130_VU3
 62
     7
  6
CONTINUOUS
 10
184.74755996135
 20
217.73887120513
 30
0
 40
14.562681717111
 50
79.578441
 51
120.670386
  0
ARC
  8
130_VU3
 62
     7
  6
CONTINUOUS
 10
177.78994383439
 20
249.85609978537
 30
0
 40
17.282726019592
 50
-134.138448
 51
-46.138445
  0
LINE
  8
130_VU3
 62
     7
  6
CONTINUOUS
 10
180.59065912722
 20
245.53881123265
 30
0
 11
183.78664402343
 21
242.34282633644
 31
0
  0
ARC
  8
130_VU3
 62
     7
  6
CONTINUOUS
 10
163.49787014641
 20
224.18345663344
 30
0
 40
1.588306213898
 50
0
 51
90
  0
ARC
  8
130_VU3
 62
     7
  6
CONTINUOUS
 10
173.44237987663
 20
253.95780237663
 30
0
 40
11.044333619877
 50
-129.666548
 51
-49.666546
  0
ARC
  8
130_VU3
 62
     7
  6
CONTINUOUS
 10
164.57635618137
 20
257.60493989389
 30
0
 40
1.5026328197615
 50
-170.042176
 51
4.2879680000016
  0
ARC
  8
130_VU3
 62
     7
  6
CONTINUOUS
 10
182.19906972638
 20
206.04452179609
 30
0
 40
26.52799223469
 50
54.521014
 51
78.733775
  0
ARC
  8
130_VU3
 62
     7
  6
CONTINUOUS
 10
192.85880339922
 20
211.00343290827
 30
0
 40
13.975797644001
 50
70.906566
 51
99.381287
  0
LINE
  8
130_VU3
 62
     7
  6
CONTINUOUS
 10
181.62162208319
 20
246.56977418862
 30
0
 11
184.8176069794
 21
243.37378929241
 31
0
  0
LINE
  8
130_VU3
 62
     7
  6
CONTINUOUS
 10
183.78664402343
 20
242.34282633644
 30
0
 11
184.8176069794
 21
243.37378929241
 31
0
  0
ARC
  8
130_VU3
 62
     7
  6
CONTINUOUS
 10
259.31657826739
 20
241.72526517883
 30
0
 40
57.854999209528
 50
-166.941447
 51
-146.941446
  0
ARC
  8
130_VU3
 62
     7
  6
CONTINUOUS
 10
194.13759043496
 20
202.06305963197
 30
0
 40
38.494705106892
 50
21.321563
 51
70.187173
  0
ARC
  8
130_VU3
 62
     7
  6
CONTINUOUS
 10
228.7410316801
 20
204.85593865173
 30
0
 40
16.946569636611
 50
-138.554984
 51
-128.554984
  0
LINE
  8
130_VU3
 62
     7
  6
CONTINUOUS
 10
203.78549572297
 20
203.67586634922
 30
0
 11
211.76147499832
 21
201.40291510509
 31
0
  0
LINE
  8
130_VU3
 62
     7
  6
CONTINUOUS
 10
203.27870259854
 20
202.30451686137
 30
0
 11
211.36196285303
 21
200.00099302287
 31
0
  0
ARC
  8
130_VU3
 62
     7
  6
CONTINUOUS
 10
213.06118168527
 20
190.27456389499
 30
0
 40
4.4923240852629
 50
48.497508
 51
-163
  0
ARC
  8
130_VU3
 62
     7
  6
CONTINUOUS
 10
208.20231719086
 20
185.92988386457
 30
0
 40
1.4353564909132
 50
-153.550499
 51
16.999999999999
  0
LINE
  8
130_VU3
 62
     7
  6
CONTINUOUS
 10
204.99765937162
 20
191.99761619481
 30
0
 11
205.21642037475
 21
193.47973201483
 31
0
  0
LINE
  8
130_VU3
 62
     7
  6
CONTINUOUS
 10
205.45727569246
 20
188.60000084328
 30
0
 11
206.9172033998
 21
185.29056324679
 31
0
  0
ARC
  8
130_VU3
 62
     7
  6
CONTINUOUS
 10
211.11303069198
 20
191.09498460334
 30
0
 40
6.1816268050284
 50
171.603745
 51
-156.195765
  0
ARC
  8
130_VU3
 62
     7
  6
CONTINUOUS
 10
207.04157458872
 20
199.45527392639
 30
0
 40
4.2505164494569
 50
174.382717
 51
-139.46092
  0
ARC
  8
130_VU3
 62
     7
  6
CONTINUOUS
 10
217.06385558693
 20
198.46952797674
 30
0
 40
14.321157419632
 50
166.515043
 51
174.382719
  0
ARC
  8
130_VU3
 62
     7
  6
CONTINUOUS
 10
201.94481403404
 20
193.96262265961
 30
0
 40
3.3070518197331
 50
-8.3962610000002
 51
55.638819999999
  0
ARC
  8
130_VU3
 62
     7
  6
CONTINUOUS
 10
209.06656615892
 20
200.38728765386
 30
0
 40
6.0971414392668
 50
161.672558
 51
166.515045
  0
ARC
  8
130_VU3
 62
     7
  6
CONTINUOUS
 10
538.22297247507
 20
289.68828451492
 30
0
 40
344.5118499636
 50
-163
 51
-162.544984
  0
LINE
  8
130_VU3
 62
     7
  6
CONTINUOUS
 10
211.36196285303
 20
200.00099302287
 30
0
 11
211.76147499832
 21
201.40291510509
 31
0
  0
LINE
  8
130_VU3
 62
     7
  6
CONTINUOUS
 10
206.22457240833
 20
207.07763287455
 30
0
 11
210.10154688155
 21
208.37158045483
 31
0
  0
ARC
  8
130_VU3
 62
     7
  6
CONTINUOUS
 10
206.90975908619
 20
204.8542643798
 30
0
 40
2.3265529751553
 50
107.127995
 51
147.838968
  0
ARC
  8
130_VU3
 62
     7
  6
CONTINUOUS
 10
205.72370654676
 20
203.39136089101
 30
0
 40
1.9589805438213
 50
156.538281
 51
171.649324
  0
ARC
  8
130_VU3
 62
     7
  6
CONTINUOUS
 10
217.06385558693
 20
198.46952797674
 30
0
 40
14.321157419632
 50
147.838968
 51
156.538276
  0
ARC
  8
130_VU3
 62
     7
  6
CONTINUOUS
 10
209.69874208244
 20
209.57847950239
 30
0
 40
1.2723431542834
 50
-71.543475000001
 51
27.480627
  0
ARC
  8
130_VU3
 62
     7
  6
CONTINUOUS
 10
219.18099553677
 20
202.06046244497
 30
0
 40
6.1306825250785
 50
-0.28694499999957
 51
27.323711000001
  0
ARC
  8
130_VU3
 62
     7
  6
CONTINUOUS
 10
221.07902772206
 20
188.64696016162
 30
0
 40
5.7243833819322
 50
-58.871409
 51
-37.802959
  0
ARC
  8
130_VU3
 62
     7
  6
CONTINUOUS
 10
203.40223616548
 20
208.18615471627
 30
0
 40
22.807012763983
 50
-46.164592
 51
-16.727664
  0
ARC
  8
130_VU3
 62
     7
  6
CONTINUOUS
 10
218.61353204613
 20
192.25147129856
 30
0
 40
0.78024449985473
 50
-123.858599
 51
-41.475181000003
  0
ARC
  8
130_VU3
 62
     7
  6
CONTINUOUS
 10
223.69390636285
 20
202.08768114946
 30
0
 40
1.6187315501044
 50
-16.727665999999
 51
-2.0506100000003
  0
ARC
  8
130_VU3
 62
     7
  6
CONTINUOUS
 10
233.49461824668
 20
179.75071087639
 30
0
 40
9.556078640753
 50
115.68257
 51
145.682572
  0
LINE
  8
130_VU3
 62
     7
  6
CONTINUOUS
 10
225.28379062058
 20
210.51739054984
 30
0
 11
227.84828631207
 21
211.45079083692
 31
0
  0
ARC
  8
130_VU3
 62
     7
  6
CONTINUOUS
 10
226.1653791167
 20
208.09524563808
 30
0
 40
2.5775926776442
 50
110
 51
-162.426635
  0
ARC
  8
130_VU3
 62
     7
  6
CONTINUOUS
 10
247.02756075724
 20
214.70244588255
 30
0
 40
24.461050310942
 50
-162.426642
 51
-156.310672
  0
ARC
  8
130_VU3
 62
     7
  6
CONTINUOUS
 10
226.6183887459
 20
214.82990682004
 30
0
 40
3.5959801260646
 50
-70
 51
20
  0
ARC
  8
130_VU3
 62
     7
  6
CONTINUOUS
 10
221.43549576955
 20
232.93893925779
 30
0
 40
18.968292610034
 50
175.00904
 51
-166.941437
  0
ARC
  8
130_VU3
 62
     7
  6
CONTINUOUS
 10
206.49967156866
 20
234.56983078497
 30
0
 40
3.9605959729773
 50
101.267871
 51
179.720449
  0
ARC
  8
130_VU3
 62
     7
  6
CONTINUOUS
 10
206.07575174612
 20
235.19929725535
 30
0
 40
3.2735474269636
 50
70.187171
 51
96.137058
  0
ARC
  8
130_VU3
 62
     7
  6
CONTINUOUS
 10
222.19078243952
 20
249.95979432336
 30
0
 40
3.9605959729772
 50
-98.732135999999
 51
-20.279556999999
  0
ARC
  8
130_VU3
 62
     7
  6
CONTINUOUS
 10
222.37384645836
 20
249.22330008013
 30
0
 40
3.2735471839634
 50
-129.812832
 51
-103.862948
  0
ARC
  8
130_VU3
 62
     7
  6
CONTINUOUS
 10
208.71349622737
 20
256.60068364082
 30
0
 40
18.968292853034
 50
-24.990965
 51
-6.941442
  0
ARC
  8
130_VU3
 62
     7
  6
CONTINUOUS
 10
180.53034742943
 20
297.37433335078
 30
0
 40
16.818196476064
 50
90
 51
177.951494
  0
ARC
  8
130_VU3
 62
     7
  6
CONTINUOUS
 10
167.97918364593
 20
333.78115768569
 30
0
 40
19.417716284081
 50
-114.998529
 51
-88.271754
  0
ARC
  8
130_VU3
 62
     7
  6
CONTINUOUS
 10
168.96548922523
 20
337.31229537373
 30
0
 40
11.444965753466
 50
176.042097
 51
-95.664652
  0
ARC
  8
130_VU3
 62
     7
  6
CONTINUOUS
 10
174.09912701658
 20
368.41915186982
 30
0
 40
15.791990007596
 50
132.949256
 51
162.949257
  0
ARC
  8
130_VU3
 62
     7
  6
CONTINUOUS
 10
200.55737088057
 20
370.24531137595
 30
0
 40
42.723246311921
 50
-166.266224
 51
-146.266224
  0
ARC
  8
130_VU3
 62
     7
  6
CONTINUOUS
 10
153.02670080377
 20
274.48256257472
 30
0
 40
10.267438635898
 50
18.713037
 51
36.25667
  0
LINE
  8
130_VU3
 62
     7
  6
CONTINUOUS
 10
146.47984967912
 20
323.72853518637
 30
0
 11
150.53009574584
 21
355.01464375588
 31
0
  0
LINE
  8
130_VU3
 62
     7
  6
CONTINUOUS
 10
131.19449460277
 20
355.01464375588
 30
0
 11
135.24474066949
 21
323.72853518637
 31
0
  0
ARC
  8
130_VU3
 62
     7
  6
CONTINUOUS
 10
182.84055596267
 20
331.36023239234
 30
0
 40
31.366578355628
 50
140.013204
 51
-169.138494
  0
ARC
  8
130_VU3
 62
     7
  6
CONTINUOUS
 10
161.96949654986
 20
298.92660383798
 30
0
 40
2.4300030548618
 50
150.841332
 51
-155.476533
  0
ARC
  8
130_VU3
 62
     7
  6
CONTINUOUS
 10
129.96128397077
 20
298.92660383798
 30
0
 40
2.4300025688614
 50
-24.523464000002
 51
29.158671999999
  0
ARC
  8
130_VU3
 62
     7
  6
CONTINUOUS
 10
145.96539013882
 20
291.14915676436
 30
0
 40
1.9440022494893
 50
35.134272000001
 51
144.865734
  0
ARC
  8
130_VU3
 62
     7
  6
CONTINUOUS
 10
157.15264850508
 20
260.28547623865
 30
0
 40
22.579568631798
 50
112.850902
 51
126.622552
  0
LINE
  8
130_VU3
 62
     7
  6
CONTINUOUS
 10
143.68301534378
 20
278.40744917038
 30
0
 11
147.17368692399
 21
275.96325489909
 31
0
  0
LINE
  8
130_VU3
 62
     7
  6
CONTINUOUS
 10
142.49413646808
 20
277.46001974806
 30
0
 11
146.3374114193
 21
274.76892965809
 31
0
  0
ARC
  8
130_VU3
 62
     7
  6
CONTINUOUS
 10
173.77122025015
 20
239.4590567065
 30
0
 40
48.921037009653
 50
138.762063
 51
145.782038
  0
LINE
  8
130_VU3
 62
     7
  6
CONTINUOUS
 10
133.31820528021
 20
266.96944415996
 30
0
 11
136.94978130247
 21
265.92810654999
 31
0
  0
LINE
  8
130_VU3
 62
     7
  6
CONTINUOUS
 10
132.47916783433
 20
265.69327618125
 30
0
 11
136.54790160543
 21
264.52658541823
 31
0
  0
ARC
  8
130_VU3
 62
     7
  6
CONTINUOUS
 10
173.77122025015
 20
239.4590567065
 30
0
 40
48.921037009653
 50
147.570846
 51
151.923339
  0
LINE
  8
130_VU3
 62
     7
  6
CONTINUOUS
 10
141.69065044933
 20
269.5122853674
 30
0
 11
142.30682869234
 21
270.83368347444
 31
0
  0
LINE
  8
130_VU3
 62
     7
  6
CONTINUOUS
 10
136.98364922366
 20
271.70719585622
 30
0
 11
141.69065044933
 21
269.5122853674
 31
0
  0
LINE
  8
130_VU3
 62
     7
  6
CONTINUOUS
 10
136.54790160543
 20
264.52658541823
 30
0
 11
136.94978130247
 21
265.92810654999
 31
0
  0
ARC
  8
130_VU3
 62
     7
  6
CONTINUOUS
 10
157.15264850508
 20
260.28547623865
 30
0
 40
22.579568631798
 50
130.480836
 51
141.348847
  0
LINE
  8
130_VU3
 62
     7
  6
CONTINUOUS
 10
138.00713603298
 20
272.83866324249
 30
0
 11
142.30682869234
 21
270.83368347444
 31
0
  0
ARC
  8
130_VU3
 62
     7
  6
CONTINUOUS
 10
173.77122025015
 20
239.4590567065
 30
0
 40
48.921037009653
 50
134.439566
 51
136.975114
  0
LINE
  8
130_VU3
 62
     7
  6
CONTINUOUS
 10
131.61194624383
 20
295.11096895374
 30
0
 11
137.57623432636
 21
297.19531139863
 31
0
  0
LINE
  8
130_VU3
 62
     7
  6
CONTINUOUS
 10
132.09294853341
 20
293.73459470608
 30
0
 11
138.05723661595
 21
295.81893739396
 31
0
  0
LINE
  8
130_VU3
 62
     7
  6
CONTINUOUS
 10
135.30145620612
 20
286.22346379062
 30
0
 11
137.9938434316
 21
290.84199541793
 31
0
  0
ARC
  8
130_VU3
 62
     7
  6
CONTINUOUS
 10
137.55347346202
 20
289.54044290084
 30
0
 40
4.0092307782548
 50
175.620601
 51
-124.173997
  0
ARC
  8
130_VU3
 62
     7
  6
CONTINUOUS
 10
137.85788526027
 20
295.32400900126
 30
0
 40
6.2495711416498
 50
155.476539
 51
-178.046475
  0
ARC
  8
130_VU3
 62
     7
  6
CONTINUOUS
 10
128.65552220282
 20
290.22188543037
 30
0
 40
4.9147761861006
 50
-4.3794030000012
 51
45.620597
  0
LINE
  8
130_VU3
 62
     7
  6
CONTINUOUS
 10
136.646047475
 20
285.63497178465
 30
0
 11
139.25344292213
 21
290.10770786025
 31
0
  0
LINE
  8
130_VU3
 62
     7
  6
CONTINUOUS
 10
140.83246895529
 20
287.2329948508
 30
0
 11
144.37557416417
 21
292.26791936693
 31
0
  0
ARC
  8
130_VU3
 62
     7
  6
CONTINUOUS
 10
137.55347346202
 20
289.54044290084
 30
0
 40
4.0095046395717
 50
-103.080439
 51
-35.134272999999
  0
LINE
  8
130_VU3
 62
     7
  6
CONTINUOUS
 10
137.9938434316
 20
290.84199541793
 30
0
 11
139.25344292213
 21
290.10770786025
 31
0
  0
LINE
  8
130_VU3
 62
     7
  6
CONTINUOUS
 10
137.57623432636
 20
297.19531139863
 30
0
 11
138.05723661595
 21
295.81893739396
 31
0
  0
LINE
  8
130_VU3
 62
     7
  6
CONTINUOUS
 10
149.8780292773
 20
281.6610895283
 30
0
 11
153.81088822618
 21
277.72823057942
 31
0
  0
LINE
  8
130_VU3
 62
     7
  6
CONTINUOUS
 10
148.38422587276
 20
281.0929672639
 30
0
 11
152.77992551321
 21
276.69726762345
 31
0
  0
LINE
  8
130_VU3
 62
     7
  6
CONTINUOUS
 10
146.3374114193
 20
274.76892965809
 30
0
 11
147.17368692399
 21
275.96325489909
 31
0
  0
LINE
  8
130_VU3
 62
     7
  6
CONTINUOUS
 10
152.77992551321
 20
276.69726762345
 30
0
 11
153.81088822618
 21
277.72823057942
 31
0
  0
ARC
  8
130_VU3
 62
     7
  6
CONTINUOUS
 10
156.37370745873
 20
266.92000575276
 30
0
 40
4.9676588792935
 50
11.585757
 51
102.853157
  0
ARC
  8
130_VU3
 62
     7
  6
CONTINUOUS
 10
154.37730681561
 20
289.54044290084
 30
0
 40
4.0095046395716
 50
-144.865734
 51
-76.919565999999
  0
LINE
  8
130_VU3
 62
     7
  6
CONTINUOUS
 10
152.6773373555
 20
290.10770786025
 30
0
 11
155.28473280263
 21
285.63497154165
 31
0
  0
LINE
  8
130_VU3
 62
     7
  6
CONTINUOUS
 10
152.6773373555
 20
290.10770786025
 30
0
 11
153.93693684604
 21
290.84199541793
 31
0
  0
LINE
  8
130_VU3
 62
     7
  6
CONTINUOUS
 10
153.87354390469
 20
295.81893739396
 30
0
 11
159.83783198722
 21
293.73459470608
 31
0
  0
LINE
  8
130_VU3
 62
     7
  6
CONTINUOUS
 10
153.87354390469
 20
295.81893739396
 30
0
 11
154.35454595127
 21
297.19531139863
 31
0
  0
ARC
  8
130_VU3
 62
     7
  6
CONTINUOUS
 10
157.31612086924
 20
259.44785645641
 30
0
 40
23.43299120833
 50
93.908
 51
101.043206
  0
LINE
  8
130_VU3
 62
     7
  6
CONTINUOUS
 10
147.55520611346
 20
292.26791936693
 30
0
 11
151.09831132234
 21
287.2329950938
 31
0
  0
ARC
  8
130_VU3
 62
     7
  6
CONTINUOUS
 10
157.15264850508
 20
260.28547623865
 30
0
 40
22.579568631798
 50
101.043206
 51
108.794639
  0
LINE
  8
130_VU3
 62
     7
  6
CONTINUOUS
 10
153.93693684604
 20
290.84199541793
 30
0
 11
156.62932407152
 21
286.22346379062
 31
0
  0
ARC
  8
130_VU3
 62
     7
  6
CONTINUOUS
 10
154.37730681561
 20
289.54044290084
 30
0
 40
4.0092307782548
 50
-55.825998
 51
4.3794019999996
  0
ARC
  8
130_VU3
 62
     7
  6
CONTINUOUS
 10
156.18733231807
 20
275.97153853568
 30
0
 40
6.8707982014985
 50
41.840432
 51
93.908001
  0
ARC
  8
130_VU3
 62
     7
  6
CONTINUOUS
 10
163.27525807482
 20
290.22188543037
 30
0
 40
4.9147761861006
 50
134.379406
 51
-175.620591
  0
LINE
  8
130_VU3
 62
     7
  6
CONTINUOUS
 10
154.35454595127
 20
297.19531139863
 30
0
 11
160.31883403381
 21
295.11096895374
 31
0
  0
ARC
  8
130_VU3
 62
     7
  6
CONTINUOUS
 10
154.07289501736
 20
295.32400900126
 30
0
 40
6.2495711416497
 50
-1.9535199999992
 51
24.523466
  0
ARC
  8
130_VU3
 62
     7
  6
CONTINUOUS
 10
144.03557278774
 20
324.04496699353
 30
0
 40
2.4646740919812
 50
-172.623617
 51
-7.3763869999997
  0
LINE
  8
130_VU3
 62
     7
  6
CONTINUOUS
 10
142.85490051754
 20
318.45710457157
 30
0
 11
145.23638929526
 21
318.5731068308
 31
0
  0
ARC
  8
130_VU3
 62
     7
  6
CONTINUOUS
 10
144.29916539876
 20
315.44878125951
 30
0
 40
3.4132648126367
 50
121.654769
 51
173.186979
  0
ARC
  8
130_VU3
 62
     7
  6
CONTINUOUS
 10
138.51806332119
 20
307.98285884536
 30
0
 40
6.1705945922625
 50
100.816323
 51
130.816324
  0
LINE
  8
130_VU3
 62
     7
  6
CONTINUOUS
 10
134.48473930806
 20
312.65281978118
 30
0
 11
137.79477614325
 21
308.41237204837
 31
0
  0
LINE
  8
130_VU3
 62
     7
  6
CONTINUOUS
 10
133.35005581307
 20
311.73725328474
 30
0
 11
136.64567957258
 21
307.51540260645
 31
0
  0
LINE
  8
130_VU3
 62
     7
  6
CONTINUOUS
 10
131.87401402808
 20
304.46851174776
 30
0
 11
138.14228355536
 21
302.53056992528
 31
0
  0
LINE
  8
130_VU3
 62
     7
  6
CONTINUOUS
 10
131.44336042475
 20
303.07556293692
 30
0
 11
137.71162995203
 21
301.13762111444
 31
0
  0
ARC
  8
130_VU3
 62
     7
  6
CONTINUOUS
 10
127.03792983803
 20
307.29947595859
 30
0
 40
5.6037548833478
 50
-30.344006000001
 51
18.912428
  0
ARC
  8
130_VU3
 62
     7
  6
CONTINUOUS
 10
137.68929944119
 20
302.8625228894
 30
0
 40
6.2495711416497
 50
178.046485
 51
-155.449098
  0
ARC
  8
130_VU3
 62
     7
  6
CONTINUOUS
 10
133.97338531135
 20
301.16509521223
 30
0
 40
2.1643199124284
 50
-155.449108
 51
-150.841329
  0
ARC
  8
130_VU3
 62
     7
  6
CONTINUOUS
 10
134.40668640274
 20
309.824150951
 30
0
 40
2.1855041909416
 50
118.91243
 51
-161.087567
  0
LINE
  8
130_VU3
 62
     7
  6
CONTINUOUS
 10
137.71162995203
 20
301.13762111444
 30
0
 11
138.14228355536
 21
302.53056992528
 31
0
  0
LINE
  8
130_VU3
 62
     7
  6
CONTINUOUS
 10
136.64567957258
 20
307.51540260645
 30
0
 11
137.79477614325
 21
308.41237204837
 31
0
  0
ARC
  8
130_VU3
 62
     7
  6
CONTINUOUS
 10
138.97972837741
 20
316.08431228791
 30
0
 40
1.9440022494892
 50
-97.485497999999
 51
-6.813025999997
  0
ARC
  8
130_VU3
 62
     7
  6
CONTINUOUS
 10
138.5733757742
 20
307.69334952536
 30
0
 40
6.4653405683259
 50
88.643128000001
 51
100.816324
  0
ARC
  8
130_VU3
 62
     7
  6
CONTINUOUS
 10
142.87334083687
 20
317.75813224476
 30
0
 40
0.69921557009268
 50
91.511236999998
 51
121.511238
  0
ARC
  8
130_VU3
 62
     7
  6
CONTINUOUS
 10
137.68901756087
 20
324.04496699353
 30
0
 40
2.4646740919812
 50
-172.623617
 51
-7.3763869999997
  0
LINE
  8
130_VU3
 62
     7
  6
CONTINUOUS
 10
141.59129589636
 20
323.72853518637
 30
0
 11
141.59129589636
 21
336.49392048475
 31
0
  0
LINE
  8
130_VU3
 62
     7
  6
CONTINUOUS
 10
140.13329445225
 20
323.72853518637
 30
0
 11
140.13329445225
 21
336.49392048475
 31
0
  0
LINE
  8
130_VU3
 62
     7
  6
CONTINUOUS
 10
140.13329445225
 20
336.49392048475
 30
0
 11
141.59129613936
 21
336.49392048475
 31
0
  0
ARC
  8
130_VU3
 62
     7
  6
CONTINUOUS
 10
165.77749199126
 20
329.05929747882
 30
0
 40
14.207782722441
 50
-165.282048
 51
-114.998529
  0
ARC
  8
130_VU3
 62
     7
  6
CONTINUOUS
 10
147.63161512188
 20
315.44878125951
 30
0
 40
3.4132648126368
 50
6.8130260000011
 51
58.345235999999
  0
LINE
  8
130_VU3
 62
     7
  6
CONTINUOUS
 10
146.69439098238
 20
318.5731068308
 30
0
 11
149.0758800031
 21
318.45710457157
 31
0
  0
LINE
  8
130_VU3
 62
     7
  6
CONTINUOUS
 10
146.69439098238
 20
304.769460063
 30
0
 11
146.69439098238
 21
318.5731068308
 31
0
  0
LINE
  8
130_VU3
 62
     7
  6
CONTINUOUS
 10
145.23638929526
 20
304.769460063
 30
0
 11
145.23638929526
 21
318.5731068308
 31
0
  0
LINE
  8
130_VU3
 62
     7
  6
CONTINUOUS
 10
153.78849672227
 20
302.53056992528
 30
0
 11
154.2191505686
 21
301.13762111444
 31
0
  0
LINE
  8
130_VU3
 62
     7
  6
CONTINUOUS
 10
153.78849672227
 20
302.53056992528
 30
0
 11
160.05676624956
 21
304.46851150476
 31
0
  0
ARC
  8
130_VU3
 62
     7
  6
CONTINUOUS
 10
153.35740474644
 20
307.69334952536
 30
0
 40
6.465340568326
 50
79.183682
 51
91.356877
  0
LINE
  8
130_VU3
 62
     7
  6
CONTINUOUS
 10
145.23638929526
 20
304.769460063
 30
0
 11
146.69439098238
 21
304.769460063
 31
0
  0
ARC
  8
130_VU3
 62
     7
  6
CONTINUOUS
 10
149.05743968376
 20
317.75813224476
 30
0
 40
0.69921557009268
 50
58.488768000002
 51
88.488774999998
  0
ARC
  8
130_VU3
 62
     7
  6
CONTINUOUS
 10
152.95105214323
 20
316.08431228791
 30
0
 40
1.9440022494893
 50
-173.18698000001
 51
-82.514508000001
  0
ARC
  8
130_VU3
 62
     7
  6
CONTINUOUS
 10
164.8928506826
 20
307.29947595859
 30
0
 40
5.603755126348
 50
161.087579
 51
-149.655989
  0
LINE
  8
130_VU3
 62
     7
  6
CONTINUOUS
 10
155.28510094806
 20
307.51540260645
 30
0
 11
158.58072446457
 21
311.73725304174
 31
0
  0
LINE
  8
130_VU3
 62
     7
  6
CONTINUOUS
 10
154.13600437739
 20
308.41237204837
 30
0
 11
157.44604096958
 21
312.65281978118
 31
0
  0
LINE
  8
130_VU3
 62
     7
  6
CONTINUOUS
 10
154.2191505686
 20
301.13762111444
 30
0
 11
160.48742009589
 21
303.07556293692
 31
0
  0
LINE
  8
130_VU3
 62
     7
  6
CONTINUOUS
 10
154.13600437739
 20
308.41237204837
 30
0
 11
155.28510094806
 21
307.51540260645
 31
0
  0
ARC
  8
130_VU3
 62
     7
  6
CONTINUOUS
 10
154.24148107944
 20
302.8625228894
 30
0
 40
6.2495711416497
 50
-24.550897
 51
1.9535200000013
  0
ARC
  8
130_VU3
 62
     7
  6
CONTINUOUS
 10
157.95739496629
 20
301.16509521223
 30
0
 40
2.1643199124284
 50
-29.158671999999
 51
-24.550893999999
  0
ARC
  8
130_VU3
 62
     7
  6
CONTINUOUS
 10
153.41271695644
 20
307.98285884536
 30
0
 40
6.1705945922625
 50
49.183681
 51
79.183681
  0
ARC
  8
130_VU3
 62
     7
  6
CONTINUOUS
 10
157.52409387489
 20
309.824150951
 30
0
 40
2.1855041909417
 50
-18.912428000001
 51
61.087572999999
  0
LINE
  8
130_VU3
 62
     7
  6
CONTINUOUS
 10
149.10801217328
 20
371.38192064817
 30
0
 11
151.91432692159
 21
381.19695861357
 31
0
  0
LINE
  8
130_VU3
 62
     7
  6
CONTINUOUS
 10
150.5098394854
 20
370.98111015237
 30
0
 11
152.35507135459
 21
377.43477723019
 31
0
  0
ARC
  8
130_VU3
 62
     7
  6
CONTINUOUS
 10
153.88217721868
 20
375.73600333147
 30
0
 40
0.97200112474467
 50
-9.652237999998
 51
67.137386999998
  0
ARC
  8
130_VU3
 62
     7
  6
CONTINUOUS
 10
128.85584069962
 20
375.73600333147
 30
0
 40
0.97200112474458
 50
112.862612
 51
-170.347722
  0
LINE
  8
130_VU3
 62
     7
  6
CONTINUOUS
 10
130.3829465637
 20
377.43477723019
 30
0
 11
132.22817843289
 21
370.98111015237
 31
0
  0
LINE
  8
130_VU3
 62
     7
  6
CONTINUOUS
 10
130.82203251978
 20
381.20275903029
 30
0
 11
133.63000598801
 21
371.38192064817
 31
0
  0
ARC
  8
130_VU3
 62
     7
  6
CONTINUOUS
 10
140.336165181
 20
361.70130800831
 30
0
 40
6.3458840600976
 50
19.770067999999
 51
73.880849
  0
ARC
  8
130_VU3
 62
     7
  6
CONTINUOUS
 10
145.42230662339
 20
359.00440996861
 30
0
 40
0.5540406411044
 50
-163.15349800001
 51
-94.885742999998
  0
ARC
  8
130_VU3
 62
     7
  6
CONTINUOUS
 10
134.59413779165
 20
354.88792737125
 30
0
 40
3.4020039366062
 50
94.885741000001
 51
177.865383
  0
ARC
  8
130_VU3
 62
     7
  6
CONTINUOUS
 10
142.40185298029
 20
361.70130800831
 30
0
 40
6.3458840600976
 50
106.119157
 51
160.229936
  0
ARC
  8
130_VU3
 62
     7
  6
CONTINUOUS
 10
133.60315397094
 20
364.86384318682
 30
0
 40
3.0039143149596
 50
-119.584845
 51
-19.770069000001
  0
LINE
  8
130_VU3
 62
     7
  6
CONTINUOUS
 10
134.30439276137
 20
358.27757012656
 30
0
 11
136.34947073482
 21
358.45238234184
 31
0
  0
ARC
  8
130_VU3
 62
     7
  6
CONTINUOUS
 10
201.09822511141
 20
388.02269265593
 30
0
 40
74.251772204945
 50
-170.347733
 51
-160.942829
  0
ARC
  8
130_VU3
 62
     7
  6
CONTINUOUS
 10
133.39288509863
 20
364.49347479425
 30
0
 40
2.5780203581391
 50
-163.901898
 51
-119.584846
  0
LINE
  8
130_VU3
 62
     7
  6
CONTINUOUS
 10
132.22817843289
 20
370.98111015237
 30
0
 11
133.63000598801
 21
371.38192064817
 31
0
  0
ARC
  8
130_VU3
 62
     7
  6
CONTINUOUS
 10
140.86229529581
 20
361.17850699736
 30
0
 40
3.2288424222335
 50
26.804096999998
 51
153.195909
  0
LINE
  8
130_VU3
 62
     7
  6
CONTINUOUS
 10
136.83254751781
 20
358.84384413082
 30
0
 11
137.98038024402
 21
362.63452555918
 31
0
  0
ARC
  8
130_VU3
 62
     7
  6
CONTINUOUS
 10
136.30228372522
 20
359.00440996861
 30
0
 40
0.55404064110448
 50
-85.114267999999
 51
-16.846512999997
  0
LINE
  8
130_VU3
 62
     7
  6
CONTINUOUS
 10
143.74421010459
 20
362.63452555918
 30
0
 11
144.8920428308
 21
358.84384413082
 31
0
  0
LINE
  8
130_VU3
 62
     7
  6
CONTINUOUS
 10
142.0980098027
 20
367.79771242772
 30
0
 11
142.0980098027
 21
375.20473570471
 31
0
  0
LINE
  8
130_VU3
 62
     7
  6
CONTINUOUS
 10
140.64000811559
 20
367.79771242772
 30
0
 11
140.64000811559
 21
375.20473570471
 31
0
  0
LINE
  8
130_VU3
 62
     7
  6
CONTINUOUS
 10
140.64000811559
 20
375.20473570471
 30
0
 11
142.0980098027
 21
375.20473570471
 31
0
  0
ARC
  8
130_VU3
 62
     7
  6
CONTINUOUS
 10
147.13045255696
 20
354.88792737125
 30
0
 40
3.4020039366063
 50
2.1346239999995
 51
85.114262999999
  0
ARC
  8
130_VU3
 62
     7
  6
CONTINUOUS
 10
190.84734767368
 20
335.79831954384
 30
0
 40
33.379136816446
 50
154.120314
 51
176.042096
  0
ARC
  8
130_VU3
 62
     7
  6
CONTINUOUS
 10
159.65928024061
 20
350.67584044426
 30
0
 40
1.1967771138427
 50
-14.918239999995
 51
135.360801
  0
ARC
  8
130_VU3
 62
     7
  6
CONTINUOUS
 10
81.63979280688
 20
388.02269265593
 30
0
 40
74.251772447945
 50
-19.057175
 51
-9.652272
  0
ARC
  8
130_VU3
 62
     7
  6
CONTINUOUS
 10
149.13486394735
 20
364.86384318682
 30
0
 40
3.0039143149595
 50
-160.229935
 51
-60.415159000001
  0
LINE
  8
130_VU3
 62
     7
  6
CONTINUOUS
 10
145.37511961379
 20
358.45238234184
 30
0
 11
147.42019758724
 21
358.27757012656
 31
0
  0
ARC
  8
130_VU3
 62
     7
  6
CONTINUOUS
 10
149.34513306266
 20
364.49347479425
 30
0
 40
2.5780203581392
 50
-60.415162000001
 51
-16.098098
  0
LINE
  8
130_VU3
 62
     7
  6
CONTINUOUS
 10
149.10801217328
 20
371.38192064817
 30
0
 11
150.5098394854
 21
370.98111015237
 31
0
  0
ARC
  8
130_VU3
 62
     7
  6
CONTINUOUS
 10
187.0556164841
 20
366.9455038806
 30
0
 40
28.824106022623
 50
170.19726
 51
-166.266214
  0
ARC
  8
130_VU3
 62
     7
  6
CONTINUOUS
 10
164.58309190617
 20
370.77292938148
 30
0
 40
6.0282880385934
 50
157.810323
 51
169.678745
  0
LINE
  8
130_VU3
 62
     7
  6
CONTINUOUS
 10
144.72389368323
 20
377.07712722934
 30
0
 11
146.13434750533
 21
376.70781807499
 31
0
  0
ARC
  8
130_VU3
 62
     7
  6
CONTINUOUS
 10
141.36900895915
 20
347.50578367805
 30
0
 40
36.268804549206
 50
83.312062
 51
96.687943
  0
LINE
  8
130_VU3
 62
     7
  6
CONTINUOUS
 10
144.72389368323
 20
377.07712722934
 30
0
 11
145.59293534583
 21
383.52778572067
 31
0
  0
LINE
  8
130_VU3
 62
     7
  6
CONTINUOUS
 10
135.7007017801
 20
383.32891137455
 30
0
 11
136.56917652305
 21
376.88246189108
 31
0
  0
LINE
  8
130_VU3
 62
     7
  6
CONTINUOUS
 10
131.50114734962
 20
382.40780301369
 30
0
 11
131.98195159397
 21
382.53875878123
 31
0
  0
LINE
  8
130_VU3
 62
     7
  6
CONTINUOUS
 10
128.47819614963
 20
376.63164331885
 30
0
 11
130.3829465637
 21
377.43477723019
 31
0
  0
ARC
  8
130_VU3
 62
     7
  6
CONTINUOUS
 10
131.75658414219
 20
381.46996602748
 30
0
 40
0.9720011247446
 50
105.235961
 51
-164.04370699999
  0
ARC
  8
130_VU3
 62
     7
  6
CONTINUOUS
 10
141.36900895915
 20
347.50578367805
 30
0
 40
36.268804549206
 50
98.991392
 51
105
  0
LINE
  8
130_VU3
 62
     7
  6
CONTINUOUS
 10
137.14508281546
 20
383.52778572067
 30
0
 11
138.01412423506
 21
377.07712722934
 31
0
  0
LINE
  8
130_VU3
 62
     7
  6
CONTINUOUS
 10
136.56917652305
 20
376.88246189108
 30
0
 11
136.60367065597
 21
376.70781807499
 31
0
  0
LINE
  8
130_VU3
 62
     7
  6
CONTINUOUS
 10
136.60367065597
 20
376.70781807499
 30
0
 11
138.01412423506
 21
377.07712722934
 31
0
  0
LINE
  8
130_VU3
 62
     7
  6
CONTINUOUS
 10
152.35507135459
 20
377.43477723019
 30
0
 11
154.25982176866
 21
376.63164307585
 31
0
  0
ARC
  8
130_VU3
 62
     7
  6
CONTINUOUS
 10
141.36900895915
 20
347.50578367805
 30
0
 40
36.268804306206
 50
75
 51
81.008613
  0
LINE
  8
130_VU3
 62
     7
  6
CONTINUOUS
 10
146.16884163824
 20
376.88246189108
 30
0
 11
147.03731613819
 21
383.32891137455
 31
0
  0
LINE
  8
130_VU3
 62
     7
  6
CONTINUOUS
 10
146.13434750533
 20
376.70781807499
 30
0
 11
146.16884163824
 21
376.88246189108
 31
0
  0
ARC
  8
130_VU3
 62
     7
  6
CONTINUOUS
 10
150.9814337761
 20
381.46996602748
 30
0
 40
0.9720198357663
 50
-16.311903000002
 51
74.764047000001
  0
LINE
  8
130_VU3
 62
     7
  6
CONTINUOUS
 10
150.75606632432
 20
382.53875853823
 30
0
 11
151.23687056868
 21
382.40780301369
 31
0
  0
LINE
  8
130_VU3
 62
     7
  6
CONTINUOUS
 10
203.74827050989
 20
333.73198123279
 30
0
 11
203.74827050989
 21
338.59198685651
 31
0
  0
LINE
  8
130_VU3
 62
     7
  6
CONTINUOUS
 10
205.20627219701
 20
333.73198123279
 30
0
 11
205.20627219701
 21
338.59198661351
 31
0
  0
ARC
  8
130_VU3
 62
     7
  6
CONTINUOUS
 10
197.37895320368
 20
339.57000879922
 30
0
 40
21.547899274008
 50
-9.3529229999999
 51
39.458697
  0
ARC
  8
130_VU3
 62
     7
  6
CONTINUOUS
 10
211.57558974622
 20
339.57000879922
 30
0
 40
21.547899274009
 50
140.541308
 51
-170.647072
  0
ARC
  8
130_VU3
 62
     7
  6
CONTINUOUS
 10
168.16411803793
 20
337.31229537373
 30
0
 40
11.444965753466
 50
-84.335343
 51
3.9579060000004
  0
ARC
  8
130_VU3
 62
     7
  6
CONTINUOUS
 10
154.28905105749
 20
331.36023239234
 30
0
 40
31.366578355628
 50
-10.8615
 51
39.986801
  0
ARC
  8
130_VU3
 62
     7
  6
CONTINUOUS
 10
207.4243972317
 20
342.06671640327
 30
0
 40
28.872077923133
 50
-135.054647
 51
-85.054646
  0
ARC
  8
130_VU3
 62
     7
  6
CONTINUOUS
 10
203.63360232221
 20
339.80894830271
 30
0
 40
13.834792113838
 50
-164.312473
 51
-90
  0
ARC
  8
130_VU3
 62
     7
  6
CONTINUOUS
 10
182.39644062977
 20
297.37433335078
 30
0
 40
16.818196233064
 50
2.0485109999995
 51
90
  0
ARC
  8
130_VU3
 62
     7
  6
CONTINUOUS
 10
163.66405609471
 20
298.36884018957
 30
0
 40
35.5420089332
 50
-25.634084
 51
-0.63408300000012
  0
ARC
  8
130_VU3
 62
     7
  6
CONTINUOUS
 10
181.18686809312
 20
292.0846854909
 30
0
 40
11.846369412948
 50
13.233344
 51
85.130843
  0
ARC
  8
130_VU3
 62
     7
  6
CONTINUOUS
 10
181.73992020908
 20
292.0846854909
 30
0
 40
11.846369412948
 50
94.869162
 51
166.766661
  0
ARC
  8
130_VU3
 62
     7
  6
CONTINUOUS
 10
158.33695411549
 20
240.22453505127
 30
0
 40
31.113642278945
 50
41.320262
 51
71.320263
  0
ARC
  8
130_VU3
 62
     7
  6
CONTINUOUS
 10
163.0702547756
 20
235.55817586562
 30
0
 40
37.116762535415
 50
44.138445
 51
80.87954
  0
ARC
  8
130_VU3
 62
     7
  6
CONTINUOUS
 10
197.52196543017
 20
297.53353085399
 30
0
 40
33.611203542981
 50
-154.365921
 51
-137.695149
  0
ARC
  8
130_VU3
 62
     7
  6
CONTINUOUS
 10
198.10778491904
 20
291.24130125598
 30
0
 40
28.125270990971
 50
172.738003
 51
-147.261996
  0
ARC
  8
130_VU3
 62
     7
  6
CONTINUOUS
 10
168.87511790666
 20
270.88815174447
 30
0
 40
1.3198679342763
 50
86.588522999999
 51
-115.737359
  0
ARC
  8
130_VU3
 62
     7
  6
CONTINUOUS
 10
173.38579944816
 20
275.74394034131
 30
0
 40
1.1024324976725
 50
-130.900068
 51
15.103984
  0
ARC
  8
130_VU3
 62
     7
  6
CONTINUOUS
 10
199.26273220748
 20
298.36884018957
 30
0
 40
35.5420094192
 50
-179.365922
 51
-154.365921
  0
ARC
  8
130_VU3
 62
     7
  6
CONTINUOUS
 10
165.40482262903
 20
297.53353085399
 30
0
 40
33.611203785981
 50
-42.304856
 51
-25.634084
  0
ARC
  8
130_VU3
 62
     7
  6
CONTINUOUS
 10
164.81900314015
 20
291.24130125598
 30
0
 40
28.125270990971
 50
-32.737999
 51
7.2620019999999
  0
ARC
  8
130_VU3
 62
     7
  6
CONTINUOUS
 10
189.54098861103
 20
275.74394034131
 30
0
 40
1.1024327406727
 50
164.896024
 51
-49.099927999997
  0
LINE
  8
130_VU3
 62
     7
  6
CONTINUOUS
 10
180.53034742943
 20
314.19252982684
 30
0
 11
182.39644062977
 21
314.19252958384
 31
0
  0
ARC
  8
130_VU3
 62
     7
  6
CONTINUOUS
 10
171.3521152719
 20
329.05929747882
 30
0
 40
14.207782479441
 50
-65.001476
 51
-14.717956
  0
ARC
  8
130_VU3
 62
     7
  6
CONTINUOUS
 10
169.15042361723
 20
333.78115768569
 30
0
 40
19.417716284082
 50
-91.728252
 51
-65.001476
  0
LINE
  8
130_VU3
 62
     7
  6
CONTINUOUS
 10
169.29380447514
 20
322.5447855606
 30
0
 11
169.29380447514
 21
325.92321944193
 31
0
  0
LINE
  8
130_VU3
 62
     7
  6
CONTINUOUS
 10
167.83580278802
 20
322.5447855606
 30
0
 11
167.83580278802
 21
325.92321944193
 31
0
  0
LINE
  8
130_VU3
 62
     7
  6
CONTINUOUS
 10
167.83580278802
 20
322.5447855606
 30
0
 11
169.29380447514
 21
322.5447855606
 31
0
  0
LINE
  8
130_VU3
 62
     7
  6
CONTINUOUS
 10
182.19239499466
 20
303.88830289238
 30
0
 11
182.19239499466
 21
307.24170677274
 31
0
  0
LINE
  8
130_VU3
 62
     7
  6
CONTINUOUS
 10
180.73439330754
 20
303.88830289238
 30
0
 11
180.73439330754
 21
307.24170677274
 31
0
  0
LINE
  8
130_VU3
 62
     7
  6
CONTINUOUS
 10
180.73439330754
 20
307.24170677274
 30
0
 11
182.19239499466
 21
307.24170677274
 31
0
  0
ARC
  8
130_VU3
 62
     7
  6
CONTINUOUS
 10
187.57293516571
 20
322.07523660327
 30
0
 40
0.71021473482033
 50
65.992953000007
 51
-145.263494
  0
ARC
  8
130_VU3
 62
     7
  6
CONTINUOUS
 10
194.98577392543
 20
335.30024162449
 30
0
 40
41.302822431287
 50
-72.490816
 51
-37.490815
  0
ARC
  8
130_VU3
 62
     7
  6
CONTINUOUS
 10
200.08696680524
 20
321.31806643811
 30
0
 40
23.781828560985
 50
-74.354123
 51
-44.354122
  0
ARC
  8
130_VU3
 62
     7
  6
CONTINUOUS
 10
234.12516825532
 20
273.69295454503
 30
0
 40
22.807012520983
 50
113.835412
 51
143.27234
  0
ARC
  8
130_VU3
 62
     7
  6
CONTINUOUS
 10
212.76590353859
 20
281.56383449777
 30
0
 40
2.5775926776441
 50
-90
 51
-2.4266379999984
  0
ARC
  8
130_VU3
 62
     7
  6
CONTINUOUS
 10
210.03682424265
 20
275.39026169406
 30
0
 40
3.5959798830643
 50
90
 51
180
  0
LINE
  8
130_VU3
 62
     7
  6
CONTINUOUS
 10
210.03682424265
 20
278.98624157712
 30
0
 11
212.76590353859
 21
278.98624182012
 31
0
  0
ARC
  8
130_VU3
 62
     7
  6
CONTINUOUS
 10
206.95639958816
 20
297.16422971866
 30
0
 40
1.3334757070225
 50
109.982295
 51
-70.017709000001
  0
ARC
  8
130_VU3
 62
     7
  6
CONTINUOUS
 10
221.39309465049
 20
284.84587599956
 30
0
 40
6.1306827680788
 50
159.713059
 51
-172.676285
  0
ARC
  8
130_VU3
 62
     7
  6
CONTINUOUS
 10
190.902069879
 20
282.49038363492
 30
0
 40
24.461050310942
 50
-2.426638
 51
3.6893319999999
  0
ARC
  8
130_VU3
 62
     7
  6
CONTINUOUS
 10
217.14303625656
 20
286.36380520102
 30
0
 40
1.6187315501044
 50
143.272341
 51
157.94939399999
  0
LINE
  8
130_VU3
 62
     7
  6
CONTINUOUS
 10
227.76645621038
 20
275.81001041677
 30
0
 11
231.85217667314
 21
275.69992011138
 31
0
  0
ARC
  8
130_VU3
 62
     7
  6
CONTINUOUS
 10
227.73218515172
 20
274.53812896302
 30
0
 40
1.2723431542834
 50
88.456529999998
 51
-172.519371
  0
ARC
  8
130_VU3
 62
     7
  6
CONTINUOUS
 10
231.96874852503
 20
278.02355076515
 30
0
 40
2.3265529751553
 50
-92.872008
 51
-52.161037
  0
ARC
  8
130_VU3
 62
     7
  6
CONTINUOUS
 10
225.28120874259
 20
293.86922852587
 30
0
 40
0.78024449985476
 50
36.141423999997
 51
118.524825
  0
LINE
  8
130_VU3
 62
     7
  6
CONTINUOUS
 10
228.5900577924
 20
282.92614291715
 30
0
 11
229.44496194165
 21
284.10687739543
 31
0
  0
ARC
  8
130_VU3
 62
     7
  6
CONTINUOUS
 10
211.45349012394
 20
285.48871258841
 30
0
 40
16.94656939361
 50
21.445021
 51
31.445021
  0
ARC
  8
130_VU3
 62
     7
  6
CONTINUOUS
 10
206.47210270076
 20
376.47239454258
 30
0
 40
63.263937851445
 50
-86.88187
 51
-72.647164
  0
ARC
  8
130_VU3
 62
     7
  6
CONTINUOUS
 10
205.3209406277
 20
339.80894830271
 30
0
 40
13.834792113838
 50
-90
 51
-15.687531999999
  0
LINE
  8
130_VU3
 62
     7
  6
CONTINUOUS
 10
203.63360232221
 20
325.97415618887
 30
0
 11
205.3209406277
 21
325.97415618887
 31
0
  0
LINE
  8
130_VU3
 62
     7
  6
CONTINUOUS
 10
203.74827050989
 20
333.73198123279
 30
0
 11
205.20627219701
 21
333.73198123279
 31
0
  0
ARC
  8
130_VU3
 62
     7
  6
CONTINUOUS
 10
222.53672881783
 20
321.93283965349
 30
0
 40
6.6025946601486
 50
-50
 51
-20
  0
ARC
  8
130_VU3
 62
     7
  6
CONTINUOUS
 10
266.74785637445
 20
258.20027746078
 30
0
 40
68.023867454366
 50
127.187456
 51
136.884773
  0
ARC
  8
130_VU3
 62
     7
  6
CONTINUOUS
 10
227.30647636112
 20
319.65496303666
 30
0
 40
8.1030898064366
 50
-72.605051
 51
-55.323622
  0
ARC
  8
130_VU3
 62
     7
  6
CONTINUOUS
 10
225.24692990792
 20
315.98960997532
 30
0
 40
3.4470666377504
 50
-73.120172000001
 51
-13.811680000001
  0
ARC
  8
130_VU3
 62
     7
  6
CONTINUOUS
 10
226.49763048516
 20
311.39355587403
 30
0
 40
1.3213273939652
 50
100.897129
 51
130.897132
  0
ARC
  8
130_VU3
 62
     7
  6
CONTINUOUS
 10
230.68640542318
 20
308.86626474059
 30
0
 40
3.2026579269343
 50
107.394954
 51
156.136486
  0
ARC
  8
130_VU3
 62
     7
  6
CONTINUOUS
 10
224.09313759982
 20
320.08098213863
 30
0
 40
4.1835497029667
 50
-72.647164
 51
-50.026395000001
  0
ARC
  8
130_VU3
 62
     7
  6
CONTINUOUS
 10
229.70864932277
 20
315.04766020935
 30
0
 40
1.1206611637657
 50
143.903069
 51
173.903059
  0
ARC
  8
130_VU3
 62
     7
  6
CONTINUOUS
 10
193.92329699199
 20
343.34276944285
 30
0
 40
39.782258134776
 50
-30.316498
 51
-15.316497
  0
ARC
  8
130_VU3
 62
     7
  6
CONTINUOUS
 10
240.75605859721
 20
310.66420365206
 30
0
 40
15.018185501194
 50
135.833642
 51
143.13247
  0
LINE
  8
130_VU3
 62
     7
  6
CONTINUOUS
 10
228.23933208456
 20
323.21876385049
 30
0
 11
228.26534113366
 21
323.2616322591
 31
0
  0
ARC
  8
130_VU3
 62
     7
  6
CONTINUOUS
 10
206.2818461166
 20
354.15688824134
 30
0
 40
15.769754752867
 50
-123.71117
 51
-99.245235
  0
ARC
  8
130_VU3
 62
     7
  6
CONTINUOUS
 10
240.99082894487
 20
369.20713276963
 30
0
 40
43.162337371012
 50
-172.783359
 51
-150.881484
  0
ARC
  8
130_VU3
 62
     7
  6
CONTINUOUS
 10
214.05982851984
 20
366.38332831908
 30
0
 40
16.100457966538
 50
154.939202
 51
-170.712918
  0
LINE
  8
130_VU3
 62
     7
  6
CONTINUOUS
 10
176.71503306256
 20
373.52851344708
 30
0
 11
176.71503306256
 21
376.81462228758
 31
0
  0
ARC
  8
130_VU3
 62
     7
  6
CONTINUOUS
 10
177.87293766442
 20
368.41915186982
 30
0
 40
15.791990007596
 50
17.050748
 51
47.050749
  0
LINE
  8
130_VU3
 62
     7
  6
CONTINUOUS
 10
175.25703137545
 20
373.52851344708
 30
0
 11
175.25703137545
 21
376.81462228758
 31
0
  0
ARC
  8
130_VU3
 62
     7
  6
CONTINUOUS
 10
175.78286089891
 20
361.49543598309
 30
0
 40
12.069129957714
 50
41.142503
 51
85.570289
  0
ARC
  8
130_VU3
 62
     7
  6
CONTINUOUS
 10
189.9725439884
 20
362.00223591153
 30
0
 40
25.335672475005
 50
176.203851
 51
-168.131421
  0
ARC
  8
130_VU3
 62
     7
  6
CONTINUOUS
 10
166.18928731477
 20
347.20522343426
 30
0
 40
1.3467938234335
 50
-146.162421
 51
16.179691
  0
LINE
  8
130_VU3
 62
     7
  6
CONTINUOUS
 10
165.02757198249
 20
346.5196044589
 30
0
 11
165.0706141363
 21
346.45527402246
 31
0
  0
ARC
  8
130_VU3
 62
     7
  6
CONTINUOUS
 10
287.51753363994
 20
382.50231773006
 30
0
 40
125.01153863927
 50
-168.131431
 51
-163.861732
  0
LINE
  8
130_VU3
 62
     7
  6
CONTINUOUS
 10
167.43223739804
 20
347.75456274893
 30
0
 11
167.48273795947
 21
347.58050845152
 31
0
  0
ARC
  8
130_VU3
 62
     7
  6
CONTINUOUS
 10
146.28225934648
 20
335.79831954384
 30
0
 40
33.379136816446
 50
3.957908
 51
25.879691
  0
ARC
  8
130_VU3
 62
     7
  6
CONTINUOUS
 10
177.47032702255
 20
350.67584044426
 30
0
 40
1.196777356843
 50
44.639202000002
 51
-165.081765
  0
ARC
  8
130_VU3
 62
     7
  6
CONTINUOUS
 10
176.1892035391
 20
361.49543598309
 30
0
 40
12.069129957714
 50
94.429715
 51
138.857502
  0
ARC
  8
130_VU3
 62
     7
  6
CONTINUOUS
 10
174.87996589513
 20
362.80029087399
 30
0
 40
10.225385736237
 50
139.536985
 51
175.066705
  0
ARC
  8
130_VU3
 62
     7
  6
CONTINUOUS
 10
161.99952044961
 20
362.00223591153
 30
0
 40
25.335672475005
 50
-11.868574
 51
3.796154
  0
ARC
  8
130_VU3
 62
     7
  6
CONTINUOUS
 10
151.41469355744
 20
370.24531137595
 30
0
 40
42.723246311921
 50
-33.733782
 51
-13.733781
  0
ARC
  8
130_VU3
 62
     7
  6
CONTINUOUS
 10
185.78277712324
 20
347.20522343426
 30
0
 40
1.3467938234336
 50
163.820312
 51
-33.837570000002
  0
LINE
  8
130_VU3
 62
     7
  6
CONTINUOUS
 10
186.90145030171
 20
346.45527402246
 30
0
 11
186.94449221251
 21
346.5196042159
 31
0
  0
ARC
  8
130_VU3
 62
     7
  6
CONTINUOUS
 10
64.454530798068
 20
382.50231773006
 30
0
 40
125.01153888227
 50
-16.138273
 51
-11.868574
  0
LINE
  8
130_VU3
 62
     7
  6
CONTINUOUS
 10
184.48932647853
 20
347.58050845152
 30
0
 11
184.53982728297
 21
347.75456347793
 31
0
  0
ARC
  8
130_VU3
 62
     7
  6
CONTINUOUS
 10
268.0499014531
 20
336.74745312712
 30
0
 40
72.568274032896
 50
167.918899
 51
173.848554
  0
ARC
  8
130_VU3
 62
     7
  6
CONTINUOUS
 10
199.58923248829
 20
344.12597320013
 30
0
 40
3.7111338283138
 50
173.848554
 51
-123.711162
  0
ARC
  8
130_VU3
 62
     7
  6
CONTINUOUS
 10
194.54435079264
 20
352.48032626931
 30
0
 40
2.6021274440345
 50
-12.081107999999
 51
3.6070710000035
  0
ARC
  8
130_VU3
 62
     7
  6
CONTINUOUS
 10
195.83955152537
 20
352.37703729879
 30
0
 40
1.3288708516941
 50
11.590836
 51
110.649451
  0
ARC
  8
130_VU3
 62
     7
  6
CONTINUOUS
 10
196.06917755708
 20
352.3337450977
 30
0
 40
1.4640305240932
 50
118.485601
 51
140.541304
  0
ARC
  8
130_VU3
 62
     7
  6
CONTINUOUS
 10
177.09209854288
 20
362.80029087399
 30
0
 40
10.225385493237
 50
4.9332990000006
 51
40.46302
  0
ARC
  8
130_VU3
 62
     7
  6
CONTINUOUS
 10
164.91644795391
 20
366.9455038806
 30
0
 40
28.824106022623
 50
-13.733781
 51
9.802744
  0
ARC
  8
130_VU3
 62
     7
  6
CONTINUOUS
 10
187.38897253184
 20
370.77292938148
 30
0
 40
6.0282880385935
 50
10.321256999999
 51
22.189680999999
  0
ARC
  8
130_VU3
 62
     7
  6
CONTINUOUS
 10
171.62665747558
 20
372.86978852784
 30
0
 40
10.652019142913
 50
100.320724
 51
114.581944
  0
ARC
  8
130_VU3
 62
     7
  6
CONTINUOUS
 10
173.2408240224
 20
369.34120501577
 30
0
 40
14.532281409933
 50
114.581944
 51
132.949256
  0
LINE
  8
130_VU3
 62
     7
  6
CONTINUOUS
 10
175.25703137545
 20
376.81462228758
 30
0
 11
176.71503306256
 21
376.81462228758
 31
0
  0
ARC
  8
130_VU3
 62
     7
  6
CONTINUOUS
 10
178.7312404156
 20
369.34120501577
 30
0
 40
14.532281409933
 50
47.050749
 51
65.418061
  0
ARC
  8
130_VU3
 62
     7
  6
CONTINUOUS
 10
180.34540696243
 20
372.86978852784
 30
0
 40
10.652019142913
 50
65.418061
 51
79.67928
  0
ARC
  8
130_VU3
 62
     7
  6
CONTINUOUS
 10
214.81359279306
 20
366.55368682521
 30
0
 40
16.717811115904
 50
23.43745
 51
156.562555
  0
ARC
  8
130_VU3
 62
     7
  6
CONTINUOUS
 10
215.62287704152
 20
360.04085403893
 30
0
 40
10.082678475104
 50
10.456222
 51
90.456226
  0
ARC
  8
130_VU3
 62
     7
  6
CONTINUOUS
 10
259.33149216665
 20
362.87766386452
 30
0
 40
55.251604276027
 50
-178.955729
 51
-165.849629
  0
ARC
  8
130_VU3
 62
     7
  6
CONTINUOUS
 10
202.6726968333
 20
354.15688824134
 30
0
 40
15.769754752867
 50
-80.75477
 51
-56.288835
  0
ARC
  8
130_VU3
 62
     7
  6
CONTINUOUS
 10
204.50435567879
 20
348.82007864388
 30
0
 40
1.3676298825438
 50
-153.205947
 51
23.729259000002
  0
ARC
  8
130_VU3
 62
     7
  6
CONTINUOUS
 10
140.90464149681
 20
336.74745312712
 30
0
 40
72.568274032896
 50
6.1514510000001
 51
12.081106
  0
ARC
  8
130_VU3
 62
     7
  6
CONTINUOUS
 10
209.36531046161
 20
344.12597320013
 30
0
 40
3.7111338283139
 50
-56.288835000001
 51
6.1514489999973
  0
ARC
  8
130_VU3
 62
     7
  6
CONTINUOUS
 10
213.11499142453
 20
352.37703729879
 30
0
 40
1.3288708516941
 50
69.350550000001
 51
168.409165
  0
ARC
  8
130_VU3
 62
     7
  6
CONTINUOUS
 10
214.41019215727
 20
352.48032626931
 30
0
 40
2.6021274440346
 50
176.392932
 51
-167.918888
  0
ARC
  8
130_VU3
 62
     7
  6
CONTINUOUS
 10
212.88536539282
 20
352.3337450977
 30
0
 40
1.4640305240932
 50
39.458701000002
 51
61.514399
  0
ARC
  8
130_VU3
 62
     7
  6
CONTINUOUS
 10
214.0043085446
 20
360.04085403893
 30
0
 40
10.082678475104
 50
89.543781
 51
169.543783
  0
LINE
  8
130_VU3
 62
     7
  6
CONTINUOUS
 10
215.54259363662
 20
370.12321296866
 30
0
 11
215.54259363662
 21
374.98321859239
 31
0
  0
LINE
  8
130_VU3
 62
     7
  6
CONTINUOUS
 10
214.0845917065
 20
370.12321296866
 30
0
 11
214.0845917065
 21
374.98321859239
 31
0
  0
LINE
  8
130_VU3
 62
     7
  6
CONTINUOUS
 10
214.0845919495
 20
374.98321859239
 30
0
 11
215.54259363662
 21
374.98321859239
 31
0
  0
ARC
  8
130_VU3
 62
     7
  6
CONTINUOUS
 10
188.63635664124
 20
369.20713276963
 30
0
 40
43.162337128012
 50
-29.118521
 51
-7.2166460000001
  0
ARC
  8
130_VU3
 62
     7
  6
CONTINUOUS
 10
170.29569341947
 20
362.87766386452
 30
0
 40
55.251604276027
 50
-14.150376
 51
-1.0442760000001
  0
ARC
  8
130_VU3
 62
     7
  6
CONTINUOUS
 10
225.12282966432
 20
348.82007864388
 30
0
 40
1.3676298825439
 50
156.270752
 51
-26.794039000003
  0
ARC
  8
130_VU3
 62
     7
  6
CONTINUOUS
 10
215.56735706627
 20
366.38332831908
 30
0
 40
16.100457723538
 50
-9.2870760000001
 51
25.060803
  0
ARC
  8
130_VU3
 62
     7
  6
CONTINUOUS
 10
309.2185296521
 20
259.98553467358
 30
0
 40
1.1171019386471
 50
-90
 51
85.270863000004
  0
ARC
  8
130_VU3
 62
     7
  6
CONTINUOUS
 10
298.87501491817
 20
212.66227311278
 30
0
 40
49.547981137117
 50
77.841528
 51
107.841529
  0
ARC
  8
130_VU3
 62
     7
  6
CONTINUOUS
 10
256.63693956567
 20
267.69309049233
 30
0
 40
16.706604914937
 50
-165.655988
 51
-136.899961
  0
ARC
  8
130_VU3
 62
     7
  6
CONTINUOUS
 10
239.75762608888
 20
261.13631256319
 30
0
 40
3.7870313211381
 50
136.503273
 51
-153.49673
  0
ARC
  8
130_VU3
 62
     7
  6
CONTINUOUS
 10
275.91734781186
 20
309.89450536441
 30
0
 40
72.828937032521
 50
-70.23191
 51
-40.231909
  0
ARC
  8
130_VU3
 62
     7
  6
CONTINUOUS
 10
321.51004083114
 20
266.00187633235
 30
0
 40
15.484482871767
 50
-45.351183
 51
-13.984003
  0
ARC
  8
130_VU3
 62
     7
  6
CONTINUOUS
 10
303.58280176376
 20
200.72385033331
 30
0
 40
58.417068579923
 50
84.463839
 51
104.685249
  0
LINE
  8
130_VU3
 62
     7
  6
CONTINUOUS
 10
304.53476289831
 20
226.42268721455
 30
0
 11
305.97322711982
 21
226.65453256783
 31
0
  0
ARC
  8
130_VU3
 62
     7
  6
CONTINUOUS
 10
369.30067989876
 20
135.43069975378
 30
0
 40
99.66898998531
 50
127.280922
 51
137.05617
  0
ARC
  8
130_VU3
 62
     7
  6
CONTINUOUS
 10
236.07207508717
 20
280.52599268983
 30
0
 40
102.88006495598
 50
-51.744974
 51
-42.859669
  0
ARC
  8
130_VU3
 62
     7
  6
CONTINUOUS
 10
366.17395008269
 20
117.40602243364
 30
0
 40
99.66899022831
 50
127.280922
 51
137.05617
  0
ARC
  8
130_VU3
 62
     7
  6
CONTINUOUS
 10
232.9453455141
 20
262.5013153697
 30
0
 40
102.88006471298
 50
-51.744974
 51
-42.859669
  0
ARC
  8
130_VU3
 62
     7
  6
CONTINUOUS
 10
351.19677282295
 20
156.39191591591
 30
0
 40
52.645137332971
 50
133.246809
 51
151.476903
  0
ARC
  8
130_VU3
 62
     7
  6
CONTINUOUS
 10
309.12539493433
 20
174.52590812754
 30
0
 40
3.8683190461997
 50
111.797149
 51
163.467163
  0
ARC
  8
130_VU3
 62
     7
  6
CONTINUOUS
 10
236.66288215682
 20
177.00064656217
 30
0
 40
6.014393039515
 50
6.0252240000001
 51
99.293796
  0
ARC
  8
130_VU3
 62
     7
  6
CONTINUOUS
 10
244.54180250286
 20
175.80666152156
 30
0
 40
10.373095887159
 50
-10.585558
 51
45.875657
  0
LINE
  8
130_VU3
 62
     7
  6
CONTINUOUS
 10
250.63930698455
 20
184.34336200174
 30
0
 11
251.76373708267
 21
183.25278670279
 31
0
  0
ARC
  8
130_VU3
 62
     7
  6
CONTINUOUS
 10
283.99706536525
 20
189.76237179031
 30
0
 40
6.1647278364739
 50
-160.781815
 51
-102.173904
  0
ARC
  8
130_VU3
 62
     7
  6
CONTINUOUS
 10
285.27450059043
 20
165.83175877416
 30
0
 40
18.040281340192
 50
78.123881
 51
97.348967
  0
ARC
  8
130_VU3
 62
     7
  6
CONTINUOUS
 10
290.23884494589
 20
186.31075181329
 30
0
 40
3.067988143102
 50
-109.54017
 51
-25.209996999998
  0
ARC
  8
130_VU3
 62
     7
  6
CONTINUOUS
 10
278.37015814412
 20
190.93233868313
 30
0
 40
8.3007024951028
 50
-129.476907
 51
-110.406175
  0
ARC
  8
130_VU3
 62
     7
  6
CONTINUOUS
 10
331.42596643829
 20
238.29364558295
 30
0
 40
79.333476462205
 50
-165.522879
 51
-137.331741
  0
ARC
  8
130_VU3
 62
     7
  6
CONTINUOUS
 10
372.61022830339
 20
243.94244105442
 30
0
 40
123.72076439966
 50
-162.232782
 51
-142.702146
  0
ARC
  8
130_VU3
 62
     7
  6
CONTINUOUS
 10
327.44091856202
 20
219.53326717251
 30
0
 40
79.333476219205
 50
-165.522879
 51
-137.331741
  0
ARC
  8
130_VU3
 62
     7
  6
CONTINUOUS
 10
274.38511026784
 20
172.17196027268
 30
0
 40
8.3007024951027
 50
-129.476907
 51
-110.406175
  0
ARC
  8
130_VU3
 62
     7
  6
CONTINUOUS
 10
242.81388315041
 20
169.16723530879
 30
0
 40
16.95971400782
 50
-58.871409
 51
-52.40801
  0
ARC
  8
130_VU3
 62
     7
  6
CONTINUOUS
 10
227.01528207716
 20
191.1096440813
 30
0
 40
41.467624006986
 50
-57.7101
 51
-37.068062
  0
ARC
  8
130_VU3
 62
     7
  6
CONTINUOUS
 10
250.00575543644
 20
174.33235038457
 30
0
 40
4.7522192039989
 50
-81.784341
 51
-5.2067540000005
  0
ARC
  8
130_VU3
 62
     7
  6
CONTINUOUS
 10
237.99887413175
 20
163.80741990271
 30
0
 40
1.3548373757411
 50
148.361411
 51
-129.384482
  0
LINE
  8
130_VU3
 62
     7
  6
CONTINUOUS
 10
238.63936017889
 20
161.77426789706
 30
0
 11
244.35416205973
 21
167.78455836283
 31
0
  0
LINE
  8
130_VU3
 62
     7
  6
CONTINUOUS
 10
239.07719128152
 20
160.11885253851
 30
0
 11
245.41076154537
 21
166.7799052903
 31
0
  0
ARC
  8
130_VU3
 62
     7
  6
CONTINUOUS
 10
234.00823992202
 20
173.09485735861
 30
0
 40
16.323088263153
 50
-57.790187
 51
-31.505953
  0
LINE
  8
130_VU3
 62
     7
  6
CONTINUOUS
 10
239.92811873116
 20
155.46030969991
 30
0
 11
246.30241924414
 21
156.50343238995
 31
0
  0
ARC
  8
130_VU3
 62
     7
  6
CONTINUOUS
 10
242.52588747916
 20
169.32174023357
 30
0
 40
8.4893718014202
 50
-129.384488
 51
-117.245945
  0
ARC
  8
130_VU3
 62
     7
  6
CONTINUOUS
 10
242.44315050042
 20
162.93028341474
 30
0
 40
4.3856384568125
 50
-140.129548
 51
-125.763413
  0
ARC
  8
130_VU3
 62
     7
  6
CONTINUOUS
 10
241.35948224146
 20
161.42571606974
 30
0
 40
2.5314379332366
 50
-125.763413
 51
-57.790185000001
  0
ARC
  8
130_VU3
 62
     7
  6
CONTINUOUS
 10
254.54066702198
 20
149.74943907761
 30
0
 40
5.7243833819322
 50
121.128594
 51
142.197046
  0
ARC
  8
130_VU3
 62
     7
  6
CONTINUOUS
 10
242.12507674036
 20
158.64568860585
 30
0
 40
9.5560786407529
 50
-64.317435
 51
-34.317435
  0
LINE
  8
130_VU3
 62
     7
  6
CONTINUOUS
 10
246.80278938514
 20
156.45513535507
 30
0
 11
248.16718784995
 21
155.94987872141
 31
0
  0
ARC
  8
130_VU3
 62
     7
  6
CONTINUOUS
 10
246.46125127494
 20
155.53284382584
 30
0
 40
0.98349892604924
 50
69.679669999998
 51
99.293796999999
  0
ARC
  8
130_VU3
 62
     7
  6
CONTINUOUS
 10
248.56124609693
 20
157.01399614975
 30
0
 40
1.1347369550533
 50
-110.320331
 51
-57.710100000003
  0
ARC
  8
130_VU3
 62
     7
  6
CONTINUOUS
 10
249.58879344095
 20
178.36496823888
 30
0
 40
6.9833204537029
 50
-173.974781
 51
-122.071577
  0
ARC
  8
130_VU3
 62
     7
  6
CONTINUOUS
 10
243.9152933459
 20
163.49582064215
 30
0
 40
6.3679317186099
 50
82.581771
 51
107.320924
  0
ARC
  8
130_VU3
 62
     7
  6
CONTINUOUS
 10
237.62082085529
 20
174.58897957952
 30
0
 40
1.3548373757412
 50
-31.638594000003
 51
50.615512999998
  0
ARC
  8
130_VU3
 62
     7
  6
CONTINUOUS
 10
224.99131329514
 20
182.37043615778
 30
0
 40
16.189106170117
 50
-52.989029
 51
-31.638595
  0
ARC
  8
130_VU3
 62
     7
  6
CONTINUOUS
 10
250.6283816919
 20
156.02596332445
 30
0
 40
16.189106170117
 50
127.010976
 51
148.36141
  0
ARC
  8
130_VU3
 62
     7
  6
CONTINUOUS
 10
242.99817772266
 20
166.436557557
 30
0
 40
3.2875039051133
 50
107.320925
 51
130.044433
  0
ARC
  8
130_VU3
 62
     7
  6
CONTINUOUS
 10
233.17654448663
 20
175.4661160675
 30
0
 40
4.3856384568124
 50
39.870457000001
 51
54.236595000001
  0
ARC
  8
130_VU3
 62
     7
  6
CONTINUOUS
 10
233.09380750789
 20
169.07465924866
 30
0
 40
8.4893718014202
 50
50.615517
 51
62.75406
  0
LINE
  8
130_VU3
 62
     7
  6
CONTINUOUS
 10
244.35416205973
 20
167.78455836283
 30
0
 11
245.41076154537
 21
166.7799052903
 31
0
  0
ARC
  8
130_VU3
 62
     7
  6
CONTINUOUS
 10
244.57695395153
 20
171.4463896211
 30
0
 40
1.6437914401023
 50
-84.396348999998
 51
37.514833
  0
ARC
  8
130_VU3
 62
     7
  6
CONTINUOUS
 10
249.59319223204
 20
168.03196423912
 30
0
 40
1.4245522124111
 50
98.215669999999
 51
-176.093501
  0
ARC
  8
130_VU3
 62
     7
  6
CONTINUOUS
 10
246.13459134294
 20
165.6382967733
 30
0
 40
2.0877281678008
 50
-30.949298000001
 51
-7.8277410000016
  0
ARC
  8
130_VU3
 62
     7
  6
CONTINUOUS
 10
239.56706964238
 20
166.54117549606
 30
0
 40
8.7170215118435
 50
-7.8277440000003
 51
9.2003229999998
  0
LINE
  8
130_VU3
 62
     7
  6
CONTINUOUS
 10
249.38962433548
 20
169.44189658261
 30
0
 11
250.68484499424
 21
169.628902309
 31
0
  0
ARC
  8
130_VU3
 62
     7
  6
CONTINUOUS
 10
230.68007915386
 20
189.68316779266
 30
0
 40
39.908350251682
 50
-39.796689
 51
-38.348543
  0
ARC
  8
130_VU3
 62
     7
  6
CONTINUOUS
 10
202.80594749549
 20
212.90428948583
 30
0
 40
76.187651684035
 50
-48.629924
 51
-39.796689
  0
ARC
  8
130_VU3
 62
     7
  6
CONTINUOUS
 10
260.9996084209
 20
165.43726750068
 30
0
 40
1.1235178750712
 50
-19.787966000003
 51
142.931949
  0
ARC
  8
130_VU3
 62
     7
  6
CONTINUOUS
 10
261.54390547973
 20
165.26590078638
 30
0
 40
0.55382437085411
 50
-38.348545000005
 51
-22.17004
  0
ARC
  8
130_VU3
 62
     7
  6
CONTINUOUS
 10
286.36306384705
 20
193.54427094551
 30
0
 40
15.96732102848
 50
-109.851424
 51
-79.851423
  0
ARC
  8
130_VU3
 62
     7
  6
CONTINUOUS
 10
286.25379731262
 20
167.55037340285
 30
0
 40
3.0679881431021
 50
-109.54017
 51
-25.209996999999
  0
LINE
  8
130_VU3
 62
     7
  6
CONTINUOUS
 10
287.54624072116
 20
160.1451111489
 30
0
 11
289.10270612221
 21
161.53688408138
 31
0
  0
ARC
  8
130_VU3
 62
     7
  6
CONTINUOUS
 10
269.65016668284
 20
159.44427695393
 30
0
 40
5.2791952027856
 50
24.762915
 51
69.593832
  0
ARC
  8
130_VU3
 62
     7
  6
CONTINUOUS
 10
282.37801597078
 20
174.78389277807
 30
0
 40
15.967321028479
 50
-109.851424
 51
-79.851423
  0
ARC
  8
130_VU3
 62
     7
  6
CONTINUOUS
 10
278.29641922279
 20
164.161121635
 30
0
 40
4.5956028497712
 50
-146.960854
 51
-106.960853
  0
ARC
  8
130_VU3
 62
     7
  6
CONTINUOUS
 10
284.35594689153
 20
163.99979544932
 30
0
 40
5.0036549969462
 50
-80.38746
 51
-50.387460000001
  0
ARC
  8
130_VU3
 62
     7
  6
CONTINUOUS
 10
282.28146685606
 20
182.92149980244
 30
0
 40
4.5956028497713
 50
-146.960854
 51
-106.960853
  0
ARC
  8
130_VU3
 62
     7
  6
CONTINUOUS
 10
278.88392707762
 20
165.77283800998
 30
0
 40
0.81527396238887
 50
-102.173905
 51
-83.099381999997
  0
ARC
  8
130_VU3
 62
     7
  6
CONTINUOUS
 10
280.01201773198
 20
171.00199362287
 30
0
 40
6.1647278364738
 50
-160.781815
 51
-102.173906
  0
ARC
  8
130_VU3
 62
     7
  6
CONTINUOUS
 10
273.63521431611
 20
178.20465512138
 30
0
 40
5.2791952027857
 50
24.762915000001
 51
69.59383
  0
ARC
  8
130_VU3
 62
     7
  6
CONTINUOUS
 10
281.28945271416
 20
147.07138036372
 30
0
 40
18.040281340192
 50
78.123881
 51
97.348967
  0
ARC
  8
130_VU3
 62
     7
  6
CONTINUOUS
 10
284.69587172287
 20
163.26945130021
 30
0
 40
1.4879040867184
 50
69.059147999998
 51
78.123880999998
  0
ARC
  8
130_VU3
 62
     7
  6
CONTINUOUS
 10
228.96029763782
 20
243.74093695925
 30
0
 40
102.88006495598
 50
-51.744974
 51
-42.859669
  0
ARC
  8
130_VU3
 62
     7
  6
CONTINUOUS
 10
291.17016077655
 20
164.74837798454
 30
0
 40
2.3328512994434
 50
-80.315931
 51
-50.315928999999
  0
ARC
  8
130_VU3
 62
     7
  6
CONTINUOUS
 10
291.04396173952
 20
159.61787246681
 30
0
 40
2.7296666276156
 50
95.330156
 51
135.330156
  0
LINE
  8
130_VU3
 62
     7
  6
CONTINUOUS
 10
290.7903904601
 20
162.33573584176
 30
0
 11
291.56258217364
 21
162.44876912356
 31
0
  0
ARC
  8
130_VU3
 62
     7
  6
CONTINUOUS
 10
362.18890244942
 20
98.645644023196
 30
0
 40
99.66899022831
 50
127.280922
 51
137.05617
  0
ARC
  8
130_VU3
 62
     7
  6
CONTINUOUS
 10
289.69775962177
 20
166.02374309032
 30
0
 40
0.70343332597318
 50
131.786858
 51
161.786849
  0
LINE
  8
130_VU3
 62
     7
  6
CONTINUOUS
 10
291.53128859743
 20
178.90548955934
 30
0
 11
293.08775375548
 21
180.29726249182
 31
0
  0
ARC
  8
130_VU3
 62
     7
  6
CONTINUOUS
 10
288.3409947678
 20
182.76017385977
 30
0
 40
5.0036552399464
 50
-80.387461000001
 51
-50.387459000001
  0
ARC
  8
130_VU3
 62
     7
  6
CONTINUOUS
 10
288.68091959914
 20
182.02982971065
 30
0
 40
1.4879040867183
 50
69.059156999999
 51
78.123881000002
  0
ARC
  8
130_VU3
 62
     7
  6
CONTINUOUS
 10
295.0290096158
 20
178.37825063425
 30
0
 40
2.7296666276156
 50
95.330156000002
 51
135.330156
  0
ARC
  8
130_VU3
 62
     7
  6
CONTINUOUS
 10
295.15520840983
 20
183.50875639498
 30
0
 40
2.3328512994434
 50
-80.315930999999
 51
-50.315929000002
  0
LINE
  8
130_VU3
 62
     7
  6
CONTINUOUS
 10
294.77543833638
 20
181.09611400921
 30
0
 11
295.54762980691
 21
181.20914753401
 31
0
  0
ARC
  8
130_VU3
 62
     7
  6
CONTINUOUS
 10
301.41462859587
 20
176.640995697
 30
0
 40
4.1289003977296
 50
-44.220764999999
 51
-14.220758
  0
ARC
  8
130_VU3
 62
     7
  6
CONTINUOUS
 10
301.09085599322
 20
181.72141399677
 30
0
 40
3.7541626171043
 50
-74.033163999999
 51
-9.3892239999997
  0
ARC
  8
130_VU3
 62
     7
  6
CONTINUOUS
 10
302.2731427573
 20
177.45900997356
 30
0
 40
0.66998579526966
 50
102.90121000001
 51
132.901204
  0
ARC
  8
130_VU3
 62
     7
  6
CONTINUOUS
 10
307.27810290875
 20
180.48122148069
 30
0
 40
2.5614892920103
 50
155.814198
 51
165.814202
  0
ARC
  8
130_VU3
 62
     7
  6
CONTINUOUS
 10
292.14408840753
 20
183.39760636537
 30
0
 40
77.026643931869
 50
99.184132
 51
108.624078
  0
ARC
  8
130_VU3
 62
     7
  6
CONTINUOUS
 10
266.74925970107
 20
291.3375925474
 30
0
 40
38.711825372132
 50
-90.465091
 51
-70.310775
  0
ARC
  8
130_VU3
 62
     7
  6
CONTINUOUS
 10
379.72200575273
 20
280.727496542
 30
0
 40
123.72076439966
 50
-162.232782
 51
-142.702146
  0
ARC
  8
130_VU3
 62
     7
  6
CONTINUOUS
 10
334.55269601137
 20
256.31832266009
 30
0
 40
79.333476219205
 50
-165.522879
 51
-137.331741
  0
ARC
  8
130_VU3
 62
     7
  6
CONTINUOUS
 10
376.59527593666
 20
262.70281922187
 30
0
 40
123.72076439966
 50
-162.232782
 51
-142.702146
  0
LINE
  8
130_VU3
 62
     7
  6
CONTINUOUS
 10
238.52290836914
 20
221.96644405404
 30
0
 11
238.58353791129
 21
222.53182333127
 31
0
  0
LINE
  8
130_VU3
 62
     7
  6
CONTINUOUS
 10
238.58353791129
 20
222.53182333127
 30
0
 11
242.70649719515
 21
222.08968869365
 31
0
  0
LINE
  8
130_VU3
 62
     7
  6
CONTINUOUS
 10
242.70649719515
 20
222.08968869365
 30
0
 11
242.86195808304
 21
223.53937855615
 31
0
  0
ARC
  8
130_VU3
 62
     7
  6
CONTINUOUS
 10
249.35637995301
 20
223.83081219538
 30
0
 40
5.5342883929651
 50
-84.410301
 51
-59.52786
  0
ARC
  8
130_VU3
 62
     7
  6
CONTINUOUS
 10
252.92874385375
 20
205.59243289496
 30
0
 40
1.9549326451374
 50
17.767196999999
 51
140.250166
  0
ARC
  8
130_VU3
 62
     7
  6
CONTINUOUS
 10
235.53577006459
 20
168.77096648825
 30
0
 40
21.693693367713
 50
45.875656
 51
73.428816
  0
ARC
  8
130_VU3
 62
     7
  6
CONTINUOUS
 10
242.84889074292
 20
230.84399446764
 30
0
 40
31.430989468161
 50
-100.750898
 51
-84.410303
  0
ARC
  8
130_VU3
 62
     7
  6
CONTINUOUS
 10
245.37133231974
 20
205.07043378493
 30
0
 40
5.534288392965
 50
-84.410304
 51
-59.52786
  0
ARC
  8
130_VU3
 62
     7
  6
CONTINUOUS
 10
249.5599704486
 20
200.19388202907
 30
0
 40
0.8287281589573
 50
26.828596999999
 51
122.301483
  0
LINE
  8
130_VU3
 62
     7
  6
CONTINUOUS
 10
248.17787718932
 20
200.30056449851
 30
0
 11
249.11711944616
 21
200.89436290162
 31
0
  0
ARC
  8
130_VU3
 62
     7
  6
CONTINUOUS
 10
246.45448566111
 20
198.62324290761
 30
0
 40
4.3088063849067
 50
14.477126
 51
26.828597
  0
ARC
  8
130_VU3
 62
     7
  6
CONTINUOUS
 10
246.83393861919
 20
249.60437287809
 30
0
 40
31.430989711161
 50
-100.750899
 51
-84.410303
  0
ARC
  8
130_VU3
 62
     7
  6
CONTINUOUS
 10
235.19945257242
 20
141.23945186134
 30
0
 40
67.07108497886
 50
81.467412
 51
83.709726
  0
LINE
  8
130_VU3
 62
     7
  6
CONTINUOUS
 10
234.59849027802
 20
203.77144492082
 30
0
 11
238.72144956188
 21
203.32931028321
 31
0
  0
LINE
  8
130_VU3
 62
     7
  6
CONTINUOUS
 10
234.75395092291
 20
205.22113478332
 30
0
 11
238.87691020677
 21
204.7790001457
 31
0
  0
ARC
  8
130_VU3
 62
     7
  6
CONTINUOUS
 10
237.07017905912
 20
176.95679521742
 30
0
 40
31.430989711161
 50
79.962934
 51
88.509203
  0
ARC
  8
130_VU3
 62
     7
  6
CONTINUOUS
 10
237.8092231043
 20
205.3540309081
 30
0
 40
3.024138742362
 50
88.509196000001
 51
172.8865
  0
LINE
  8
130_VU3
 62
     7
  6
CONTINUOUS
 10
234.53786049286
 20
203.20606588659
 30
0
 11
234.59849027802
 21
203.77144492082
 31
0
  0
LINE
  8
130_VU3
 62
     7
  6
CONTINUOUS
 10
234.75395092291
 20
205.22113478332
 30
0
 11
234.80836208787
 21
205.72852617444
 31
0
  0
LINE
  8
130_VU3
 62
     7
  6
CONTINUOUS
 10
238.72144956188
 20
203.32931028321
 30
0
 11
238.87691020677
 21
204.7790001457
 31
0
  0
ARC
  8
130_VU3
 62
     7
  6
CONTINUOUS
 10
241.53494180949
 20
221.69613345725
 30
0
 40
3.0241384993617
 50
174.871816
 51
-100.750889
  0
ARC
  8
130_VU3
 62
     7
  6
CONTINUOUS
 10
249.3448765627
 20
208.57308673701
 30
0
 40
2.7064409037402
 50
-133.661292
 51
-39.74984
  0
ARC
  8
130_VU3
 62
     7
  6
CONTINUOUS
 10
244.36664206817
 20
202.34078684034
 30
0
 40
5.2858886455309
 50
53.963052000001
 51
81.467412
  0
ARC
  8
130_VU3
 62
     7
  6
CONTINUOUS
 10
250.43953329438
 20
217.38362131806
 30
0
 40
4.3088063849066
 50
14.477126
 51
26.828595
  0
ARC
  8
130_VU3
 62
     7
  6
CONTINUOUS
 10
253.54501832487
 20
218.95426043951
 30
0
 40
0.82872815895733
 50
26.828597000002
 51
122.301483
  0
LINE
  8
130_VU3
 62
     7
  6
CONTINUOUS
 10
252.16292482259
 20
219.06094290896
 30
0
 11
253.10216732243
 21
219.65474131207
 31
0
  0
LINE
  8
130_VU3
 62
     7
  6
CONTINUOUS
 10
248.08632318838
 20
256.18473325551
 30
0
 11
262.93442525976
 21
255.50705358533
 31
0
  0
ARC
  8
130_VU3
 62
     7
  6
CONTINUOUS
 10
256.86070443059
 20
401.38766535312
 30
0
 40
150.86383846009
 50
-93.17962
 51
-89.140397
  0
ARC
  8
130_VU3
 62
     7
  6
CONTINUOUS
 10
249.96066819226
 20
267.62905019822
 30
0
 40
31.430989711161
 50
-100.750898
 51
-84.410303
  0
ARC
  8
130_VU3
 62
     7
  6
CONTINUOUS
 10
242.31123002177
 20
178.02450734892
 30
0
 40
67.071085221861
 50
81.467412
 51
83.709726
  0
ARC
  8
130_VU3
 62
     7
  6
CONTINUOUS
 10
253.32992443898
 20
227.33346514745
 30
0
 40
2.7064409037401
 50
-133.661292
 51
-39.74984
  0
LINE
  8
130_VU3
 62
     7
  6
CONTINUOUS
 10
245.83322701122
 20
240.11436601379
 30
0
 11
245.98868765611
 21
241.56405587629
 31
0
  0
ARC
  8
130_VU3
 62
     7
  6
CONTINUOUS
 10
244.66167162556
 20
239.72081077739
 30
0
 40
3.0241387423621
 50
174.871816
 51
-100.750889
  0
LINE
  8
130_VU3
 62
     7
  6
CONTINUOUS
 10
241.71026772737
 20
240.5565004084
 30
0
 11
245.83322701122
 21
240.11436601379
 31
0
  0
ARC
  8
130_VU3
 62
     7
  6
CONTINUOUS
 10
241.05522669239
 20
195.71717338487
 30
0
 40
31.430989954161
 50
79.962934
 51
88.509203
  0
ARC
  8
130_VU3
 62
     7
  6
CONTINUOUS
 10
241.79427098057
 20
224.11440931854
 30
0
 40
3.0241384993618
 50
88.5092
 51
172.8865
  0
LINE
  8
130_VU3
 62
     7
  6
CONTINUOUS
 10
238.73899855618
 20
223.98151319376
 30
0
 11
242.86195808304
 21
223.53937855615
 31
0
  0
LINE
  8
130_VU3
 62
     7
  6
CONTINUOUS
 10
238.73899855618
 20
223.98151319376
 30
0
 11
238.79340996414
 21
224.48890458489
 31
0
  0
LINE
  8
130_VU3
 62
     7
  6
CONTINUOUS
 10
241.64963794221
 20
239.99112137418
 30
0
 11
241.71026772737
 21
240.5565004084
 31
0
  0
ARC
  8
130_VU3
 62
     7
  6
CONTINUOUS
 10
239.18450044869
 20
159.99983027179
 30
0
 40
67.07108497886
 50
81.467412
 51
83.709726
  0
ARC
  8
130_VU3
 62
     7
  6
CONTINUOUS
 10
248.35168970144
 20
221.10116525079
 30
0
 40
5.2858886455309
 50
53.963049
 51
81.467412
  0
ARC
  8
130_VU3
 62
     7
  6
CONTINUOUS
 10
244.10703368977
 20
246.55646433422
 30
0
 40
5.6928847134837
 50
52.246851
 51
102.54655
  0
LINE
  8
130_VU3
 62
     7
  6
CONTINUOUS
 10
241.86572837226
 20
242.0061905139
 30
0
 11
245.98868765611
 21
241.56405587629
 31
0
  0
ARC
  8
130_VU3
 62
     7
  6
CONTINUOUS
 10
244.92100055365
 20
242.13908663868
 30
0
 40
3.0241384993618
 50
88.509196999999
 51
172.8865
  0
LINE
  8
130_VU3
 62
     7
  6
CONTINUOUS
 10
241.86572837226
 20
242.0061905139
 30
0
 11
241.92013953722
 21
242.51358190503
 31
0
  0
ARC
  8
130_VU3
 62
     7
  6
CONTINUOUS
 10
249.62859956001
 20
263.94516933744
 30
0
 40
14.002410791797
 50
-161.259132
 51
-124.073597
  0
ARC
  8
130_VU3
 62
     7
  6
CONTINUOUS
 10
242.61636353085
 20
253.57785102497
 30
0
 40
1.4863114628755
 50
-124.073596
 51
-80.160674999999
  0
ARC
  8
130_VU3
 62
     7
  6
CONTINUOUS
 10
248.47469595778
 20
252.19673754282
 30
0
 40
1.4407787991876
 50
-127.753153
 51
-89.278261000001
  0
ARC
  8
130_VU3
 62
     7
  6
CONTINUOUS
 10
244.18195650847
 20
213.74185070501
 30
0
 40
31.430989711161
 50
79.962934
 51
88.509203
  0
ARC
  8
130_VU3
 62
     7
  6
CONTINUOUS
 10
246.22826576434
 20
258.06774656542
 30
0
 40
2.5312304109964
 50
-135
 51
-50.749665
  0
ARC
  8
130_VU3
 62
     7
  6
CONTINUOUS
 10
248.05112338265
 20
255.83670703779
 30
0
 40
0.34980182077086
 50
84.224665999994
 51
129.250339
  0
ARC
  8
130_VU3
 62
     7
  6
CONTINUOUS
 10
256.91379173002
 20
224.35281130541
 30
0
 40
1.9549324021371
 50
17.767192999998
 51
140.250166
  0
ARC
  8
130_VU3
 62
     7
  6
CONTINUOUS
 10
256.67174789794
 20
236.97893775965
 30
0
 40
0.82872815895733
 50
26.828596999998
 51
122.301483
  0
ARC
  8
130_VU3
 62
     7
  6
CONTINUOUS
 10
252.48310976909
 20
241.85548951552
 30
0
 40
5.5342883929651
 50
-84.410304
 51
-59.52786
  0
LINE
  8
130_VU3
 62
     7
  6
CONTINUOUS
 10
255.28965463866
 20
237.0856202291
 30
0
 11
256.2288968955
 21
237.67941863221
 31
0
  0
ARC
  8
130_VU3
 62
     7
  6
CONTINUOUS
 10
253.56626311045
 20
235.40829839519
 30
0
 40
4.3088063849067
 50
14.477125999999
 51
26.828599999999
  0
ARC
  8
130_VU3
 62
     7
  6
CONTINUOUS
 10
259.00099112921
 20
258.74049235789
 30
0
 40
8.200609707281
 50
-89.140397
 51
-58.438623
  0
ARC
  8
130_VU3
 62
     7
  6
CONTINUOUS
 10
260.0405213031
 20
242.37748862555
 30
0
 40
1.9549326451373
 50
17.76719
 51
140.250166
  0
ARC
  8
130_VU3
 62
     7
  6
CONTINUOUS
 10
256.45665425505
 20
245.35814222459
 30
0
 40
2.7064409037401
 50
-133.661292
 51
-39.74984
  0
ARC
  8
130_VU3
 62
     7
  6
CONTINUOUS
 10
251.47841951752
 20
239.12584257092
 30
0
 40
5.2858886455309
 50
53.963048
 51
81.467412
  0
ARC
  8
130_VU3
 62
     7
  6
CONTINUOUS
 10
264.41610173527
 20
259.74313022908
 30
0
 40
4.4877289499458
 50
-109.278597
 51
-50.955514
  0
ARC
  8
130_VU3
 62
     7
  6
CONTINUOUS
 10
266.38704688394
 20
246.71647686038
 30
0
 40
5.9107604665972
 50
89.534911
 51
121.561383
  0
ARC
  8
130_VU3
 62
     7
  6
CONTINUOUS
 10
267.63746436585
 20
255.77138807621
 30
0
 40
0.62616531156301
 50
98.487192000007
 51
129.044483
  0
ARC
  8
130_VU3
 62
     7
  6
CONTINUOUS
 10
304.48988414838
 20
223.40323400361
 30
0
 40
3.0208319945356
 50
-161.445351
 51
-81.445348
  0
LINE
  8
130_VU3
 62
     7
  6
CONTINUOUS
 10
304.53476289831
 20
226.42268721455
 30
0
 11
305.48862186507
 21
220.50455727843
 31
0
  0
ARC
  8
130_VU3
 62
     7
  6
CONTINUOUS
 10
288.4012301635
 20
183.8564358513
 30
0
 40
18.040281583192
 50
78.123881
 51
97.348967
  0
ARC
  8
130_VU3
 62
     7
  6
CONTINUOUS
 10
289.48979366313
 20
211.56894826565
 30
0
 40
15.967321028479
 50
-109.851424
 51
-79.851423
  0
ARC
  8
130_VU3
 62
     7
  6
CONTINUOUS
 10
287.12379518133
 20
207.78704911045
 30
0
 40
6.1647278364737
 50
-160.781815
 51
-102.173906
  0
ARC
  8
130_VU3
 62
     7
  6
CONTINUOUS
 10
276.76194413218
 20
196.22933244151
 30
0
 40
5.2791952027857
 50
24.762915
 51
69.593831999999
  0
ARC
  8
130_VU3
 62
     7
  6
CONTINUOUS
 10
281.49688771719
 20
208.95701600327
 30
0
 40
8.3007024951028
 50
-129.476906
 51
-110.406175
  0
ARC
  8
130_VU3
 62
     7
  6
CONTINUOUS
 10
282.86897495389
 20
184.53321617743
 30
0
 40
0.81527396238883
 50
-102.17390499999
 51
-83.099379999998
  0
ARC
  8
130_VU3
 62
     7
  6
CONTINUOUS
 10
285.40819667214
 20
200.94617712258
 30
0
 40
4.5956028497714
 50
-146.960854
 51
-106.960853
  0
ARC
  8
130_VU3
 62
     7
  6
CONTINUOUS
 10
285.99570452697
 20
202.55789349757
 30
0
 40
0.81527396238884
 50
-102.173905
 51
-83.099382000001
  0
ARC
  8
130_VU3
 62
     7
  6
CONTINUOUS
 10
293.36557476196
 20
204.33542913343
 30
0
 40
3.0679881431021
 50
-109.54017
 51
-25.209997
  0
ARC
  8
130_VU3
 62
     7
  6
CONTINUOUS
 10
298.15573943187
 20
196.40292795439
 30
0
 40
2.7296666276156
 50
95.330156000002
 51
135.330156
  0
ARC
  8
130_VU3
 62
     7
  6
CONTINUOUS
 10
293.68280725505
 20
184.78412150076
 30
0
 40
0.70343332597326
 50
131.786858
 51
161.786849
  0
ARC
  8
130_VU3
 62
     7
  6
CONTINUOUS
 10
291.80764917222
 20
200.05450703079
 30
0
 40
1.4879040867183
 50
69.059148000004
 51
78.123881000001
  0
LINE
  8
130_VU3
 62
     7
  6
CONTINUOUS
 10
294.6580181705
 20
196.93016687948
 30
0
 11
296.21448357156
 21
198.32193981196
 31
0
  0
ARC
  8
130_VU3
 62
     7
  6
CONTINUOUS
 10
291.46772434088
 20
200.7848511799
 30
0
 40
5.0036552399464
 50
-80.387457999999
 51
-50.387459
  0
ARC
  8
130_VU3
 62
     7
  6
CONTINUOUS
 10
298.2819382259
 20
201.53343347212
 30
0
 40
2.3328510564431
 50
-80.31593
 51
-50.315930000001
  0
LINE
  8
130_VU3
 62
     7
  6
CONTINUOUS
 10
297.90216815245
 20
199.12079132935
 30
0
 11
298.67435962299
 21
199.23382485414
 31
0
  0
ARC
  8
130_VU3
 62
     7
  6
CONTINUOUS
 10
296.80953707112
 20
202.8087988209
 30
0
 40
0.70343332597328
 50
131.78685800001
 51
161.786849
  0
LINE
  8
130_VU3
 62
     7
  6
CONTINUOUS
 10
304.93924124035
 20
220.41601064897
 30
0
 11
305.48862186507
 21
220.50455727843
 31
0
  0
ARC
  8
130_VU3
 62
     7
  6
CONTINUOUS
 10
286.81745687685
 20
264.69665596902
 30
0
 40
7.7161050546397
 50
-87.493743
 51
-75.31476
  0
ARC
  8
130_VU3
 62
     7
  6
CONTINUOUS
 10
284.79435487683
 20
252.73022497715
 30
0
 40
4.153877667632
 50
90.165705000001
 51
118.303581
  0
ARC
  8
130_VU3
 62
     7
  6
CONTINUOUS
 10
282.16843964927
 20
263.93825136244
 30
0
 40
4.3849058109647
 50
-90
 51
-69.636987
  0
LINE
  8
130_VU3
 62
     7
  6
CONTINUOUS
 10
281.42312862684
 20
255.63265022467
 30
0
 11
282.8248220458
 21
256.38749730713
 31
0
  0
ARC
  8
130_VU3
 62
     7
  6
CONTINUOUS
 10
276.19540598662
 20
264.93989050248
 30
0
 40
10.674914629407
 50
-70.310775000001
 51
-60.677802000001
  0
ARC
  8
130_VU3
 62
     7
  6
CONTINUOUS
 10
281.31417629177
 20
250.38106276983
 30
0
 40
9.1733429918729
 50
90.871214
 51
99.184133
  0
LINE
  8
130_VU3
 62
     7
  6
CONTINUOUS
 10
281.17469631737
 20
259.55334530847
 30
0
 11
282.16843964927
 21
259.55334555147
 31
0
  0
LINE
  8
130_VU3
 62
     7
  6
CONTINUOUS
 10
284.78234167193
 20
256.88408539176
 30
0
 11
287.15487078629
 21
256.98793180492
 31
0
  0
ARC
  8
130_VU3
 62
     7
  6
CONTINUOUS
 10
301.58613503533
 20
239.07469781574
 30
0
 40
2.5072494422469
 50
114.431957
 51
-120
  0
ARC
  8
130_VU3
 62
     7
  6
CONTINUOUS
 10
303.45159181793
 20
231.35863358515
 30
0
 40
3.221097031271
 50
150.82603
 51
-170.844049
  0
LINE
  8
130_VU3
 62
     7
  6
CONTINUOUS
 10
300.27153510415
 20
230.84608572806
 30
0
 11
301.62607334654
 21
222.4419778653
 31
0
  0
ARC
  8
130_VU3
 62
     7
  6
CONTINUOUS
 10
300.28677000678
 20
235.24193408469
 30
0
 40
1.4617040394012
 50
-29.999999999999
 51
59.999999999998
  0
LINE
  8
130_VU3
 62
     7
  6
CONTINUOUS
 10
300.63911166649
 20
232.92879958506
 30
0
 11
301.55264279257
 21
234.51108206499
 31
0
  0
LINE
  8
130_VU3
 62
     7
  6
CONTINUOUS
 10
300.33251019271
 20
236.90335616719
 30
0
 11
301.01762202648
 21
236.50780687048
 31
0
  0
ARC
  8
130_VU3
 62
     7
  6
CONTINUOUS
 10
232.96137211164
 20
244.63912723459
 30
0
 40
100.20537689899
 50
-41.313934
 51
-31.674246
  0
ARC
  8
130_VU3
 62
     7
  6
CONTINUOUS
 10
307.2718330155
 20
179.3034156418
 30
0
 40
1.2570006025299
 50
-70.617167
 51
-40.617164999998
  0
ARC
  8
130_VU3
 62
     7
  6
CONTINUOUS
 10
359.17001494313
 20
209.21508643289
 30
0
 40
41.302822431287
 50
107.509189
 51
142.50919
  0
ARC
  8
130_VU3
 62
     7
  6
CONTINUOUS
 10
354.06882206332
 20
223.19726137627
 30
0
 40
23.781828560985
 50
105.645882
 51
135.645882
  0
ARC
  8
130_VU3
 62
     7
  6
CONTINUOUS
 10
356.04328537006
 20
191.19040911276
 30
0
 40
41.302822674287
 50
107.50919
 51
142.50919
  0
ARC
  8
130_VU3
 62
     7
  6
CONTINUOUS
 10
350.94209249025
 20
205.17258405614
 30
0
 40
23.781828560985
 50
105.645882
 51
135.645883
  0
ARC
  8
130_VU3
 62
     7
  6
CONTINUOUS
 10
340.08761183106
 20
210.56604285114
 30
0
 40
1.3334757070226
 50
-70.017714000001
 51
109.982287
  0
LINE
  8
130_VU3
 62
     7
  6
CONTINUOUS
 10
305.97322711982
 20
226.65453256783
 30
0
 11
306.92708608658
 21
220.73640287471
 31
0
  0
ARC
  8
130_VU3
 62
     7
  6
CONTINUOUS
 10
306.88872630519
 20
223.74778604631
 30
0
 40
2.9798621471277
 50
-79.564081000002
 51
0.43592100000004
  0
ARC
  8
130_VU3
 62
     7
  6
CONTINUOUS
 10
358.3085502723
 20
193.17697140349
 30
0
 40
52.645137575971
 50
133.246808
 51
151.476903
  0
ARC
  8
130_VU3
 62
     7
  6
CONTINUOUS
 10
240.07314956099
 20
281.42418296517
 30
0
 40
100.20537689899
 50
-41.313934
 51
-31.674246
  0
ARC
  8
130_VU3
 62
     7
  6
CONTINUOUS
 10
325.78212914456
 20
210.50104076193
 30
0
 40
3.4470666377503
 50
106.879833
 51
166.188325
  0
ARC
  8
130_VU3
 62
     7
  6
CONTINUOUS
 10
352.05823749379
 20
172.43003070231
 30
0
 40
41.302822674287
 50
107.509189
 51
142.50919
  0
ARC
  8
130_VU3
 62
     7
  6
CONTINUOUS
 10
280.29615504477
 20
249.52999510902
 30
0
 40
68.023867697367
 50
-52.812549
 51
-43.115232
  0
ARC
  8
130_VU3
 62
     7
  6
CONTINUOUS
 10
355.18182069922
 20
175.15229408336
 30
0
 40
52.645137818972
 50
133.246809
 51
151.476903
  0
ARC
  8
130_VU3
 62
     7
  6
CONTINUOUS
 10
236.94641974491
 20
263.39950564503
 30
0
 40
100.20537689899
 50
-41.313934
 51
-31.674246
  0
ARC
  8
130_VU3
 62
     7
  6
CONTINUOUS
 10
305.39967622914
 20
195.40137386445
 30
0
 40
4.1289003977296
 50
-44.22076
 51
-14.220758
  0
ARC
  8
130_VU3
 62
     7
  6
CONTINUOUS
 10
313.11044256761
 20
193.28628653799
 30
0
 40
3.8683190461996
 50
111.797149
 51
163.467167
  0
ARC
  8
130_VU3
 62
     7
  6
CONTINUOUS
 10
305.07590386949
 20
200.48179216422
 30
0
 40
3.7541626171044
 50
-74.033164
 51
-9.3892210000006
  0
ARC
  8
130_VU3
 62
     7
  6
CONTINUOUS
 10
306.25819039057
 20
196.21938838401
 30
0
 40
0.66998555226929
 50
102.901196
 51
132.901203
  0
ARC
  8
130_VU3
 62
     7
  6
CONTINUOUS
 10
311.26315054202
 20
199.24159989114
 30
0
 40
2.5614890490101
 50
155.8142
 51
165.814202
  0
ARC
  8
130_VU3
 62
     7
  6
CONTINUOUS
 10
311.25688064877
 20
198.06379405225
 30
0
 40
1.2570006025299
 50
-70.617166999997
 51
-40.617164999998
  0
ARC
  8
130_VU3
 62
     7
  6
CONTINUOUS
 10
321.79708151129
 20
191.74066259448
 30
0
 40
3.4470666377502
 50
106.879833
 51
166.18833
  0
ARC
  8
130_VU3
 62
     7
  6
CONTINUOUS
 10
317.33536209644
 20
192.68261211745
 30
0
 40
1.1206611637657
 50
-36.096938
 51
-6.0969469999986
  0
ARC
  8
130_VU3
 62
     7
  6
CONTINUOUS
 10
316.35760599604
 20
198.86400758621
 30
0
 40
3.2026579269343
 50
-72.605051
 51
-23.863519
  0
ARC
  8
130_VU3
 62
     7
  6
CONTINUOUS
 10
319.7375350581
 20
188.07530929014
 30
0
 40
8.1030898064365
 50
107.394954
 51
124.676383
  0
ARC
  8
130_VU3
 62
     7
  6
CONTINUOUS
 10
320.54638093405
 20
196.33671645277
 30
0
 40
1.321327150965
 50
-79.102874999999
 51
-49.102874
  0
ARC
  8
130_VU3
 62
     7
  6
CONTINUOUS
 10
316.23717238368
 20
211.31096361512
 30
0
 40
3.8683190461996
 50
111.797149
 51
163.467163
  0
ARC
  8
130_VU3
 62
     7
  6
CONTINUOUS
 10
308.52640604522
 20
213.42605118458
 30
0
 40
4.1289003977297
 50
-44.220762999999
 51
-14.220757999999
  0
ARC
  8
130_VU3
 62
     7
  6
CONTINUOUS
 10
308.20263344257
 20
218.50646948435
 30
0
 40
3.7541626171044
 50
-74.033164
 51
-9.3892239999998
  0
ARC
  8
130_VU3
 62
     7
  6
CONTINUOUS
 10
309.38492020664
 20
214.24406546114
 30
0
 40
0.66998579526961
 50
102.90121
 51
132.901204
  0
LINE
  8
130_VU3
 62
     7
  6
CONTINUOUS
 10
306.92708608658
 20
220.73640287471
 30
0
 11
307.42848581977
 21
220.81721650622
 31
0
  0
ARC
  8
130_VU3
 62
     7
  6
CONTINUOUS
 10
314.3898803581
 20
217.26627696827
 30
0
 40
2.5614892920103
 50
155.814198
 51
165.814202
  0
ARC
  8
130_VU3
 62
     7
  6
CONTINUOUS
 10
321.32040997271
 20
211.4429905279
 30
0
 40
1.1206609207653
 50
-36.096945000005
 51
-6.0969470000018
  0
ARC
  8
130_VU3
 62
     7
  6
CONTINUOUS
 10
314.38361046484
 20
216.08847137238
 30
0
 40
1.2570008455303
 50
-70.617170999995
 51
-40.617165000004
  0
ARC
  8
130_VU3
 62
     7
  6
CONTINUOUS
 10
323.72258269137
 20
206.83568770059
 30
0
 40
8.1030898064366
 50
107.394952
 51
124.676383
  0
ARC
  8
130_VU3
 62
     7
  6
CONTINUOUS
 10
320.34265387231
 20
217.62438599666
 30
0
 40
3.2026579269344
 50
-72.605050999999
 51
-23.863519
  0
ARC
  8
130_VU3
 62
     7
  6
CONTINUOUS
 10
284.28120267804
 20
268.29037327647
 30
0
 40
68.023867454367
 50
-52.812549
 51
-43.115232
  0
ARC
  8
130_VU3
 62
     7
  6
CONTINUOUS
 10
346.95704461398
 20
186.41220588869
 30
0
 40
23.781828560985
 50
105.645882
 51
135.645882
  0
ARC
  8
130_VU3
 62
     7
  6
CONTINUOUS
 10
324.53142856732
 20
215.09709486322
 30
0
 40
1.3213273939652
 50
-79.102876999998
 51
-49.102873999999
  0
ARC
  8
130_VU3
 62
     7
  6
CONTINUOUS
 10
287.32404077804
 20
292.5530835989
 30
0
 40
58.67209081402
 50
-69.813629
 51
-39.813628
  0
ARC
  8
130_VU3
 62
     7
  6
CONTINUOUS
 10
326.84931250745
 20
224.86036502072
 30
0
 40
8.1030895634363
 50
107.394955
 51
124.676383
  0
ARC
  8
130_VU3
 62
     7
  6
CONTINUOUS
 10
288.47266665717
 20
224.46844153121
 30
0
 40
21.407217420219
 50
-1.8684650000001
 51
26.986539
  0
ARC
  8
130_VU3
 62
     7
  6
CONTINUOUS
 10
308.45320050951
 20
235.94893222478
 30
0
 40
1.7716511410543
 50
119.890403
 51
-137.207999
  0
ARC
  8
130_VU3
 62
     7
  6
CONTINUOUS
 10
305.38226185699
 20
233.07930691222
 30
0
 40
2.4314063814858
 50
26.986538
 51
43.253740999999
  0
ARC
  8
130_VU3
 62
     7
  6
CONTINUOUS
 10
287.40793249412
 20
286.3150505966
 30
0
 40
68.023867454366
 50
-52.812549
 51
-43.115232
  0
ARC
  8
130_VU3
 62
     7
  6
CONTINUOUS
 10
328.90885896064
 20
228.52571808206
 30
0
 40
3.4470666377502
 50
106.879833
 51
166.188325
  0
ARC
  8
130_VU3
 62
     7
  6
CONTINUOUS
 10
324.44713978879
 20
229.46766784803
 30
0
 40
1.1206609207653
 50
-36.096945000004
 51
-6.0969470000032
  0
ARC
  8
130_VU3
 62
     7
  6
CONTINUOUS
 10
327.6581583834
 20
233.12177218335
 30
0
 40
1.3213273939652
 50
-79.102876999998
 51
-49.102873999995
  0
ARC
  8
130_VU3
 62
     7
  6
CONTINUOUS
 10
323.46938344538
 20
235.64906307379
 30
0
 40
3.2026579269343
 50
-72.605051000001
 51
-23.863515
  0
ARC
  8
130_VU3
 62
     7
  6
CONTINUOUS
 10
344.07265946433
 20
229.32642101859
 30
0
 40
1.3334759500229
 50
-70.017704999994
 51
109.982288
  0
ARC
  8
130_VU3
 62
     7
  6
CONTINUOUS
 10
347.1993892804
 20
247.35109833873
 30
0
 40
1.3334757070226
 50
-70.017714000001
 51
109.982287
  0
ARC
  8
130_VU3
 62
     7
  6
CONTINUOUS
 10
304.10643286367
 20
277.44880868709
 30
0
 40
7.7161050546397
 50
-87.493743
 51
-75.31476
  0
ARC
  8
130_VU3
 62
     7
  6
CONTINUOUS
 10
316.163991148
 20
225.41442583085
 30
0
 40
49.547981137117
 50
77.841528
 51
107.841529
  0
ARC
  8
130_VU3
 62
     7
  6
CONTINUOUS
 10
304.80079328815
 20
372.3406865196
 30
0
 40
2.5312306539968
 50
44.999999999998
 51
129.250341
  0
ARC
  8
130_VU3
 62
     7
  6
CONTINUOUS
 10
237.47159292461
 20
376.88545346754
 30
0
 40
72.828937032521
 50
-40.231909
 51
-10.231908
  0
ARC
  8
130_VU3
 62
     7
  6
CONTINUOUS
 10
305.461771063
 20
316.26808368056
 30
0
 40
3.0208319945356
 50
-131.445351
 51
-51.445351999999
  0
LINE
  8
130_VU3
 62
     7
  6
CONTINUOUS
 10
303.99091053
 20
318.90544592236
 30
0
 11
307.77604158894
 21
314.25712464759
 31
0
  0
LINE
  8
130_VU3
 62
     7
  6
CONTINUOUS
 10
305.12073426237
 20
319.82546223995
 30
0
 11
308.90586532131
 21
315.17714096518
 31
0
  0
ARC
  8
130_VU3
 62
     7
  6
CONTINUOUS
 10
291.05784993459
 20
309.18197143491
 30
0
 40
21.407217420219
 50
28.131536
 51
56.98654
  0
ARC
  8
130_VU3
 62
     7
  6
CONTINUOUS
 10
256.02078975369
 20
367.57068820002
 30
0
 40
58.67209081402
 50
-39.813628
 51
-9.8136269999999
  0
ARC
  8
130_VU3
 62
     7
  6
CONTINUOUS
 10
306.92202536272
 20
383.8519687508
 30
0
 40
5.6928847134839
 50
-127.753153
 51
-77.453455000001
  0
ARC
  8
130_VU3
 62
     7
  6
CONTINUOUS
 10
329.5245635961
 20
359.91817121597
 30
0
 40
77.026643931869
 50
-110.815874
 51
-101.375928
  0
ARC
  8
130_VU3
 62
     7
  6
CONTINUOUS
 10
297.54713745163
 20
253.7419867799
 30
0
 40
38.711825372132
 50
59.534913
 51
79.689229
  0
ARC
  8
130_VU3
 62
     7
  6
CONTINUOUS
 10
304.1951206763
 20
276.88627785916
 30
0
 40
31.430989711161
 50
79.249107
 51
95.589702
  0
ARC
  8
130_VU3
 62
     7
  6
CONTINUOUS
 10
309.9738323601
 20
330.77347710938
 30
0
 40
31.430989711161
 50
-100.037071
 51
-91.490802
  0
ARC
  8
130_VU3
 62
     7
  6
CONTINUOUS
 10
258.80744626525
 20
338.9183790022
 30
0
 40
21.076919288017
 50
159.313914
 51
-174.322546
  0
ARC
  8
130_VU3
 62
     7
  6
CONTINUOUS
 10
174.43378311583
 20
263.78783151538
 30
0
 40
123.72076439966
 50
17.767222
 51
37.297859
  0
ARC
  8
130_VU3
 62
     7
  6
CONTINUOUS
 10
184.8551089698
 20
409.08462830361
 30
0
 40
99.66899022831
 50
-52.719083
 51
-42.943835
  0
ARC
  8
130_VU3
 62
     7
  6
CONTINUOUS
 10
318.08371378139
 20
263.98933536755
 30
0
 40
102.88006495598
 50
128.255031
 51
137.140336
  0
ARC
  8
130_VU3
 62
     7
  6
CONTINUOUS
 10
219.6030928572
 20
288.19700515429
 30
0
 40
79.333476219205
 50
14.477126
 51
42.668264
  0
LINE
  8
130_VU3
 62
     7
  6
CONTINUOUS
 10
265.3752994182
 20
268.93688573058
 30
0
 11
280.22340124658
 21
268.2592063034
 31
0
  0
ARC
  8
130_VU3
 62
     7
  6
CONTINUOUS
 10
330.8464421147
 20
266.27513233555
 30
0
 40
72.828937032521
 50
139.768096
 51
169.768097
  0
LINE
  8
130_VU3
 62
     7
  6
CONTINUOUS
 10
264.85576894803
 20
329.15687983074
 30
0
 11
270.23088753981
 21
322.55597815355
 31
0
  0
ARC
  8
130_VU3
 62
     7
  6
CONTINUOUS
 10
274.14968041742
 20
414.13981807118
 30
0
 40
150.86383846009
 50
-93.17962
 51
-89.140397
  0
ARC
  8
130_VU3
 62
     7
  6
CONTINUOUS
 10
312.29724528562
 20
275.58989760306
 30
0
 40
58.67209081402
 50
140.186377
 51
170.186378
  0
ARC
  8
130_VU3
 62
     7
  6
CONTINUOUS
 10
313.55746612788
 20
253.52297961748
 30
0
 40
72.828937032521
 50
139.768096
 51
169.768097
  0
ARC
  8
130_VU3
 62
     7
  6
CONTINUOUS
 10
295.0082692988
 20
262.837744885
 30
0
 40
58.67209081402
 50
140.186377
 51
170.186378
  0
ARC
  8
130_VU3
 62
     7
  6
CONTINUOUS
 10
224.61072746975
 20
287.4961459303
 30
0
 40
14.321157419632
 50
-33.484963
 51
-25.617287
  0
ARC
  8
130_VU3
 62
     7
  6
CONTINUOUS
 10
252.1267211827
 20
268.73876468532
 30
0
 40
15.484482871767
 50
164.648823
 51
-163.983998
  0
ARC
  8
130_VU3
 62
     7
  6
CONTINUOUS
 10
236.58754234964
 20
264.2782811699
 30
0
 40
0.68221138241637
 50
-51.689381999999
 51
16.015998999995
  0
ARC
  8
130_VU3
 62
     7
  6
CONTINUOUS
 10
247.60070535145
 20
260.69755514349
 30
0
 40
7.9958151453044
 50
136.955356
 51
151.547575
  0
ARC
  8
130_VU3
 62
     7
  6
CONTINUOUS
 10
241.73273674837
 20
263.87729668591
 30
0
 40
1.3217001563966
 50
151.547575
 51
-165.847656
  0
ARC
  8
130_VU3
 62
     7
  6
CONTINUOUS
 10
241.40359772751
 20
266.48548650096
 30
0
 40
0.48382473785454
 50
-43.044650999997
 51
-3.0446660000006
  0
ARC
  8
130_VU3
 62
     7
  6
CONTINUOUS
 10
231.46980892669
 20
282.95880725795
 30
0
 40
6.0971411962664
 50
-38.327445999999
 51
-33.484962
  0
ARC
  8
130_VU3
 62
     7
  6
CONTINUOUS
 10
233.58361588467
 20
278.99257659445
 30
0
 40
1.9589805438213
 50
-43.461727999998
 51
-28.350681999997
  0
ARC
  8
130_VU3
 62
     7
  6
CONTINUOUS
 10
232.72491607103
 20
292.39064811694
 30
0
 40
6.1816268050285
 50
-28.396261
 51
3.8042289999999
  0
ARC
  8
130_VU3
 62
     7
  6
CONTINUOUS
 10
240.35943159426
 20
286.56023496432
 30
0
 40
3.307051819733
 50
151.603744
 51
-144.361174
  0
ARC
  8
130_VU3
 62
     7
  6
CONTINUOUS
 10
233.69144604444
 20
283.14202582496
 30
0
 40
4.2505164494569
 50
-25.617289999999
 51
20.539075
  0
LINE
  8
130_VU3
 62
     7
  6
CONTINUOUS
 10
237.45028544496
 20
288.13295902818
 30
0
 11
238.1627671294
 21
289.4508717822
 31
0
  0
LINE
  8
130_VU3
 62
     7
  6
CONTINUOUS
 10
238.65293320259
 20
296.40996243486
 30
0
 11
238.89292222429
 21
292.80078399153
 31
0
  0
ARC
  8
130_VU3
 62
     7
  6
CONTINUOUS
 10
-108.37877694585
 20
311.62144080872
 30
0
 40
344.5118499636
 50
-3
 51
-2.54498
  0
ARC
  8
130_VU3
 62
     7
  6
CONTINUOUS
 10
237.22666054819
 20
296.2487324773
 30
0
 40
1.4353567339135
 50
6.4495000000035
 51
177
  0
ARC
  8
130_VU3
 62
     7
  6
CONTINUOUS
 10
269.41569741252
 20
281.49091740339
 30
0
 40
15.484482871767
 50
164.648823
 51
-163.983997
  0
ARC
  8
130_VU3
 62
     7
  6
CONTINUOUS
 10
273.92591555249
 20
280.44524296739
 30
0
 40
16.706604914937
 50
-165.655989
 51
-136.899961
  0
ARC
  8
130_VU3
 62
     7
  6
CONTINUOUS
 10
261.39600991959
 20
259.30861705229
 30
0
 40
5.6928844704835
 50
52.24685
 51
102.54655
  0
ARC
  8
130_VU3
 62
     7
  6
CONTINUOUS
 10
266.91757554684
 20
276.69732181251
 30
0
 40
14.002410791797
 50
-161.259132
 51
-124.073597
  0
ARC
  8
130_VU3
 62
     7
  6
CONTINUOUS
 10
259.90533951767
 20
266.33000374304
 30
0
 40
1.4863114628754
 50
-124.073596
 51
-80.160667000002
  0
ARC
  8
130_VU3
 62
     7
  6
CONTINUOUS
 10
257.0466020757
 20
273.88846528126
 30
0
 40
3.787031321138
 50
136.503273
 51
-153.496725
  0
ARC
  8
130_VU3
 62
     7
  6
CONTINUOUS
 10
253.87651833646
 20
277.03043364497
 30
0
 40
0.68221113941605
 50
-51.689368999998
 51
16.015999000005
  0
ARC
  8
130_VU3
 62
     7
  6
CONTINUOUS
 10
264.88968133827
 20
273.44970786156
 30
0
 40
7.9958151453043
 50
136.955356
 51
151.547575
  0
ARC
  8
130_VU3
 62
     7
  6
CONTINUOUS
 10
259.02171273519
 20
276.62944940397
 30
0
 40
1.3217001563965
 50
151.547575
 51
-165.847656
  0
ARC
  8
130_VU3
 62
     7
  6
CONTINUOUS
 10
258.69257371433
 20
279.23763921902
 30
0
 40
0.48382473785452
 50
-43.044650999999
 51
-3.0446659999943
  0
ARC
  8
130_VU3
 62
     7
  6
CONTINUOUS
 10
265.7636719446
 20
264.94889001789
 30
0
 40
1.4407787991876
 50
-127.753153
 51
-89.278260999998
  0
ARC
  8
130_VU3
 62
     7
  6
CONTINUOUS
 10
263.51724175116
 20
270.81989928349
 30
0
 40
2.5312306539967
 50
-135
 51
-50.749665
  0
ARC
  8
130_VU3
 62
     7
  6
CONTINUOUS
 10
265.34009961247
 20
268.58885951286
 30
0
 40
0.34980182077094
 50
84.22466600001
 51
129.25034499999
  0
LINE
  8
130_VU3
 62
     7
  6
CONTINUOUS
 10
247.56679296121
 20
316.40472711267
 30
0
 11
252.94191130999
 21
309.80382543548
 31
0
  0
LINE
  8
130_VU3
 62
     7
  6
CONTINUOUS
 10
242.12319373118
 20
315.23129211984
 30
0
 11
245.90832479012
 21
310.58297084507
 31
0
  0
ARC
  8
130_VU3
 62
     7
  6
CONTINUOUS
 10
259.97120911789
 20
321.22646165011
 30
0
 40
21.40721742022
 50
-151.868469
 51
-123.013464
  0
ARC
  8
130_VU3
 62
     7
  6
CONTINUOUS
 10
243.66210600692
 20
312.64253771028
 30
0
 40
2.9798621471277
 50
130.435925
 51
-149.564076
  0
LINE
  8
130_VU3
 62
     7
  6
CONTINUOUS
 10
241.72937581148
 20
314.91060562076
 30
0
 11
242.12319373118
 21
315.23129211984
 31
0
  0
ARC
  8
130_VU3
 62
     7
  6
CONTINUOUS
 10
248.40780454138
 20
301.29379812416
 30
0
 40
1.7716511410543
 50
-30.109602999998
 51
72.791997000001
  0
ARC
  8
130_VU3
 62
     7
  6
CONTINUOUS
 10
249.63250287353
 20
305.31443582162
 30
0
 40
2.4314063814857
 50
-123.013465
 51
-106.746265
  0
LINE
  8
130_VU3
 62
     7
  6
CONTINUOUS
 10
243.25301746355
 20
316.15130843743
 30
0
 11
247.03814852249
 21
311.50298716266
 31
0
  0
LINE
  8
130_VU3
 62
     7
  6
CONTINUOUS
 10
245.90832479012
 20
310.58297084507
 30
0
 11
247.03814852249
 21
311.50298716266
 31
0
  0
ARC
  8
130_VU3
 62
     7
  6
CONTINUOUS
 10
245.56728823249
 20
314.14034940446
 30
0
 40
3.0208319945357
 50
48.554655000001
 51
128.554656
  0
LINE
  8
130_VU3
 62
     7
  6
CONTINUOUS
 10
243.25301746355
 20
316.15130843743
 30
0
 11
243.68452181086
 21
316.50268247002
 31
0
  0
ARC
  8
130_VU3
 62
     7
  6
CONTINUOUS
 10
245.953155426
 20
326.00885833003
 30
0
 40
3.7541626171042
 50
105.966841
 51
170.610781
  0
ARC
  8
130_VU3
 62
     7
  6
CONTINUOUS
 10
239.76590851046
 20
327.24905084611
 30
0
 40
2.5614892920103
 50
-24.185802
 51
-14.185803000001
  0
ARC
  8
130_VU3
 62
     7
  6
CONTINUOUS
 10
232.05898740845
 20
335.91698362815
 30
0
 40
5.8471723960167
 50
-16.503313
 51
9.0158400000001
  0
ARC
  8
130_VU3
 62
     7
  6
CONTINUOUS
 10
245.62938282334
 20
331.0892768728
 30
0
 40
4.1289003977297
 50
135.779242
 51
165.779248
  0
ARC
  8
130_VU3
 62
     7
  6
CONTINUOUS
 10
237.91861648488
 20
333.20436419926
 30
0
 40
3.8683190461997
 50
-68.202855999999
 51
-16.532838999999
  0
ARC
  8
130_VU3
 62
     7
  6
CONTINUOUS
 10
239.77217840372
 20
328.426856685
 30
0
 40
1.2570006025299
 50
109.382838
 51
139.382841
  0
ARC
  8
130_VU3
 62
     7
  6
CONTINUOUS
 10
244.77086866192
 20
330.27126235324
 30
0
 40
0.66998579526956
 50
-77.098796000002
 51
-47.098802999998
  0
ARC
  8
130_VU3
 62
     7
  6
CONTINUOUS
 10
277.26018510472
 20
333.97861436818
 30
0
 40
21.407217420219
 50
-151.868469
 51
-123.013464
  0
ARC
  8
130_VU3
 62
     7
  6
CONTINUOUS
 10
250.44417532875
 20
307.76991745596
 30
0
 40
3.2210970312711
 50
0.8260259999989
 51
39.155949
  0
ARC
  8
130_VU3
 62
     7
  6
CONTINUOUS
 10
255.91774062445
 20
302.02033834687
 30
0
 40
2.5072494422469
 50
-35.568046999999
 51
90
  0
ARC
  8
130_VU3
 62
     7
  6
CONTINUOUS
 10
255.12664178804
 20
305.98929182852
 30
0
 40
1.4617040394011
 50
180
 51
-90
  0
LINE
  8
130_VU3
 62
     7
  6
CONTINUOUS
 10
253.66493774863
 20
305.98929182852
 30
0
 11
253.66493774863
 21
307.81635408069
 31
0
  0
LINE
  8
130_VU3
 62
     7
  6
CONTINUOUS
 10
255.12664178804
 20
304.52758778912
 30
0
 11
255.91774062445
 21
304.52758778912
 31
0
  0
ARC
  8
130_VU3
 62
     7
  6
CONTINUOUS
 10
265.6967807712
 20
314.04595084223
 30
0
 40
1.7716511410544
 50
-30.109607000001
 51
72.791997000001
  0
ARC
  8
130_VU3
 62
     7
  6
CONTINUOUS
 10
266.92147886035
 20
318.06658853968
 30
0
 40
2.4314063814857
 50
-123.013465
 51
-106.74626
  0
ARC
  8
130_VU3
 62
     7
  6
CONTINUOUS
 10
262.85626421932
 20
326.89250212253
 30
0
 40
3.0208319945358
 50
48.554655
 51
128.554656
  0
LINE
  8
130_VU3
 62
     7
  6
CONTINUOUS
 10
260.54199369337
 20
328.9034609125
 30
0
 11
264.32712450931
 21
324.25513963773
 31
0
  0
LINE
  8
130_VU3
 62
     7
  6
CONTINUOUS
 10
259.41216996101
 20
327.98344483791
 30
0
 11
263.19730077694
 21
323.33512356314
 31
0
  0
ARC
  8
130_VU3
 62
     7
  6
CONTINUOUS
 10
260.95108199375
 20
325.39469042835
 30
0
 40
2.9798621471277
 50
130.435925
 51
-149.564076
  0
LINE
  8
130_VU3
 62
     7
  6
CONTINUOUS
 10
259.0183517983
 20
327.66275833883
 30
0
 11
259.41216996101
 21
327.98344483791
 31
0
  0
LINE
  8
130_VU3
 62
     7
  6
CONTINUOUS
 10
260.54199369337
 20
328.9034609125
 30
0
 11
260.97349779769
 21
329.25483518809
 31
0
  0
LINE
  8
130_VU3
 62
     7
  6
CONTINUOUS
 10
263.19730077694
 20
323.33512356314
 30
0
 11
264.32712450931
 21
324.25513963773
 31
0
  0
ARC
  8
130_VU3
 62
     7
  6
CONTINUOUS
 10
310.95522520271
 20
350.63256039318
 30
0
 40
58.417068579923
 50
-125.536166
 51
-105.314757
  0
ARC
  8
130_VU3
 62
     7
  6
CONTINUOUS
 10
309.06307678322
 20
337.93968953771
 30
0
 40
49.547981137117
 50
-132.158478
 51
-102.158477
  0
ARC
  8
130_VU3
 62
     7
  6
CONTINUOUS
 10
309.43306463735
 20
196.14975884044
 30
0
 40
77.026643931869
 50
99.184132
 51
108.624079
  0
ARC
  8
130_VU3
 62
     7
  6
CONTINUOUS
 10
284.03823568789
 20
304.08974502247
 30
0
 40
38.711825372132
 50
-90.465091
 51
-70.310775
  0
ARC
  8
130_VU3
 62
     7
  6
CONTINUOUS
 10
276.28996735904
 20
271.49264507596
 30
0
 40
8.200609707281
 50
-89.140397
 51
-58.438622999999
  0
ARC
  8
130_VU3
 62
     7
  6
CONTINUOUS
 10
281.7050777221
 20
272.49528294715
 30
0
 40
4.4877289499457
 50
-109.278597
 51
-50.955514000001
  0
ARC
  8
130_VU3
 62
     7
  6
CONTINUOUS
 10
283.67602311376
 20
259.46862957845
 30
0
 40
5.9107602235969
 50
89.534913000001
 51
121.561382
  0
ARC
  8
130_VU3
 62
     7
  6
CONTINUOUS
 10
284.92644035267
 20
268.52354079428
 30
0
 40
0.62616531156293
 50
98.487192000008
 51
129.04448300001
  0
ARC
  8
130_VU3
 62
     7
  6
CONTINUOUS
 10
302.08333086366
 20
265.48237769521
 30
0
 40
4.1538774246317
 50
90.165704999999
 51
118.303582
  0
LINE
  8
130_VU3
 62
     7
  6
CONTINUOUS
 10
298.71210485666
 20
268.38480294274
 30
0
 11
300.11379803262
 21
269.1396500252
 31
0
  0
ARC
  8
130_VU3
 62
     7
  6
CONTINUOUS
 10
293.48438197344
 20
277.69204297755
 30
0
 40
10.674914629407
 50
-70.310775
 51
-60.6778
  0
LINE
  8
130_VU3
 62
     7
  6
CONTINUOUS
 10
302.07131765875
 20
269.63623786683
 30
0
 11
304.44384677311
 21
269.74008452299
 31
0
  0
LINE
  8
130_VU3
 62
     7
  6
CONTINUOUS
 10
298.46367230419
 20
272.30549802654
 30
0
 11
299.4574158791
 21
272.30549802654
 31
0
  0
ARC
  8
130_VU3
 62
     7
  6
CONTINUOUS
 10
298.60315227859
 20
263.1332154879
 30
0
 40
9.1733429918731
 50
90.871214000001
 51
99.184132
  0
ARC
  8
130_VU3
 62
     7
  6
CONTINUOUS
 10
299.4574158791
 20
276.69040383751
 30
0
 40
4.3849058109645
 50
-90
 51
-69.636987
  0
ARC
  8
130_VU3
 62
     7
  6
CONTINUOUS
 10
293.48803694067
 20
286.84781291809
 30
0
 40
7.7161050546397
 50
62.506260999999
 51
74.685244
  0
ARC
  8
130_VU3
 62
     7
  6
CONTINUOUS
 10
305.41181433619
 20
296.49384005692
 30
0
 40
9.1733429918729
 50
-119.128792
 51
-110.815873
  0
ARC
  8
130_VU3
 62
     7
  6
CONTINUOUS
 10
297.89340629131
 20
285.18010223131
 30
0
 40
4.3849058109647
 50
60.000000000001
 51
80.363017000002
  0
LINE
  8
130_VU3
 62
     7
  6
CONTINUOUS
 10
300.08585907529
 20
288.97754222649
 30
0
 11
300.94646619814
 21
288.48067031754
 31
0
  0
LINE
  8
130_VU3
 62
     7
  6
CONTINUOUS
 10
301.10033956519
 20
292.0474381648
 30
0
 11
302.69166505759
 21
292.00030826026
 31
0
  0
LINE
  8
130_VU3
 62
     7
  6
CONTINUOUS
 10
297.05018996959
 20
293.69247085034
 30
0
 11
299.15678370722
 21
292.59614008972
 31
0
  0
ARC
  8
130_VU3
 62
     7
  6
CONTINUOUS
 10
301.22331034349
 20
296.19949527432
 30
0
 40
4.1538779106324
 50
-119.834303
 51
-91.696426999999
  0
ARC
  8
130_VU3
 62
     7
  6
CONTINUOUS
 10
302.56538558746
 20
281.32614037072
 30
0
 40
10.674914629407
 50
79.689229
 51
89.322203
  0
ARC
  8
130_VU3
 62
     7
  6
CONTINUOUS
 10
272.41561777486
 20
318.74144454659
 30
0
 40
1.4617037964009
 50
180
 51
-90
  0
ARC
  8
130_VU3
 62
     7
  6
CONTINUOUS
 10
276.44369954293
 20
302.1283002128
 30
0
 40
1.117101938647
 50
60.000000000004
 51
-124.72913700001
  0
ARC
  8
130_VU3
 62
     7
  6
CONTINUOUS
 10
273.20671661127
 20
314.77249106494
 30
0
 40
2.5072494422471
 50
-35.568047
 51
90
  0
LINE
  8
130_VU3
 62
     7
  6
CONTINUOUS
 10
272.41561777486
 20
317.27974050719
 30
0
 11
273.20671661127
 21
317.27974050719
 31
0
  0
LINE
  8
130_VU3
 62
     7
  6
CONTINUOUS
 10
270.95391397846
 20
318.74144454659
 30
0
 11
270.95391397846
 21
320.56850679876
 31
0
  0
ARC
  8
130_VU3
 62
     7
  6
CONTINUOUS
 10
267.73315155857
 20
320.52207017403
 30
0
 40
3.221097031271
 50
0.82602599999994
 51
39.155949
  0
LINE
  8
130_VU3
 62
     7
  6
CONTINUOUS
 10
298.0871477425
 20
320.60460764954
 30
0
 11
303.46226633428
 21
314.00370597235
 31
0
  0
ARC
  8
130_VU3
 62
     7
  6
CONTINUOUS
 10
297.69913485651
 20
299.15718558979
 30
0
 40
2.7064409037401
 50
46.338713000002
 51
140.250166
  0
ARC
  8
130_VU3
 62
     7
  6
CONTINUOUS
 10
300.58952575811
 20
309.10702941919
 30
0
 40
4.3088063849068
 50
-165.522878
 51
-153.171408
  0
ARC
  8
130_VU3
 62
     7
  6
CONTINUOUS
 10
297.48404097062
 20
307.53639029774
 30
0
 40
0.8287281589573
 50
-153.171407
 51
-57.698523000001
  0
ARC
  8
130_VU3
 62
     7
  6
CONTINUOUS
 10
294.11526756546
 20
302.13783943184
 30
0
 40
1.9549326451373
 50
-162.232814
 51
-39.749840000002
  0
ARC
  8
130_VU3
 62
     7
  6
CONTINUOUS
 10
302.67736935104
 20
305.38948548646
 30
0
 40
5.2858886455309
 50
-126.036954
 51
-98.532592999999
  0
ARC
  8
130_VU3
 62
     7
  6
CONTINUOUS
 10
301.67267909947
 20
302.65983854187
 30
0
 40
5.5342883929649
 50
95.589700999999
 51
120.472145
  0
LINE
  8
130_VU3
 62
     7
  6
CONTINUOUS
 10
297.92689197306
 20
306.83590942518
 30
0
 11
298.8661342299
 21
307.42970782829
 31
0
  0
ARC
  8
130_VU3
 62
     7
  6
CONTINUOUS
 10
311.8445588468
 20
366.49082046546
 30
0
 40
67.071084978861
 50
-98.532593
 51
-96.290279
  0
ARC
  8
130_VU3
 62
     7
  6
CONTINUOUS
 10
295.90241726445
 20
324.4191412565
 30
0
 40
1.4617040394011
 50
0
 51
90
  0
ARC
  8
130_VU3
 62
     7
  6
CONTINUOUS
 10
295.11131842804
 20
328.38809473815
 30
0
 40
2.5072494422472
 50
144.431958
 51
-90
  0
LINE
  8
130_VU3
 62
     7
  6
CONTINUOUS
 10
295.11131842804
 20
325.8808452959
 30
0
 11
295.90241726445
 21
325.8808452959
 31
0
  0
ARC
  8
130_VU3
 62
     7
  6
CONTINUOUS
 10
302.62125451111
 20
329.11463496086
 30
0
 40
1.7716511410544
 50
149.890403
 51
-107.207998
  0
LINE
  8
130_VU3
 62
     7
  6
CONTINUOUS
 10
297.36412154685
 20
322.59207900433
 30
0
 11
297.36412154685
 21
324.4191412565
 31
0
  0
ARC
  8
130_VU3
 62
     7
  6
CONTINUOUS
 10
300.58488372374
 20
322.63851562906
 30
0
 40
3.2210970312711
 50
-179.173979
 51
-140.844056
  0
LINE
  8
130_VU3
 62
     7
  6
CONTINUOUS
 10
303.99091053
 20
318.90544592236
 30
0
 11
305.12073426237
 21
319.82546223995
 31
0
  0
ARC
  8
130_VU3
 62
     7
  6
CONTINUOUS
 10
301.39655642196
 20
325.0939972634
 30
0
 40
2.4314063814857
 50
56.986539999999
 51
73.253744999998
  0
ARC
  8
130_VU3
 62
     7
  6
CONTINUOUS
 10
269.71488276072
 20
380.02737031519
 30
0
 40
9.173342991873
 50
-89.128792
 51
-80.815872
  0
ARC
  8
130_VU3
 62
     7
  6
CONTINUOUS
 10
274.83365306587
 20
365.46854258254
 30
0
 40
10.674914629407
 50
109.68923
 51
119.322203
  0
ARC
  8
130_VU3
 62
     7
  6
CONTINUOUS
 10
267.03199368723
 20
336.72827870394
 30
0
 40
6.1647278364739
 50
19.218189999999
 51
77.826099
  0
ARC
  8
130_VU3
 62
     7
  6
CONTINUOUS
 10
264.66599544843
 20
332.94637954874
 30
0
 40
15.96732102848
 50
70.148581
 51
100.148582
  0
ARC
  8
130_VU3
 62
     7
  6
CONTINUOUS
 10
247.44625728873
 20
429.68458275171
 30
0
 40
58.417068579923
 50
-95.536166
 51
-75.314756
  0
ARC
  8
130_VU3
 62
     7
  6
CONTINUOUS
 10
252.15404413431
 20
417.74615997224
 30
0
 40
49.547981137117
 50
-102.158477
 51
-72.158476
  0
ARC
  8
130_VU3
 62
     7
  6
CONTINUOUS
 10
225.4737609504
 20
363.51285226253
 30
0
 40
14.61939871174
 50
-26.475681
 51
-11.47568
  0
ARC
  8
130_VU3
 62
     7
  6
CONTINUOUS
 10
253.95239152926
 20
360.22569997882
 30
0
 40
18.161431074379
 50
178.504543
 51
-166.495457
  0
ARC
  8
130_VU3
 62
     7
  6
CONTINUOUS
 10
234.06148614363
 20
347.47587180144
 30
0
 40
5.1494002475943
 50
-12.472473
 51
9.5275379999986
  0
ARC
  8
130_VU3
 62
     7
  6
CONTINUOUS
 10
-778.14005818066
 20
329.15455577605
 30
0
 40
1014.2367914784
 50
0.829097
 51
1.272067
  0
ARC
  8
130_VU3
 62
     7
  6
CONTINUOUS
 10
225.61875119918
 20
343.58007476945
 30
0
 40
10.374819731154
 50
-28.616717
 51
1.3832839999997
  0
ARC
  8
130_VU3
 62
     7
  6
CONTINUOUS
 10
7.8122592408398
 20
309.50298549837
 30
0
 40
234.56311556515
 50
9.527527
 51
10.788079
  0
ARC
  8
130_VU3
 62
     7
  6
CONTINUOUS
 10
234.0164389945
 20
353.53094551803
 30
0
 40
2.3941843274145
 50
-34.075878000001
 51
-4.0758780000007
  0
ARC
  8
130_VU3
 62
     7
  6
CONTINUOUS
 10
236.73749174815
 20
351.69032457917
 30
0
 40
0.89093574494034
 50
145.924127
 51
-178.727881
  0
ARC
  8
130_VU3
 62
     7
  6
CONTINUOUS
 10
226.38386309952
 20
354.24933672631
 30
0
 40
10.060023315889
 50
-5.0673230000001
 51
9.932678
  0
ARC
  8
130_VU3
 62
     7
  6
CONTINUOUS
 10
245.08915577622
 20
354.5854136482
 30
0
 40
6.9597520994309
 50
159.741581
 51
-170.258418
  0
ARC
  8
130_VU3
 62
     7
  6
CONTINUOUS
 10
237.80099438578
 20
360.73458922368
 30
0
 40
2.0041523520916
 50
-3.7275759999987
 51
-179.001737
  0
ARC
  8
130_VU3
 62
     7
  6
CONTINUOUS
 10
241.81052940038
 20
370.42289841144
 30
0
 40
1.1171019386471
 50
90
 51
-94.729132999996
  0
ARC
  8
130_VU3
 62
     7
  6
CONTINUOUS
 10
260.7902141066
 20
340.17989892396
 30
0
 40
3.0679881431021
 50
70.459834999998
 51
154.790008
  0
ARC
  8
130_VU3
 62
     7
  6
CONTINUOUS
 10
262.68806452769
 20
343.73047687748
 30
0
 40
5.0036549969461
 50
99.612545
 51
129.612546
  0
LINE
  8
130_VU3
 62
     7
  6
CONTINUOUS
 10
257.941305297
 20
346.19338824542
 30
0
 11
259.49777069806
 21
347.58516117791
 31
0
  0
ARC
  8
130_VU3
 62
     7
  6
CONTINUOUS
 10
256.00004967969
 20
348.11239986
 30
0
 40
2.7296666276156
 50
-84.669849
 51
-44.669848999999
  0
ARC
  8
130_VU3
 62
     7
  6
CONTINUOUS
 10
255.87385064266
 20
342.98189434227
 30
0
 40
2.3328512994433
 50
99.684074999999
 51
129.684076
  0
LINE
  8
130_VU3
 62
     7
  6
CONTINUOUS
 10
255.48142924558
 20
345.28150320324
 30
0
 11
256.25362095911
 21
345.39453648504
 31
0
  0
ARC
  8
130_VU3
 62
     7
  6
CONTINUOUS
 10
257.34625179744
 20
341.70652923649
 30
0
 40
0.70343332597319
 50
-48.213147999997
 51
-18.213154999992
  0
ARC
  8
130_VU3
 62
     7
  6
CONTINUOUS
 10
265.75455870506
 20
360.65889196309
 30
0
 40
18.040281340192
 50
-101.876124
 51
-82.651038
  0
ARC
  8
130_VU3
 62
     7
  6
CONTINUOUS
 10
262.34813969634
 20
344.4608210266
 30
0
 40
1.4879040867181
 50
-110.940858
 51
-101.876124
  0
ARC
  8
130_VU3
 62
     7
  6
CONTINUOUS
 10
268.1600843416
 20
341.95743431682
 30
0
 40
0.81527396238882
 50
77.82609999999
 51
96.900624000003
  0
LINE
  8
130_VU3
 62
     7
  6
CONTINUOUS
 10
263.8741882662
 20
373.4205012801
 30
0
 11
266.24671738056
 21
373.52434769326
 31
0
  0
ARC
  8
130_VU3
 62
     7
  6
CONTINUOUS
 10
264.21160217564
 20
365.711777116
 30
0
 40
7.7161050546397
 50
92.506262
 51
104.685245
  0
ARC
  8
130_VU3
 62
     7
  6
CONTINUOUS
 10
268.86061940322
 20
366.47018172258
 30
0
 40
4.3849058109647
 50
90
 51
110.363018
  0
LINE
  8
130_VU3
 62
     7
  6
CONTINUOUS
 10
268.86061940322
 20
370.85508753355
 30
0
 11
269.85436273512
 21
370.85508777655
 31
0
  0
ARC
  8
130_VU3
 62
     7
  6
CONTINUOUS
 10
266.23470417566
 20
377.67820810787
 30
0
 40
4.153877667632
 50
-89.8343
 51
-61.696424000001
  0
LINE
  8
130_VU3
 62
     7
  6
CONTINUOUS
 10
268.20423700669
 20
374.02093577789
 30
0
 11
269.60593042565
 21
374.77578286035
 31
0
  0
ARC
  8
130_VU3
 62
     7
  6
CONTINUOUS
 10
284.27979959442
 20
339.07084053762
 30
0
 40
38.711825372132
 50
89.534913
 51
109.68923
  0
ARC
  8
130_VU3
 62
     7
  6
CONTINUOUS
 10
286.61295731722
 20
370.66530285594
 30
0
 40
4.4877289499458
 50
70.721407999999
 51
129.044492
  0
ARC
  8
130_VU3
 62
     7
  6
CONTINUOUS
 10
268.74759219643
 20
343.56915069181
 30
0
 40
4.5956030927717
 50
33.039152999999
 51
73.039151999999
  0
ARC
  8
130_VU3
 62
     7
  6
CONTINUOUS
 10
277.39384473638
 20
348.28599561587
 30
0
 40
5.2791952027857
 50
-155.23709
 51
-110.406173
  0
ARC
  8
130_VU3
 62
     7
  6
CONTINUOUS
 10
272.65890115137
 20
335.55831205412
 30
0
 40
8.3007024951028
 50
50.523098
 51
69.59383
  0
ARC
  8
130_VU3
 62
     7
  6
CONTINUOUS
 10
258.88497064496
 20
447.01082671965
 30
0
 40
77.026643931869
 50
-80.815873
 51
-71.375927
  0
ARC
  8
130_VU3
 62
     7
  6
CONTINUOUS
 10
283.39159468664
 20
374.63704500881
 30
0
 40
0.62616531156303
 50
-81.512815000002
 51
-50.955525000004
  0
LINE
  8
130_VU3
 62
     7
  6
CONTINUOUS
 10
288.09463379273
 20
374.90137949969
 30
0
 11
302.94273586411
 21
374.22369982951
 31
0
  0
ARC
  8
130_VU3
 62
     7
  6
CONTINUOUS
 10
302.97793566984
 20
374.57172604723
 30
0
 40
0.34980182077085
 50
-95.775338000009
 51
-50.749666000005
  0
ARC
  8
130_VU3
 62
     7
  6
CONTINUOUS
 10
292.02806792328
 20
371.66794072713
 30
0
 40
8.2006097072809
 50
90.859607
 51
121.561382
  0
ARC
  8
130_VU3
 62
     7
  6
CONTINUOUS
 10
284.64201216855
 20
383.69195622464
 30
0
 40
5.9107604665971
 50
-90.465093
 51
-58.438622
  0
ARC
  8
130_VU3
 62
     7
  6
CONTINUOUS
 10
294.16835462189
 20
229.0207677319
 30
0
 40
150.86383846009
 50
86.820385
 51
90.859608
  0
ARC
  8
130_VU3
 62
     7
  6
CONTINUOUS
 10
302.55436333771
 20
378.2116955422
 30
0
 40
1.4407787991876
 50
52.246851000002
 51
90.721755
  0
ARC
  8
130_VU3
 62
     7
  6
CONTINUOUS
 10
309.23478831492
 20
302.3762414187
 30
0
 40
3.024138742362
 50
-91.490808999999
 51
-7.1135049999983
  0
ARC
  8
130_VU3
 62
     7
  6
CONTINUOUS
 10
320.87177775058
 20
213.47600305138
 30
0
 40
58.417068579923
 50
84.463839
 51
104.685249
  0
LINE
  8
130_VU3
 62
     7
  6
CONTINUOUS
 10
318.76615018207
 20
282.86472629708
 30
0
 11
331.2861438335
 21
274.85378778628
 31
0
  0
ARC
  8
130_VU3
 62
     7
  6
CONTINUOUS
 10
320.55588467505
 20
278.09776936903
 30
0
 40
8.2006097072811
 50
60.859607
 51
91.561382
  0
ARC
  8
130_VU3
 62
     7
  6
CONTINUOUS
 10
314.56103153114
 20
284.98732549124
 30
0
 40
0.62616531156311
 50
-111.512815
 51
-80.955503000003
  0
ARC
  8
130_VU3
 62
     7
  6
CONTINUOUS
 10
320.17138047012
 20
292.20389997085
 30
0
 40
5.9107602235969
 50
-120.465093
 51
-88.438622999999
  0
ARC
  8
130_VU3
 62
     7
  6
CONTINUOUS
 10
315.36494255738
 20
279.9370146833
 30
0
 40
4.4877287069456
 50
40.721406999999
 51
99.044491
  0
ARC
  8
130_VU3
 62
     7
  6
CONTINUOUS
 10
251.08584089925
 20
153.49155009577
 30
0
 40
150.86383846009
 50
56.820385
 51
60.859607
  0
ARC
  8
130_VU3
 62
     7
  6
CONTINUOUS
 10
331.95376232003
 20
272.29402136626
 30
0
 40
2.5312306539967
 50
15
 51
99.25034
  0
ARC
  8
130_VU3
 62
     7
  6
CONTINUOUS
 10
329.45029056015
 20
270.70276026895
 30
0
 40
7.9958151453044
 50
-73.044651000001
 51
-58.452431
  0
ARC
  8
130_VU3
 62
     7
  6
CONTINUOUS
 10
331.92317733264
 20
262.5917107453
 30
0
 40
0.4838247378545
 50
106.955355
 51
146.955321
  0
ARC
  8
130_VU3
 62
     7
  6
CONTINUOUS
 10
326.50750563893
 20
272.73768739165
 30
0
 40
1.117101938647
 50
-90
 51
85.270848999997
  0
ARC
  8
130_VU3
 62
     7
  6
CONTINUOUS
 10
331.49064096313
 20
275.13758732868
 30
0
 40
0.3498018207709
 50
-125.77533999998
 51
-80.749654999984
  0
ARC
  8
130_VU3
 62
     7
  6
CONTINUOUS
 10
318.12691461438
 20
269.16256616672
 30
0
 40
16.706604914937
 50
-15.655984
 51
13.100043
  0
ARC
  8
130_VU3
 62
     7
  6
CONTINUOUS
 10
326.07027547599
 20
268.90419101474
 30
0
 40
14.002410791797
 50
-11.259128
 51
25.926408
  0
ARC
  8
130_VU3
 62
     7
  6
CONTINUOUS
 10
337.19760632791
 20
262.09517903674
 30
0
 40
0.68221138241637
 50
98.310625000002
 51
166.016003
  0
ARC
  8
130_VU3
 62
     7
  6
CONTINUOUS
 10
332.94222962983
 20
265.01503906844
 30
0
 40
1.3217001563966
 50
-58.452431999998
 51
-15.847662000003
  0
ARC
  8
130_VU3
 62
     7
  6
CONTINUOUS
 10
336.02321755897
 20
266.40124559348
 30
0
 40
3.7870313211382
 50
-73.496733
 51
-3.4967340000001
  0
ARC
  8
130_VU3
 62
     7
  6
CONTINUOUS
 10
339.54644412985
 20
281.20246829361
 30
0
 40
5.6928844704834
 50
-157.753154
 51
-107.453456
  0
ARC
  8
130_VU3
 62
     7
  6
CONTINUOUS
 10
332.94380135564
 20
278.50167957641
 30
0
 40
1.4407787991876
 50
22.246849999998
 51
60.721746
  0
ARC
  8
130_VU3
 62
     7
  6
CONTINUOUS
 10
337.3267092183
 20
274.37643414591
 30
0
 40
1.4863114628754
 50
25.926406999998
 51
69.839333999997
  0
ARC
  8
130_VU3
 62
     7
  6
CONTINUOUS
 10
307.36695304556
 20
317.76589537474
 30
0
 40
2.9798621471277
 50
-49.564079999999
 51
30.435918999998
  0
ARC
  8
130_VU3
 62
     7
  6
CONTINUOUS
 10
309.494117243
 20
304.79451728
 30
0
 40
3.0241387423621
 50
-5.1281929999997
 51
79.249105999999
  0
LINE
  8
130_VU3
 62
     7
  6
CONTINUOUS
 10
308.32256185734
 20
304.4009620436
 30
0
 11
312.4455211412
 21
303.95882740598
 31
0
  0
LINE
  8
130_VU3
 62
     7
  6
CONTINUOUS
 10
308.16710121245
 20
302.9512721811
 30
0
 11
312.29006049631
 21
302.50913754348
 31
0
  0
LINE
  8
130_VU3
 62
     7
  6
CONTINUOUS
 10
308.16710121245
 20
302.9512721811
 30
0
 11
308.32256185734
 21
304.4009620436
 31
0
  0
LINE
  8
130_VU3
 62
     7
  6
CONTINUOUS
 10
312.4455211412
 20
303.95882740598
 30
0
 11
312.50615092635
 21
304.52420644021
 31
0
  0
LINE
  8
130_VU3
 62
     7
  6
CONTINUOUS
 10
312.23564933134
 20
302.00174615236
 30
0
 11
312.29006049631
 21
302.50913754348
 31
0
  0
LINE
  8
130_VU3
 62
     7
  6
CONTINUOUS
 10
307.34453724163
 20
313.905750615
 30
0
 11
307.77604158894
 21
314.25712464759
 31
0
  0
LINE
  8
130_VU3
 62
     7
  6
CONTINUOUS
 10
308.90586532131
 20
315.17714096518
 30
0
 11
309.29968324101
 21
315.49782746426
 31
0
  0
ARC
  8
130_VU3
 62
     7
  6
CONTINUOUS
 10
301.40045949248
 20
366.46326374758
 30
0
 40
14.002410791797
 50
18.740873
 51
55.926408
  0
ARC
  8
130_VU3
 62
     7
  6
CONTINUOUS
 10
311.27143296361
 20
369.27212052183
 30
0
 40
3.7870313211382
 50
-43.496731999999
 51
26.503266
  0
ARC
  8
130_VU3
 62
     7
  6
CONTINUOUS
 10
309.29632254712
 20
366.53113639911
 30
0
 40
1.3216999133963
 50
-28.452435999998
 51
14.152339000002
  0
ARC
  8
130_VU3
 62
     7
  6
CONTINUOUS
 10
314.44151670285
 20
366.13015191512
 30
0
 40
0.68221138241649
 50
128.310625
 51
-163.98399700001
  0
ARC
  8
130_VU3
 62
     7
  6
CONTINUOUS
 10
303.42835370104
 20
369.71087794153
 30
0
 40
7.9958153883046
 50
-43.044648
 51
-28.45243
  0
ARC
  8
130_VU3
 62
     7
  6
CONTINUOUS
 10
309.62546156798
 20
363.92294658407
 30
0
 40
0.48382473785462
 50
136.95535699999
 51
176.955342
  0
ARC
  8
130_VU3
 62
     7
  6
CONTINUOUS
 10
298.90233786979
 20
361.6696683997
 30
0
 40
15.484482871767
 50
-15.351182
 51
16.015997
  0
ARC
  8
130_VU3
 62
     7
  6
CONTINUOUS
 10
294.39211948682
 20
362.71534283569
 30
0
 40
16.706605157937
 50
14.344016
 51
43.100044
  0
ARC
  8
130_VU3
 62
     7
  6
CONTINUOUS
 10
308.41269552164
 20
376.83058206005
 30
0
 40
1.4863114628754
 50
55.926409
 51
99.839329999998
  0
ARC
  8
130_VU3
 62
     7
  6
CONTINUOUS
 10
176.18614100656
 20
352.59396875281
 30
0
 40
31.42823190097
 50
90.364816
 51
101.876241
  0
ARC
  8
130_VU3
 62
     7
  6
CONTINUOUS
 10
175.78592343145
 20
352.59396875281
 30
0
 40
31.42823190097
 50
78.123764
 51
89.635188
  0
LINE
  8
0
 62
     7
  6
CONTINUOUS
 10
228.26534083089
 20
323.26163184387
 30
0
 11
226.22219987704
 21
321.00316470744
 31
0
  0
LINE
  8
0
 62
     7
  6
CONTINUOUS
 10
226.22219987704
 20
321.00316470744
 30
0
 11
223.90223492835
 21
319.1737852321
 31
0
  0
LINE
  8
0
 62
     7
  6
CONTINUOUS
 10
223.90223492835
 20
319.1737852321
 30
0
 11
221.08709959537
 21
317.97712347003
 31
0
  0
LINE
  8
0
 62
     7
  6
CONTINUOUS
 10
221.08709959537
 20
317.97712347003
 30
0
 11
218.20319059789
 21
317.4177643322
 31
0
  0
LINE
  8
0
 62
     7
  6
CONTINUOUS
 10
218.20319059789
 20
317.4177643322
 30
0
 11
215.87864073824
 21
316.99136761239
 31
0
  0
LINE
  8
0
 62
     7
  6
CONTINUOUS
 10
215.87864073824
 20
316.99136761239
 30
0
 11
211.58716407428
 21
316.35864989911
 31
0
  0
LINE
  8
0
 62
     7
  6
CONTINUOUS
 10
211.58716407428
 20
316.35864989911
 30
0
 11
208.77202874129
 21
316.22110257014
 31
0
  0
LINE
  8
0
 62
     7
  6
CONTINUOUS
 10
208.77202874129
 20
316.22110257014
 30
0
 11
205.60385526394
 21
316.14774399468
 31
0
  0
LINE
  8
0
 62
     7
  6
CONTINUOUS
 10
205.60385526394
 20
316.14774399468
 30
0
 11
202.0184548887
 21
316.56955580354
 31
0
  0
LINE
  8
0
 62
     7
  6
CONTINUOUS
 10
202.0184548887
 20
316.56955580354
 30
0
 11
199.20331955572
 21
317.06472618784
 31
0
  0
LINE
  8
0
 62
     7
  6
CONTINUOUS
 10
199.20331955572
 20
317.06472618784
 30
0
 11
195.61333426951
 21
318.18802937445
 31
0
  0
LINE
  8
0
 62
     7
  6
CONTINUOUS
 10
195.61333426951
 20
318.18802937445
 30
0
 11
192.94033117646
 21
319.38469113652
 31
0
  0
LINE
  8
0
 62
     7
  6
CONTINUOUS
 10
192.94033117646
 20
319.38469113652
 30
0
 11
190.68913989227
 21
320.72348513853
 31
0
  0
LINE
  8
0
 62
     7
  6
CONTINUOUS
 10
190.68913989227
 20
320.72348513853
 30
0
 11
188.9973077459
 21
321.84678832514
 31
0
  0
LINE
  8
0
 62
     7
  6
CONTINUOUS
 10
188.9973077459
 20
321.84678832514
 30
0
 11
187.86188532037
 21
322.72401451417
 31
0
  0
ARC
  8
130_VU3
 62
     7
  6
CONTINUOUS
 10
192.09717542612
 20
254.8352523479
 30
0
 40
14.481003004596
 50
4.6551759999998
 51
29.655176
  0
ARC
  8
130_VU3
 62
     7
  6
CONTINUOUS
 10
188.28064719932
 20
240.29598826542
 30
0
 40
21.076919288017
 50
19.313914
 51
45.677454
  0
ARC
  8
130_VU3
 62
     7
  6
CONTINUOUS
 10
229.62475428195
 20
242.88200859848
 30
0
 40
14.61939871174
 50
-166.475681
 51
-151.47568
  0
ARC
  8
130_VU3
 62
     7
  6
CONTINUOUS
 10
205.69591682025
 20
227.09440246217
 30
0
 40
18.161431074379
 50
38.504543
 51
53.504543
  0
ARC
  8
130_VU3
 62
     7
  6
CONTINUOUS
 10
212.73780278147
 20
249.6469650155
 30
0
 40
5.1494002475942
 50
-152.472473
 51
-130.472462
  0
ARC
  8
130_VU3
 62
     7
  6
CONTINUOUS
 10
976.35245619327
 20
914.31251854462
 30
0
 40
1014.2367914784
 50
-139.170903
 51
-138.727933
  0
ARC
  8
130_VU3
 62
     7
  6
CONTINUOUS
 10
216.70114290837
 20
258.05820409755
 30
0
 40
10.374819731154
 50
-168.616717
 51
-138.616716
  0
ARC
  8
130_VU3
 62
     7
  6
CONTINUOUS
 10
361.64626499066
 20
424.16608331143
 30
0
 40
234.56311556515
 50
-130.472473
 51
-129.211921
  0
ARC
  8
130_VU3
 62
     7
  6
CONTINUOUS
 10
216.6644372605
 20
245.03746519154
 30
0
 40
2.3941843274145
 50
-174.075878
 51
-144.075878
  0
ARC
  8
130_VU3
 62
     7
  6
CONTINUOUS
 10
213.3968615855
 20
244.6984036383
 30
0
 40
0.89093574494039
 50
5.9241270000034
 51
41.272119000001
  0
ARC
  8
130_VU3
 62
     7
  6
CONTINUOUS
 10
222.97310257912
 20
249.39327081374
 30
0
 40
10.060023315889
 50
-145.067323
 51
-130.067322
  0
ARC
  8
130_VU3
 62
     7
  6
CONTINUOUS
 10
208.86004314851
 20
237.11229058712
 30
0
 40
6.9597520994309
 50
19.741581
 51
49.741582
  0
ARC
  8
130_VU3
 62
     7
  6
CONTINUOUS
 10
218.39571255192
 20
237.08648864694
 30
0
 40
2.0041523520916
 50
-143.727576
 51
40.998262999999
  0
ARC
  8
130_VU3
 62
     7
  6
CONTINUOUS
 10
230.65374292372
 20
270.14081738235
 30
0
 40
31.811936634971
 50
175.833637
 51
-156.503313
  0
ARC
  8
130_VU3
 62
     7
  6
CONTINUOUS
 10
240.82873255227
 20
278.61343577207
 30
0
 40
39.782258134776
 50
-170.316498
 51
-155.316497
  0
ARC
  8
130_VU3
 62
     7
  6
CONTINUOUS
 10
206.84189571036
 20
259.78876844467
 30
0
 40
5.8471723960167
 50
-156.503313
 51
-130.98416
  0
LINE
  8
130_VU3
 62
     7
  6
CONTINUOUS
 10
201.6056631077
 20
271.97139625832
 30
0
 11
201.61329430207
 21
271.92183885763
 31
0
  0
LINE
  8
0
 62
     7
  6
CONTINUOUS
 10
201.6132942671
 20
271.92183937032
 30
0
 11
201.72671634913
 21
274.96523126013
 31
0
  0
ARC
  8
130_VU3
 62
     7
  6
CONTINUOUS
 10
205.14753451066
 20
276.62203406652
 30
0
 40
6.6025946601485
 50
170
 51
-160
  0
ARC
  8
130_VU3
 62
     7
  6
CONTINUOUS
 10
183.94737857603
 20
273.54315061796
 30
0
 40
15.018185501194
 50
-4.166358
 51
3.1324700000002
  0
LINE
  8
0
 62
     7
  6
CONTINUOUS
 10
201.72671634913
 20
274.96523126013
 30
0
 11
202.32801014613
 21
277.85786196549
 31
0
  0
LINE
  8
0
 62
     7
  6
CONTINUOUS
 10
202.32801014613
 20
277.85786196549
 30
0
 11
203.71532957095
 21
280.58409217025
 31
0
  0
ARC
  8
130_VU3
 62
     7
  6
CONTINUOUS
 10
252.51110219895
 20
245.16845373585
 30
0
 40
63.263937851445
 50
133.11813
 51
147.352836
  0
ARC
  8
130_VU3
 62
     7
  6
CONTINUOUS
 10
202.76490514654
 20
277.04019894456
 30
0
 40
4.1835497029668
 50
147.352836
 51
169.973605
  0
LINE
  8
0
 62
     7
  6
CONTINUOUS
 10
203.71532957095
 20
280.58409217025
 30
0
 11
205.56498290977
 21
282.86632710053
 31
0
  0
ARC
  8
130_VU3
 62
     7
  6
CONTINUOUS
 10
229.66605865451
 20
270.91260916094
 30
0
 40
28.872077923133
 50
84.945353
 51
134.945354
  0
LINE
  8
0
 62
     7
  6
CONTINUOUS
 10
205.56498290977
 20
282.86632710053
 30
0
 11
207.07160888419
 21
284.68715778619
 31
0
  0
LINE
  8
0
 62
     7
  6
CONTINUOUS
 10
207.07160888419
 20
284.68715778619
 30
0
 11
209.95236762888
 21
287.93035570137
 31
0
  0
LINE
  8
0
 62
     7
  6
CONTINUOUS
 10
209.95236762888
 20
287.93035570137
 30
0
 11
212.02047268853
 21
289.84525718003
 31
0
  0
LINE
  8
0
 62
     7
  6
CONTINUOUS
 10
212.02047268853
 20
289.84525718003
 30
0
 11
214.40028039233
 21
291.93791576569
 31
0
  0
LINE
  8
0
 62
     7
  6
CONTINUOUS
 10
214.40028039233
 20
291.93791576569
 30
0
 11
217.41799183048
 21
293.91944011044
 31
0
  0
ARC
  8
130_VU3
 62
     7
  6
CONTINUOUS
 10
232.0228853432
 20
298.98724502165
 30
0
 40
0.71021473482023
 50
-74.007046999999
 51
74.736505999997
  0
LINE
  8
0
 62
     7
  6
CONTINUOUS
 10
217.41799183048
 20
293.91944011044
 30
0
 11
219.89279999666
 21
295.34965170079
 31
0
  0
LINE
  8
0
 62
     7
  6
CONTINUOUS
 10
219.89279999666
 20
295.34965170079
 30
0
 11
223.36493364631
 21
296.79674959767
 31
0
  0
LINE
  8
0
 62
     7
  6
CONTINUOUS
 10
223.36493364631
 20
296.79674959767
 30
0
 11
226.18177216582
 21
297.59822677341
 31
0
  0
LINE
  8
0
 62
     7
  6
CONTINUOUS
 10
226.18177216582
 20
297.59822677341
 30
0
 11
228.76684493589
 21
298.01968893221
 31
0
  0
LINE
  8
0
 62
     7
  6
CONTINUOUS
 10
228.76684493589
 20
298.01968893221
 30
0
 11
230.78490892059
 21
298.24667750952
 31
0
  0
LINE
  8
0
 62
     7
  6
CONTINUOUS
 10
230.78490892059
 20
298.24667750952
 30
0
 11
232.21856308545
 21
298.30451872895
 31
0
  0
ENDSEC
  0
EOF
